<svg width="77" height="100" viewBox="0 0 77 100" fill="none" xmlns="http://www.w3.org/2000/svg">
<path fill-rule="evenodd" clip-rule="evenodd" d="M70.5819 22.1305C72.8053 22.1305 74.8388 23.4776 76.0218 25.7336C77.1917 27.9645 77.32 30.7047 76.3648 33.0639C72.393 42.8776 60.6498 49.6897 46.605 50.5735V62.6429L53.7139 63.3919C58.1077 63.8552 61.4209 68.1812 61.4209 73.455C61.4209 78.664 58.1525 82.9851 53.818 83.5064L46.6051 84.3742V92.5414H60.4136C62.1361 92.5414 63.5326 94.2111 63.5326 96.2707C63.5326 98.3303 62.1361 100 60.4136 100H26.5588C24.8363 100 23.4398 98.3303 23.4398 96.2707C23.4398 94.2111 24.8363 92.5414 26.5588 92.5414H40.3673V85.1248L29.5369 86.4279C29.4308 86.4406 29.3252 86.4468 29.2208 86.4468C27.6386 86.4468 26.2828 85.0129 26.121 83.0906C25.9487 81.0412 27.1982 79.2128 28.9122 79.0064L40.3673 77.6283V69.4732L38.1088 69.2353C37.4917 69.1701 36.8764 69.1069 36.2635 69.0439L36.0261 69.0195L36.0256 69.0194H36.0256C28.7972 68.2769 21.9695 67.5755 15.9903 64.9443C8.93828 61.8413 4.16814 56.4153 1.4072 48.3565C-1.39637 40.1721 -0.0129652 24.4418 5.57719 17.583C8.88176 12.8948 15.4723 8.22189 20.7343 6.63771C22.1131 2.74532 26.0987 0 30.9278 0C36.935 0 41.6408 4.24669 41.6404 9.66838C41.6404 15.0901 36.9346 19.3371 30.9271 19.3371C26.7258 19.3371 23.1636 17.2584 21.3999 14.1551C17.5336 15.5996 12.516 19.252 10.292 22.4684L10.198 22.6043L10.0937 22.729C8.45721 24.6856 7.12885 28.6741 6.53998 33.3979C5.96156 38.0403 6.20658 42.6889 7.17965 45.5292C8.28962 48.7692 9.76303 51.3563 11.6835 53.438C13.4226 55.3226 15.536 56.7964 18.1444 57.9443C23.337 60.2292 29.7582 60.889 36.5567 61.5875L36.5601 61.5878L36.681 61.6003C37.337 61.6678 37.9957 61.7356 38.6565 61.8052L40.3673 61.9855V50.5733C26.3226 49.6896 14.5792 42.8774 10.6074 33.0637C9.65261 30.7046 9.78084 27.9645 10.9507 25.7336C12.1337 23.4774 14.1674 22.1305 16.3906 22.1305H70.5819ZM35.4029 9.66877C35.4029 9.11857 33.8158 7.4588 30.9278 7.4588C28.0394 7.4588 26.4525 9.11857 26.4526 9.66877C26.4526 10.219 28.0398 11.8787 30.9278 11.8787C33.8158 11.8787 35.4029 10.219 35.4029 9.66877ZM46.6054 70.1302L53.1667 70.8218C54.3164 70.9431 55.1834 72.0751 55.1834 73.455C55.1834 74.8179 54.3281 75.9488 53.1938 76.0849L46.6054 76.8775V70.1302ZM43.4864 43.2136C56.1418 43.2136 67.6078 37.5784 70.7502 29.8147C70.7626 29.784 70.7714 29.762 70.7366 29.6958C70.6809 29.5891 70.6139 29.5891 70.5819 29.5891H16.3906C16.3586 29.5891 16.2918 29.5891 16.2359 29.6958C16.2013 29.7619 16.2103 29.784 16.2227 29.8146L16.2227 29.8147C19.3651 37.5786 30.8311 43.2136 43.4864 43.2136Z" fill="url(#paint0_linear)"/>
<defs>
<linearGradient id="paint0_linear" x1="-12.5765" y1="17.9209" x2="30.5965" y2="110.671" gradientUnits="userSpaceOnUse">
<stop stop-color="#E8F7FF"/>
<stop offset="1" stop-color="#FFF3F8"/>
</linearGradient>
</defs>
</svg>
