<svg width="105" height="100" viewBox="0 0 105 100" fill="none" xmlns="http://www.w3.org/2000/svg">
<path fill-rule="evenodd" clip-rule="evenodd" d="M81.3336 1.27832C80.4497 1.27832 79.5548 1.31837 78.6742 1.39827C69.5809 2.22491 61.2898 7.77387 55.25 17.0532C48.2431 6.66834 36.6612 0 25.5208 0C23.0726 0 20.6469 0.318088 18.3121 0.946168C11.097 2.88687 5.21427 8.28435 2.17388 15.757C-1.19555 24.0356 -0.615675 33.7329 3.68772 41.0642C9.5978 51.1338 19.7307 57.2799 29.5286 63.2226L29.5896 63.2596L29.5898 63.2597C34.6035 66.3023 39.7844 69.4463 44.2302 73.0482C45.5597 74.1237 47.23 75.5258 48.6631 77.0534C46.855 78.8438 43.2799 84.7953 43.2455 84.8666C42.122 87.2413 40.5787 92.2623 41.9202 96.0187C42.4935 97.621 43.5233 98.782 44.9843 99.4689C45.7336 99.8204 46.5221 100 47.3269 100C50.7873 100 53.9925 96.7045 56.0737 93.9414C59.8794 88.8825 60.4491 83.5726 57.7652 78.1514C62.3636 73.9715 67.3659 70.0858 72.2067 66.3255L72.207 66.3253L72.2265 66.3102C80.565 59.8342 89.1867 53.1362 96.0472 44.7181C99.3989 40.6043 109.761 26.1373 102.437 12.6594C98.565 5.53277 90.6755 1.27832 81.3336 1.27832ZM51.3615 88.3158C50.665 89.6529 49.9619 90.6182 49.2298 91.2348C49.3772 89.2485 50.1305 87.3095 50.6143 86.2428C50.75 85.9432 51.6399 84.5605 52.2798 83.6356C52.4807 85.2086 52.1776 86.7492 51.3615 88.3158ZM48.6695 19.8092C47.0734 17.6314 45.1758 15.624 43.0295 13.8469C38.5618 10.1479 33.1535 7.82799 27.7998 7.31624C27.0698 7.2455 26.3377 7.21141 25.6223 7.21141C15.8863 7.21141 8.71919 13.4637 7.3631 23.1399C4.9908 40.0631 20.0386 49.1519 33.3166 57.1708L33.3421 57.1862C36.0334 58.8119 38.576 60.3477 40.929 61.9181C44.9078 64.5719 49.921 68.1379 53.7431 72.3949C57.9931 68.641 62.5322 65.1162 66.9259 61.7061L66.9616 61.6784C72.5479 57.3399 78.3236 52.8542 83.5321 47.8666C95.6883 36.2288 100.209 26.6359 97.3529 18.5407C95.1847 12.4001 89.0156 8.2737 82 8.2737C81.4659 8.2737 80.9257 8.29649 80.3927 8.34571C71.223 9.17768 63.5109 15.1738 58.6779 25.231C57.9212 26.8078 56.9639 27.6063 55.8334 27.6063C53.5548 27.6063 51.4499 24.4046 49.491 21.1253L49.4406 21.0412C49.1223 20.5103 48.85 20.056 48.6695 19.8092Z" fill="url(#paint0_linear)"/>
<defs>
<linearGradient id="paint0_linear" x1="-17.1498" y1="17.9209" x2="17.3503" y2="118.991" gradientUnits="userSpaceOnUse">
<stop stop-color="#E8F7FF"/>
<stop offset="1" stop-color="#FFF3F8"/>
</linearGradient>
</defs>
</svg>
