<svg width="80" height="80" viewBox="0 0 80 80" fill="none" xmlns="http://www.w3.org/2000/svg">
<rect x="38.7629" y="17.3196" width="2.47423" height="2.47423" fill="#DB4580"/>
<path fill-rule="evenodd" clip-rule="evenodd" d="M78.6812 34.6667L78.6463 34.6666C77.8426 34.6638 67.471 34.6276 63.0131 39.0387C62.9342 36.9587 62.799 35.012 62.5915 33.1893C61.9893 27.6693 59.4866 21.8293 56.6118 15.828C65.1264 15.1813 73.9956 15.8187 74.6929 17.94C74.8267 18.3547 74.9847 20.74 64.5951 26.852L65.9575 29.148C74.7906 23.948 78.2703 20.2373 77.2371 17.1093C75.5963 12.1173 61.8354 12.7093 55.8235 13.2133C55.9279 10.996 56.5502 6.01333 57.2301 1.532C57.2882 1.14822 57.1755 0.758295 56.9215 0.464018C56.6675 0.169741 56.2974 0.000324911 55.9078 0H25.1258C24.7431 -4.03123e-05 24.3786 0.163157 24.1246 0.448345C23.8706 0.733533 23.7512 1.11342 23.7968 1.492C24.273 5.67434 24.3147 9.89447 23.9213 14.0853C20.7092 20.6973 17.7648 27.1347 17.1037 33.188C16.9792 34.324 16.8815 35.508 16.8012 36.7213C4.05479 38.572 2.80477 36.776 2.68968 36.496C2.12355 35.104 7.4087 30.3267 13.7752 26.472L12.386 24.1933C8.14345 26.76 -1.53282 33.1947 0.207036 37.496C0.80394 38.9627 2.41665 40.216 7.7018 40.216C10.7017 40.165 13.6946 39.9093 16.6594 39.4507C16.2793 49.5587 17.2978 62.2987 19.7884 78.864C19.8864 79.5164 20.4486 79.9994 21.1107 80H37.1709C37.9101 80 38.5093 79.403 38.5093 78.6667V45.3333H41.186V78.6667C41.186 79.403 41.7852 80 42.5243 80H58.5845C59.2472 80 59.8101 79.5169 59.9082 78.864C61.2304 70.064 62.1178 62.48 62.6143 55.7787C63.5392 56.1423 64.5255 56.3261 65.5199 56.32C69.3539 56.0744 72.9522 54.3913 75.5909 51.6093C80.1212 47.0973 80.0075 36.4307 79.9981 35.9787C79.9867 35.2589 79.4037 34.6781 78.6812 34.6667ZM67.953 39.0773C70.3088 38.2185 72.7714 37.6842 75.2724 37.4893L67.953 44.7813V39.0773ZM26.598 2.66667C26.9446 6.85067 27.0356 13.8093 26.3303 15.2507C24.8849 18.2213 23.5077 21.1493 22.3755 24H57.3198C56.1862 21.148 54.8104 18.22 53.365 15.248L53.3649 15.2479C53.1815 14.8731 52.704 13.8974 54.3553 2.66667H26.598ZM35.8326 77.3333H22.2644C20.7534 67.136 19.0523 53.5133 19.2825 41.4053L35.8326 45.0667V77.3333ZM37.3168 42.6667H42.3784L60.3271 38.6947C60.2481 36.8493 60.1236 35.1133 59.9376 33.4827C59.6471 31.1588 59.1036 28.8734 58.3169 26.6667H21.3784C20.5946 28.8725 20.0534 31.1565 19.7643 33.4787C19.664 34.4013 19.581 35.3453 19.5127 36.3C23.4301 35.6533 28.2428 34.7147 34.1971 33.3667L34.7913 35.9667C29.0378 37.2693 24.2572 38.224 20.2609 38.8907L37.3168 42.6667ZM60.0567 53.98C59.607 60.7587 58.7478 68.4093 57.4295 77.3333H43.8627V45.0667L60.398 41.4053C60.398 41.5764 60.4017 41.7454 60.4055 41.9158V41.9158L60.4055 41.9166L60.4055 41.9173C60.4085 42.0519 60.4115 42.1873 60.4127 42.3253C57.9849 46.2667 57.3131 50.9213 60.0567 53.98ZM64.8828 40.9427C61.5637 44.2493 60.2039 48.6053 61.4366 51.272L65.2749 47.448V40.5973C65.1398 40.7093 65.0033 40.8227 64.8828 40.9427ZM73.6972 49.724C70.3794 53.0307 66.0003 54.3907 63.329 53.1573L69.8454 46.6667H75.5735C75.1577 47.7993 74.5203 48.8385 73.6985 49.724H73.6972ZM72.5221 44H76.414C76.7741 42.4774 77.0254 40.9313 77.1662 39.3733L72.5221 44Z" fill="#0089CF"/>
<path fill-rule="evenodd" clip-rule="evenodd" d="M11.9732 21.1761C12.7201 21.3468 13.4834 21.4354 14.2496 21.4403C16.1641 21.496 18.0195 20.773 19.3932 19.436C21.2339 17.4329 21.8939 14.6109 21.1328 11.9973C20.4173 9.08899 18.9005 6.44055 16.7555 4.35385C12.3784 -0.038878 2.13148 -0.00259449 1.33419 0.000228629L1.29942 0.000322723C0.586385 0.0109594 0.0109302 0.587447 0.000312629 1.30176L0.000221056 1.33636C-0.00254364 2.13398 -0.038128 12.4001 4.34341 16.7908C6.42637 18.9397 9.07006 20.4592 11.9732 21.1761ZM12.5429 18.597C10.1351 17.9791 7.94436 16.7071 6.21227 14.9212C5.40147 14.0442 4.77292 13.0143 4.36319 11.8916H10.0054L16.4297 18.3274C15.1957 18.8291 13.8342 18.9235 12.5429 18.597ZM14.5365 5.90142L14.5081 5.87726V12.6659L18.2999 16.4565C18.7995 15.2199 18.892 13.8557 18.5637 12.5628C17.9469 10.1507 16.6772 7.95598 14.8945 6.22078C14.7807 6.10918 14.6588 6.00554 14.5365 5.90142ZM11.8703 4.36971V10.0234L4.65598 2.7961C7.12123 2.98796 9.54859 3.51743 11.8703 4.36971ZM7.36762 9.2491L2.79372 4.66699C2.9355 6.21011 3.18583 7.74129 3.54284 9.2491H7.36762Z" fill="#DB4580"/>
</svg>
