<svg width="80" height="80" viewBox="0 0 80 80" fill="none" xmlns="http://www.w3.org/2000/svg">
<path fill-rule="evenodd" clip-rule="evenodd" d="M61.5182 46.1126L58.2126 48.3146C58.7943 49.3159 59.1932 50.4353 59.3649 51.6272H62.1961V54.2733H59.3649C59.2353 55.1764 58.9746 56.0381 58.6026 56.8378L61.7203 59.9533L59.848 61.8242L57.1182 59.0967C55.697 60.6944 53.732 61.7987 51.516 62.1171V64.9462H48.8679V62.1815C46.1854 62.0678 43.5611 61.6082 41.0258 60.8081L39.5025 64.5589L37.0489 63.5639L38.5367 59.9009C38.5072 59.8886 38.4775 59.8767 38.4478 59.8647C38.411 59.8499 38.3742 59.8351 38.3378 59.8196C36.2807 58.9503 34.3426 57.8674 32.54 56.5832L29.9437 59.178L28.0711 57.3068L30.4384 54.9411C29.8264 54.4187 29.2323 53.8723 28.6586 53.2986C27.3697 52.011 26.2102 50.6242 25.1827 49.1498L21.7975 51.4049L20.3286 49.2032L23.7638 46.9147C23.1566 45.8566 22.6122 44.7595 22.1326 43.6263C21.775 42.7818 21.4595 41.9249 21.1816 41.058L17.8481 42.1261L17.0027 39.606L20.4838 38.5028C20.0848 36.7369 19.8466 34.9339 19.769 33.104H17.0027V30.4578H19.8338C20.1524 28.2434 21.2575 26.2797 22.8563 24.8595L20.1269 22.1317L21.9992 20.2607L25.1168 23.3758C26.3005 22.8266 27.6183 22.5193 29.0072 22.5193C30.6963 22.5193 32.281 22.9734 33.6461 23.7655L35.8497 20.4623L38.053 21.9301L35.7301 25.4122C37.2275 26.9899 38.1757 29.0923 38.2674 31.4115L41.9264 30.4974L42.5684 33.0643L38.4991 34.0811C39.0412 36.8369 40.5369 39.2549 42.6284 40.976L45.1603 37.6025L47.2787 39.1902L44.8517 42.4241C46.4591 43.2325 48.2728 43.6886 50.1916 43.6886C50.3595 43.6886 50.5267 43.6935 50.6922 43.7024L51.5415 39.4599L54.1381 39.9788L53.2889 44.2213C54.5212 44.6593 55.6342 45.3504 56.5648 46.2325L60.0494 43.9109L61.5182 46.1126ZM22.387 31.7809C22.387 47.1015 34.86 59.5657 50.1915 59.5657C53.8419 59.5657 56.8116 56.5981 56.8116 52.9503C56.8116 49.3025 53.8419 46.3349 50.1915 46.3349C42.1608 46.3349 35.6272 39.8059 35.6272 31.7809C35.6272 28.1331 32.6575 25.1655 29.0071 25.1655C25.3567 25.1655 22.387 28.1331 22.387 31.7809Z" fill="#DB4580"/>
<path fill-rule="evenodd" clip-rule="evenodd" d="M51.6041 33.016C51.6041 31.5568 50.4162 30.3698 48.956 30.3698C46.0356 30.3698 43.6599 27.9959 43.6599 25.0775C43.6599 22.1591 46.0356 19.7852 48.956 19.7852C56.2568 19.7852 62.1963 25.7204 62.1963 33.016C62.1963 35.9344 59.8206 38.3083 56.9002 38.3083C53.9797 38.3083 51.6041 35.9344 51.6041 33.016ZM59.5481 33.0158C59.5481 27.1794 54.7964 22.4311 48.9559 22.4311C47.4957 22.4311 46.3079 23.6181 46.3079 25.0773C46.3079 26.5364 47.4957 27.7234 48.9559 27.7234C51.8764 27.7234 54.252 30.0974 54.252 33.0158C54.252 34.475 55.4398 35.6619 56.9001 35.6619C58.3603 35.6619 59.5481 34.475 59.5481 33.0158Z" fill="#DB4580"/>
<path fill-rule="evenodd" clip-rule="evenodd" d="M25.0354 31.7813C25.0354 29.5927 26.8173 27.812 29.0075 27.812C31.1976 27.812 32.9796 29.5927 32.9796 31.7813C32.9796 33.9699 31.1976 35.7505 29.0075 35.7505C26.8173 35.7505 25.0354 33.9699 25.0354 31.7813ZM27.6836 31.7811C27.6836 32.5105 28.2777 33.1042 29.0076 33.1042C29.7376 33.1042 30.3316 32.5105 30.3316 31.7811C30.3316 31.0517 29.7376 30.458 29.0076 30.458C28.2777 30.458 27.6836 31.0517 27.6836 31.7811Z" fill="#0089CF"/>
<path fill-rule="evenodd" clip-rule="evenodd" d="M46.2197 52.9507C46.2197 50.7621 48.0016 48.9814 50.1918 48.9814C52.382 48.9814 54.1639 50.7621 54.1639 52.9507C54.1639 55.1393 52.382 56.92 50.1918 56.92C48.0016 56.92 46.2197 55.1393 46.2197 52.9507ZM48.8677 52.9505C48.8677 53.68 49.4618 54.2736 50.1917 54.2736C50.9216 54.2736 51.5157 53.68 51.5157 52.9505C51.5157 52.2211 50.9216 51.6275 50.1917 51.6275C49.4618 51.6275 48.8677 52.2211 48.8677 52.9505Z" fill="#0089CF"/>
<path d="M29.0074 41.5903L27.1348 39.7194L29.0074 37.8481L30.8796 39.7194L29.0074 41.5903Z" fill="#DB4580"/>
<path d="M34.3035 49.5293L32.4309 47.6584L34.3035 45.7871L36.1758 47.6584L34.3035 49.5293Z" fill="#DB4580"/>
<path d="M42.2476 54.8223L40.375 52.951L42.2476 51.0801L44.1199 52.951L42.2476 54.8223Z" fill="#DB4580"/>
<path d="M40.9235 45.7861L42.7961 47.6574L40.9235 49.5287L39.0513 47.6574L40.9235 45.7861Z" fill="#DB4580"/>
<path d="M34.3035 42.9141L32.4309 41.0431L34.3035 39.1719L36.1758 41.0431L34.3035 42.9141Z" fill="#DB4580"/>
<path fill-rule="evenodd" clip-rule="evenodd" d="M40 76.7655C60.1622 76.7655 76.6704 60.394 76.6704 40C76.6704 19.606 60.1622 3.23455 40 3.23455C19.8378 3.23455 3.32964 19.606 3.32964 40C3.32964 60.394 19.8378 76.7655 40 76.7655ZM80 40C80 62.0914 62.0914 80 40 80C17.9086 80 0 62.0914 0 40C0 17.9086 17.9086 0 40 0C62.0914 0 80 17.9086 80 40Z" fill="#0089CF"/>
</svg>
