<svg width="100" height="101" viewBox="0 0 100 101" fill="none" xmlns="http://www.w3.org/2000/svg">
<mask id="path-1-inside-1" fill="white">
<path fill-rule="evenodd" clip-rule="evenodd" d="M75.8949 45.9901L98.8797 86.5096C100.39 89.1632 100.37 92.3272 98.8389 94.9605C97.0222 98.0632 93.4295 100.002 89.4286 100.002H29.2924C25.2915 100.002 21.6988 98.0632 19.8821 94.9605C18.3511 92.3272 18.3307 89.1632 19.8413 86.5096L22.005 82.7128C21.5559 82.7536 21.0864 82.774 20.6374 82.774C12.2273 82.774 5.38899 75.9357 5.38899 67.5256V8.32843H4.16422C1.85757 8.32843 0 6.47087 0 4.16422C0 1.85757 1.85757 0 4.16422 0H9.5532H31.7215H37.1105C39.4172 0 41.2747 1.85757 41.2747 4.16422C41.2747 6.47087 39.4172 8.32843 37.1105 8.32843H35.8857V58.2378L42.7853 46.0513L43.3773 25.5569H42.4995C40.1929 25.5569 38.3353 23.6993 38.3353 21.3926C38.3353 19.086 40.1929 17.2284 42.4995 17.2284H76.2215C78.5281 17.2284 80.3857 19.086 80.3857 21.3926C80.3857 23.6993 78.5281 25.5569 76.2215 25.5569H75.3437L75.8949 45.9901ZM27.5573 32.1298V8.32843H13.7174V32.1298H27.5573ZM13.7174 67.5256V40.4582H27.5573V67.5256C27.5573 71.3428 24.4546 74.4456 20.6374 74.4456C16.8202 74.4252 13.7174 71.3224 13.7174 67.5256ZM29.2924 91.674H89.4286C90.9391 91.674 91.6332 90.8779 91.7148 90.6942L68.7096 50.1951C68.0155 48.9704 67.6277 47.6027 67.5869 46.2351L67.0153 25.5773H51.7465L51.175 46.2351C51.1341 47.6027 50.7463 48.9704 50.0522 50.1951L27.0878 90.6329C27.0878 90.8779 27.7819 91.674 29.2924 91.674Z"/>
</mask>
<path fill-rule="evenodd" clip-rule="evenodd" d="M75.8949 45.9901L98.8797 86.5096C100.39 89.1632 100.37 92.3272 98.8389 94.9605C97.0222 98.0632 93.4295 100.002 89.4286 100.002H29.2924C25.2915 100.002 21.6988 98.0632 19.8821 94.9605C18.3511 92.3272 18.3307 89.1632 19.8413 86.5096L22.005 82.7128C21.5559 82.7536 21.0864 82.774 20.6374 82.774C12.2273 82.774 5.38899 75.9357 5.38899 67.5256V8.32843H4.16422C1.85757 8.32843 0 6.47087 0 4.16422C0 1.85757 1.85757 0 4.16422 0H9.5532H31.7215H37.1105C39.4172 0 41.2747 1.85757 41.2747 4.16422C41.2747 6.47087 39.4172 8.32843 37.1105 8.32843H35.8857V58.2378L42.7853 46.0513L43.3773 25.5569H42.4995C40.1929 25.5569 38.3353 23.6993 38.3353 21.3926C38.3353 19.086 40.1929 17.2284 42.4995 17.2284H76.2215C78.5281 17.2284 80.3857 19.086 80.3857 21.3926C80.3857 23.6993 78.5281 25.5569 76.2215 25.5569H75.3437L75.8949 45.9901ZM27.5573 32.1298V8.32843H13.7174V32.1298H27.5573ZM13.7174 67.5256V40.4582H27.5573V67.5256C27.5573 71.3428 24.4546 74.4456 20.6374 74.4456C16.8202 74.4252 13.7174 71.3224 13.7174 67.5256ZM29.2924 91.674H89.4286C90.9391 91.674 91.6332 90.8779 91.7148 90.6942L68.7096 50.1951C68.0155 48.9704 67.6277 47.6027 67.5869 46.2351L67.0153 25.5773H51.7465L51.175 46.2351C51.1341 47.6027 50.7463 48.9704 50.0522 50.1951L27.0878 90.6329C27.0878 90.8779 27.7819 91.674 29.2924 91.674Z" fill="url(#paint0_linear)"/>
<path d="M98.8797 86.5096L98.0099 87.003L98.0107 87.0043L98.8797 86.5096ZM75.8949 45.9901L74.8953 46.0171L74.902 46.2665L75.0251 46.4835L75.8949 45.9901ZM98.8389 94.9605L99.7019 95.4658L99.7034 95.4631L98.8389 94.9605ZM19.8821 94.9605L19.0176 95.4631L19.0191 95.4657L19.8821 94.9605ZM19.8413 86.5096L18.9724 86.0144L18.9722 86.0149L19.8413 86.5096ZM22.005 82.7128L22.8738 83.2079L23.8224 81.5434L21.9145 81.7169L22.005 82.7128ZM5.38899 8.32843H6.38899V7.32843H5.38899V8.32843ZM35.8857 8.32843V7.32843H34.8857V8.32843H35.8857ZM35.8857 58.2378H34.8857V62.0338L36.756 58.7305L35.8857 58.2378ZM42.7853 46.0513L43.6555 46.544L43.7777 46.3282L43.7849 46.0802L42.7853 46.0513ZM43.3773 25.5569L44.3768 25.5857L44.4066 24.5569H43.3773V25.5569ZM75.3437 25.5569V24.5569H74.3164L74.3441 25.5838L75.3437 25.5569ZM27.5573 8.32843H28.5573V7.32843H27.5573V8.32843ZM27.5573 32.1298V33.1298H28.5573V32.1298H27.5573ZM13.7174 8.32843V7.32843H12.7174V8.32843H13.7174ZM13.7174 32.1298H12.7174V33.1298H13.7174V32.1298ZM13.7174 40.4582V39.4582H12.7174V40.4582H13.7174ZM27.5573 40.4582H28.5573V39.4582H27.5573V40.4582ZM20.6374 74.4456L20.632 75.4456H20.6374V74.4456ZM91.7148 90.6942L92.6286 91.1003L92.8336 90.6391L92.5843 90.2003L91.7148 90.6942ZM68.7096 50.1951L67.8395 50.6881L67.8401 50.6891L68.7096 50.1951ZM67.5869 46.2351L66.5872 46.2627L66.5873 46.2649L67.5869 46.2351ZM67.0153 25.5773L68.0149 25.5496L67.988 24.5773H67.0153V25.5773ZM51.7465 25.5773V24.5773H50.7738L50.7469 25.5496L51.7465 25.5773ZM51.175 46.2351L52.1745 46.2649L52.1746 46.2627L51.175 46.2351ZM50.0522 50.1951L50.9218 50.689L50.9223 50.6881L50.0522 50.1951ZM27.0878 90.6329L26.2183 90.1391L26.0878 90.3688V90.6329H27.0878ZM99.7495 86.0162L76.7647 45.4967L75.0251 46.4835L98.0099 87.003L99.7495 86.0162ZM99.7034 95.4631C101.413 92.5229 101.436 88.979 99.7488 86.0149L98.0107 87.0043C99.3445 89.3475 99.3269 92.1316 97.9744 94.4578L99.7034 95.4631ZM89.4286 101.002C93.7408 101.002 97.6846 98.9109 99.7019 95.4657L97.976 94.4552C96.3597 97.2155 93.1182 99.0024 89.4286 99.0024V101.002ZM29.2924 101.002H89.4286V99.0024H29.2924V101.002ZM19.0191 95.4657C21.0364 98.9109 24.9802 101.002 29.2924 101.002V99.0024C25.6028 99.0024 22.3613 97.2155 20.745 94.4552L19.0191 95.4657ZM18.9722 86.0149C17.2849 88.979 17.3082 92.5229 19.0176 95.4631L20.7466 94.4578C19.3941 92.1316 19.3765 89.3475 20.7103 87.0043L18.9722 86.0149ZM21.1362 82.2176L18.9724 86.0144L20.7101 87.0047L22.8738 83.2079L21.1362 82.2176ZM20.6374 83.774C21.1154 83.774 21.6152 83.7523 22.0956 83.7087L21.9145 81.7169C21.4967 81.7549 21.0575 81.774 20.6374 81.774V83.774ZM4.38899 67.5256C4.38899 76.488 11.675 83.774 20.6374 83.774V81.774C12.7796 81.774 6.38899 75.3834 6.38899 67.5256H4.38899ZM4.38899 8.32843V67.5256H6.38899V8.32843H4.38899ZM4.16422 9.32843H5.38899V7.32843H4.16422V9.32843ZM-1 4.16422C-1 7.02315 1.30528 9.32843 4.16422 9.32843V7.32843C2.40985 7.32843 1 5.91858 1 4.16422H-1ZM4.16422 -1C1.30528 -1 -1 1.30528 -1 4.16422H1C1 2.40985 2.40985 1 4.16422 1V-1ZM9.5532 -1H4.16422V1H9.5532V-1ZM31.7215 -1H9.5532V1H31.7215V-1ZM37.1105 -1H31.7215V1H37.1105V-1ZM42.2747 4.16422C42.2747 1.30528 39.9695 -1 37.1105 -1V1C38.8649 1 40.2747 2.40985 40.2747 4.16422H42.2747ZM37.1105 9.32843C39.9695 9.32843 42.2747 7.02315 42.2747 4.16422H40.2747C40.2747 5.91858 38.8649 7.32843 37.1105 7.32843V9.32843ZM35.8857 9.32843H37.1105V7.32843H35.8857V9.32843ZM36.8857 58.2378V8.32843H34.8857V58.2378H36.8857ZM41.9151 45.5587L35.0155 57.7451L36.756 58.7305L43.6555 46.544L41.9151 45.5587ZM42.3777 25.528L41.7857 46.0225L43.7849 46.0802L44.3768 25.5857L42.3777 25.528ZM42.4995 26.5569H43.3773V24.5569H42.4995V26.5569ZM37.3353 21.3926C37.3353 24.2516 39.6406 26.5569 42.4995 26.5569V24.5569C40.7451 24.5569 39.3353 23.147 39.3353 21.3926H37.3353ZM42.4995 16.2284C39.6406 16.2284 37.3353 18.5337 37.3353 21.3926H39.3353C39.3353 19.6383 40.7451 18.2284 42.4995 18.2284V16.2284ZM76.2215 16.2284H42.4995V18.2284H76.2215V16.2284ZM81.3857 21.3926C81.3857 18.5337 79.0804 16.2284 76.2215 16.2284V18.2284C77.9759 18.2284 79.3857 19.6383 79.3857 21.3926H81.3857ZM76.2215 26.5569C79.0804 26.5569 81.3857 24.2516 81.3857 21.3926H79.3857C79.3857 23.147 77.9759 24.5569 76.2215 24.5569V26.5569ZM75.3437 26.5569H76.2215V24.5569H75.3437V26.5569ZM76.8945 45.9631L76.3434 25.5299L74.3441 25.5838L74.8953 46.0171L76.8945 45.9631ZM26.5573 8.32843V32.1298H28.5573V8.32843H26.5573ZM13.7174 9.32843H27.5573V7.32843H13.7174V9.32843ZM14.7174 32.1298V8.32843H12.7174V32.1298H14.7174ZM27.5573 31.1298H13.7174V33.1298H27.5573V31.1298ZM12.7174 40.4582V67.5256H14.7174V40.4582H12.7174ZM27.5573 39.4582H13.7174V41.4582H27.5573V39.4582ZM28.5573 67.5256V40.4582H26.5573V67.5256H28.5573ZM20.6374 75.4456C25.0069 75.4456 28.5573 71.8951 28.5573 67.5256H26.5573C26.5573 70.7905 23.9023 73.4456 20.6374 73.4456V75.4456ZM12.7174 67.5256C12.7174 71.8776 16.2697 75.4222 20.632 75.4456L20.6427 73.4456C17.3707 73.4281 14.7174 70.7672 14.7174 67.5256H12.7174ZM89.4286 90.674H29.2924V92.674H89.4286V90.674ZM90.801 90.2881C90.8525 90.1722 90.891 90.155 90.8273 90.2188C90.7851 90.2611 90.7093 90.3262 90.5956 90.3939C90.375 90.5254 90.0002 90.674 89.4286 90.674V92.674C90.3675 92.674 91.0951 92.4245 91.6194 92.112C91.8783 91.9578 92.0857 91.7894 92.2438 91.6308C92.3805 91.4936 92.5363 91.308 92.6286 91.1003L90.801 90.2881ZM67.8401 50.6891L90.8453 91.1881L92.5843 90.2003L69.5791 49.7012L67.8401 50.6891ZM66.5873 46.2649C66.6331 47.8001 67.0677 49.3261 67.8395 50.6881L69.5796 49.7021C68.9633 48.6146 68.6222 47.4054 68.5864 46.2052L66.5873 46.2649ZM66.0157 25.6049L66.5872 46.2627L68.5865 46.2074L68.0149 25.5496L66.0157 25.6049ZM51.7465 26.5773H67.0153V24.5773H51.7465V26.5773ZM52.1746 46.2627L52.7461 25.6049L50.7469 25.5496L50.1753 46.2074L52.1746 46.2627ZM50.9223 50.6881C51.6941 49.3261 52.1287 47.8001 52.1745 46.2649L50.1754 46.2052C50.1396 47.4054 49.7985 48.6146 49.1822 49.7021L50.9223 50.6881ZM27.9574 91.1268L50.9218 50.689L49.1827 49.7013L26.2183 90.1391L27.9574 91.1268ZM29.2924 90.674C28.717 90.674 28.3532 90.5238 28.159 90.4007C28.0579 90.3366 28.0085 90.2838 27.9958 90.2682C27.989 90.2598 28.0018 90.2733 28.0203 90.3116C28.0315 90.3346 28.0878 90.4518 28.0878 90.6329H26.0878C26.0878 90.8754 26.1658 91.071 26.2208 91.1844C26.2833 91.3132 26.362 91.429 26.4439 91.5297C26.6086 91.7323 26.8271 91.9244 27.0883 92.09C27.6187 92.4262 28.3572 92.674 29.2924 92.674V90.674Z" fill="white" mask="url(#path-1-inside-1)"/>
<defs>
<linearGradient id="paint0_linear" x1="-16.3332" y1="17.9213" x2="19.5101" y2="117.923" gradientUnits="userSpaceOnUse">
<stop stop-color="#E8F7FF"/>
<stop offset="1" stop-color="#FFF3F8"/>
</linearGradient>
</defs>
</svg>
