<svg width="966" height="485" viewBox="0 0 966 485" fill="none" xmlns="http://www.w3.org/2000/svg">
<g clip-path="url(#clip0)">
<path d="M237.5 331C328.903 331 403 256.903 403 165.5C403 74.0969 328.903 0 237.5 0C146.097 0 72 74.0969 72 165.5C72 256.903 146.097 331 237.5 331Z" fill="#F3FBFF"/>
<path opacity="0.16011" d="M276 63.7828V257.325C276 266.171 276 292 252.562 292C231.966 292 228.77 274.663 228.77 259.448V106.949C197.875 130.302 179.764 140.563 169.821 140.563C159.523 140.563 151 133.133 151 121.102C151 98.8115 202.847 98.1038 233.031 51.3989C241.554 38.3074 244.75 33 255.403 33C276 33 276 55.6448 276 63.7828Z" fill="#0089CF"/>
<path d="M186.026 277.308H966.453C966.453 277.308 923.481 311.223 923.481 365.923C923.481 420.623 939.5 463.5 939.5 463.5C939.5 463.5 866 432.721 716.5 463.5C567 494.279 494 434.63 360 463.5C226 492.37 144.5 463.5 144.5 463.5C144.5 463.5 90.3791 421.308 102.855 356.231C115.331 291.154 186.026 277.308 186.026 277.308Z" fill="url(#paint0_linear)"/>
<path fill-rule="evenodd" clip-rule="evenodd" d="M249.528 291.146C252.903 289.635 255.575 286.656 256.58 282.82C256.802 281.965 256.94 281.094 256.984 280.214C257.097 277.99 256.62 275.833 255.668 273.926C255.039 272.661 254.199 271.507 253.189 270.517C251.579 268.942 249.531 267.78 247.177 267.248C243.785 266.483 240.491 265.869 237.301 265.392C226.662 263.796 217.156 263.695 208.843 264.47C199.3 265.363 191.33 267.409 185.032 269.667C179.606 271.613 175.419 273.717 172.534 275.377C170.185 276.731 167.668 278.191 165.908 280.313C162.383 284.562 161.985 290.753 165.14 295.461C169.148 301.453 177.606 302.822 183.276 298.393C183.336 298.347 185.188 296.996 188.76 295.348C192.839 293.464 199.165 291.192 207.63 290.037C215.003 289.03 223.999 288.87 234.544 290.551C236.85 290.918 239.227 291.372 241.679 291.927C244.417 292.544 247.148 292.212 249.528 291.146Z" fill="url(#paint1_radial)"/>
<path fill-rule="evenodd" clip-rule="evenodd" d="M249.528 291.146C252.903 289.635 255.575 286.656 256.58 282.82C256.802 281.965 256.94 281.094 256.984 280.214C257.097 277.99 256.62 275.833 255.668 273.926C255.039 272.661 254.199 271.507 253.189 270.517C251.579 268.942 249.531 267.78 247.177 267.248C243.785 266.483 240.491 265.869 237.301 265.392C226.662 263.796 217.156 263.695 208.843 264.47C199.3 265.363 191.33 267.409 185.032 269.667C179.606 271.613 175.419 273.717 172.534 275.377C170.185 276.731 167.668 278.191 165.908 280.313C162.383 284.562 161.985 290.753 165.14 295.461C169.148 301.453 177.606 302.822 183.276 298.393C183.336 298.347 185.188 296.996 188.76 295.348C192.839 293.464 199.165 291.192 207.63 290.037C215.003 289.03 223.999 288.87 234.544 290.551C236.85 290.918 239.227 291.372 241.679 291.927C244.417 292.544 247.148 292.212 249.528 291.146Z" fill="url(#paint2_linear)" fill-opacity="0.4"/>
<path fill-rule="evenodd" clip-rule="evenodd" d="M394.096 303.937C397.232 307.068 401.034 309.531 405.273 311.093C408.616 312.328 412.229 313 416 313C424.552 313 432.297 309.536 437.903 303.937C443.524 298.326 447 290.57 447 282C447 278.507 446.422 275.149 445.359 272.018C443.813 267.472 441.242 263.401 437.919 260.079C432.309 254.468 424.56 251 416 251C412.232 251 408.622 251.672 405.28 252.904C401.038 254.468 397.233 256.929 394.096 260.061C390.77 263.384 388.195 267.456 386.649 272.003C385.579 275.138 385 278.501 385 282C385 290.57 388.477 298.326 394.096 303.937Z" fill="url(#paint3_radial)"/>
<path fill-rule="evenodd" clip-rule="evenodd" d="M604.78 313.995C608.466 313.894 612.061 312.192 614.442 309.081C614.969 308.388 615.427 307.647 615.8 306.863C616.746 304.882 617.121 302.739 616.966 300.643C616.863 299.256 616.526 297.89 615.966 296.607C615.079 294.565 613.626 292.734 611.656 291.361C608.812 289.386 606.005 287.584 603.239 285.945C594.025 280.477 585.289 276.795 577.322 274.362C568.176 271.573 560.045 270.427 553.378 270.102C547.633 269.824 542.971 270.157 539.682 270.579C536.999 270.924 534.122 271.301 531.697 272.569C526.834 275.104 524.124 280.587 525.256 286.063C526.686 293.029 533.976 297.466 540.887 295.579C540.96 295.558 543.179 295.028 547.101 294.877C551.579 294.703 558.277 295.024 566.528 297.168C573.714 299.037 582.078 302.287 591.176 307.797C593.165 309.003 595.186 310.312 597.241 311.743C599.534 313.338 602.179 314.067 604.78 313.995Z" fill="url(#paint4_radial)"/>
<path fill-rule="evenodd" clip-rule="evenodd" d="M604.78 313.995C608.466 313.894 612.061 312.192 614.442 309.081C614.969 308.388 615.427 307.647 615.8 306.863C616.746 304.882 617.121 302.739 616.966 300.643C616.863 299.256 616.526 297.89 615.966 296.607C615.079 294.565 613.626 292.734 611.656 291.361C608.812 289.386 606.005 287.584 603.239 285.945C594.025 280.477 585.289 276.795 577.322 274.362C568.176 271.573 560.045 270.427 553.378 270.102C547.633 269.824 542.971 270.157 539.682 270.579C536.999 270.924 534.122 271.301 531.697 272.569C526.834 275.104 524.124 280.587 525.256 286.063C526.686 293.029 533.976 297.466 540.887 295.579C540.96 295.558 543.179 295.028 547.101 294.877C551.579 294.703 558.277 295.024 566.528 297.168C573.714 299.037 582.078 302.287 591.176 307.797C593.165 309.003 595.186 310.312 597.241 311.743C599.534 313.338 602.179 314.067 604.78 313.995Z" fill="url(#paint5_linear)" fill-opacity="0.4"/>
<path fill-rule="evenodd" clip-rule="evenodd" d="M245.097 292.938C248.233 296.069 252.036 298.532 256.274 300.095C259.616 301.329 263.229 302 267.001 302C275.553 302 283.298 298.539 288.904 292.938C294.525 287.327 298 279.571 298 271.001C298 267.508 297.422 264.15 296.361 261.019C294.814 256.473 292.243 252.401 288.921 249.079C283.311 243.469 275.562 240 267.001 240C263.232 240 259.622 240.674 256.28 241.904C252.04 243.467 248.233 245.929 245.097 249.062C241.77 252.384 239.197 256.456 237.649 261.004C236.581 264.139 236 267.501 236 271.001C236 279.571 239.479 287.327 245.097 292.938Z" fill="url(#paint6_radial)"/>
<path fill-rule="evenodd" clip-rule="evenodd" d="M289.161 306.86C291.286 308.981 293.863 310.649 296.734 311.709C298.997 312.545 301.445 313 304.001 313C309.793 313 315.039 310.653 318.839 306.86C322.645 303.059 325 297.805 325 291.999C325 289.633 324.609 287.359 323.888 285.237C322.842 282.158 321.099 279.399 318.85 277.15C315.049 273.349 309.798 271 304.001 271C301.447 271 299 271.455 296.738 272.289C293.864 273.348 291.286 275.016 289.161 277.138C286.909 279.388 285.163 282.147 284.116 285.228C283.391 287.351 283 289.629 283 291.999C283 297.805 285.353 303.059 289.161 306.86Z" fill="url(#paint7_radial)"/>
<path fill-rule="evenodd" clip-rule="evenodd" d="M817.097 334.937C820.232 338.068 824.036 340.531 828.273 342.093C831.616 343.327 835.228 344 839 344C847.552 344 855.297 340.538 860.903 334.937C866.524 329.326 870 321.569 870 312.999C870 309.507 869.422 306.148 868.359 303.017C866.813 298.471 864.242 294.399 860.919 291.078C855.309 285.468 847.56 282 839 282C835.231 282 831.62 282.672 828.28 283.902C824.038 285.467 820.233 287.929 817.097 291.062C813.77 294.384 811.195 298.455 809.648 303.002C808.579 306.139 808 309.501 808 312.999C808 321.569 811.477 329.326 817.097 334.937Z" fill="url(#paint8_radial)"/>
<path fill-rule="evenodd" clip-rule="evenodd" d="M694.754 286.147C697.493 283.706 699.15 280.072 698.989 276.113C698.952 275.233 698.83 274.362 698.618 273.508C698.081 271.353 697.011 269.437 695.566 267.897C694.61 266.878 693.486 266.025 692.25 265.38C690.281 264.351 688.017 263.851 685.65 264.039C682.238 264.316 678.961 264.705 675.822 265.192C665.353 266.821 656.378 269.538 648.78 272.739C640.058 276.416 633.151 280.728 627.876 284.746C623.332 288.209 619.998 291.456 617.762 293.893C615.942 295.88 613.994 298.019 612.952 300.564C610.862 305.662 612.273 311.687 616.6 315.246C622.099 319.777 630.452 318.577 634.511 312.675C634.554 312.612 635.906 310.774 638.79 308.144C642.086 305.139 647.382 301.099 655.014 297.49C661.662 294.348 670.079 291.533 680.488 290.014C682.761 289.683 685.13 289.411 687.595 289.215C690.35 288.994 692.823 287.87 694.754 286.147Z" fill="url(#paint9_radial)"/>
<path fill-rule="evenodd" clip-rule="evenodd" d="M694.754 286.147C697.493 283.706 699.15 280.072 698.989 276.113C698.952 275.233 698.83 274.362 698.618 273.508C698.081 271.353 697.011 269.437 695.566 267.897C694.61 266.878 693.486 266.025 692.25 265.38C690.281 264.351 688.017 263.851 685.65 264.039C682.238 264.316 678.961 264.705 675.822 265.192C665.353 266.821 656.378 269.538 648.78 272.739C640.058 276.416 633.151 280.728 627.876 284.746C623.332 288.209 619.998 291.456 617.762 293.893C615.942 295.88 613.994 298.019 612.952 300.564C610.862 305.662 612.273 311.687 616.6 315.246C622.099 319.777 630.452 318.577 634.511 312.675C634.554 312.612 635.906 310.774 638.79 308.144C642.086 305.139 647.382 301.099 655.014 297.49C661.662 294.348 670.079 291.533 680.488 290.014C682.761 289.683 685.13 289.411 687.595 289.215C690.35 288.994 692.823 287.87 694.754 286.147Z" fill="url(#paint10_linear)" fill-opacity="0.4"/>
<path fill-rule="evenodd" clip-rule="evenodd" d="M686.097 303.938C689.232 307.069 693.036 309.532 697.273 311.095C700.615 312.329 704.228 313 708 313C716.552 313 724.296 309.538 729.903 303.938C735.523 298.327 739 290.571 739 282.001C739 278.508 738.422 275.15 737.358 272.019C735.812 267.473 733.241 263.401 729.919 260.079C724.309 254.468 716.56 251 708 251C704.231 251 700.619 251.672 697.28 252.904C693.038 254.468 689.233 256.929 686.097 260.062C682.77 263.384 680.195 267.456 678.646 272.004C677.579 275.139 677 278.501 677 282.001C677 290.571 680.476 298.327 686.097 303.938Z" fill="url(#paint11_radial)"/>
<path fill-rule="evenodd" clip-rule="evenodd" d="M812.982 304.989C816.657 304.841 820.218 303.1 822.552 299.977C823.07 299.28 823.512 298.537 823.876 297.752C824.79 295.769 825.135 293.636 824.953 291.554C824.831 290.178 824.475 288.823 823.9 287.557C822.986 285.536 821.513 283.739 819.529 282.401C816.665 280.474 813.843 278.721 811.065 277.129C801.797 271.818 793.033 268.275 785.057 265.964C775.895 263.314 767.771 262.286 761.117 262.053C755.383 261.854 750.737 262.248 747.465 262.711C744.795 263.088 741.931 263.503 739.529 264.795C734.716 267.381 732.089 272.868 733.289 278.295C734.812 285.2 742.144 289.512 749.009 287.544C749.082 287.521 751.289 286.966 755.196 286.763C759.66 286.529 766.343 286.757 774.604 288.777C781.796 290.538 790.181 293.658 799.331 299.013C801.331 300.184 803.366 301.458 805.433 302.854C807.743 304.408 810.392 305.096 812.982 304.989Z" fill="url(#paint12_radial)"/>
<path fill-rule="evenodd" clip-rule="evenodd" d="M812.982 304.989C816.657 304.841 820.218 303.1 822.552 299.977C823.07 299.28 823.512 298.537 823.876 297.752C824.79 295.769 825.135 293.636 824.953 291.554C824.831 290.178 824.475 288.823 823.9 287.557C822.986 285.536 821.513 283.739 819.529 282.401C816.665 280.474 813.843 278.721 811.065 277.129C801.797 271.818 793.033 268.275 785.057 265.964C775.895 263.314 767.771 262.286 761.117 262.053C755.383 261.854 750.737 262.248 747.465 262.711C744.795 263.088 741.931 263.503 739.529 264.795C734.716 267.381 732.089 272.868 733.289 278.295C734.812 285.2 742.144 289.512 749.009 287.544C749.082 287.521 751.289 286.966 755.196 286.763C759.66 286.529 766.343 286.757 774.604 288.777C781.796 290.538 790.181 293.658 799.331 299.013C801.331 300.184 803.366 301.458 805.433 302.854C807.743 304.408 810.392 305.096 812.982 304.989Z" fill="url(#paint13_linear)" fill-opacity="0.4"/>
<path fill-rule="evenodd" clip-rule="evenodd" d="M243.132 259.234C246.645 258.163 249.642 255.558 251.1 251.909C251.421 251.097 251.663 250.258 251.814 249.398C252.193 247.224 251.983 245.048 251.277 243.055C250.808 241.736 250.121 240.499 249.241 239.403C247.846 237.659 245.964 236.267 243.707 235.455C240.451 234.292 237.276 233.285 234.187 232.426C223.885 229.56 214.517 228.301 206.219 228.048C196.696 227.761 188.587 228.801 182.1 230.251C176.51 231.502 172.123 233.059 169.078 234.338C166.595 235.383 163.933 236.509 161.943 238.382C157.951 242.129 156.81 248.165 159.352 253.179C162.581 259.557 170.759 261.934 176.892 258.275C176.957 258.235 178.946 257.134 182.669 255.95C186.921 254.594 193.438 253.133 201.931 253.03C209.327 252.941 218.222 253.882 228.423 256.822C230.652 257.463 232.942 258.2 235.294 259.044C237.922 259.985 240.655 259.992 243.132 259.234Z" fill="url(#paint14_radial)"/>
<path fill-rule="evenodd" clip-rule="evenodd" d="M243.132 259.234C246.645 258.163 249.642 255.558 251.1 251.909C251.421 251.097 251.663 250.258 251.814 249.398C252.193 247.224 251.983 245.048 251.277 243.055C250.808 241.736 250.121 240.499 249.241 239.403C247.846 237.659 245.964 236.267 243.707 235.455C240.451 234.292 237.276 233.285 234.187 232.426C223.885 229.56 214.517 228.301 206.219 228.048C196.696 227.761 188.587 228.801 182.1 230.251C176.51 231.502 172.123 233.059 169.078 234.338C166.595 235.383 163.933 236.509 161.943 238.382C157.951 242.129 156.81 248.165 159.352 253.179C162.581 259.557 170.759 261.934 176.892 258.275C176.957 258.235 178.946 257.134 182.669 255.95C186.921 254.594 193.438 253.133 201.931 253.03C209.327 252.941 218.222 253.882 228.423 256.822C230.652 257.463 232.942 258.2 235.294 259.044C237.922 259.985 240.655 259.992 243.132 259.234Z" fill="url(#paint15_linear)" fill-opacity="0.4"/>
<path fill-rule="evenodd" clip-rule="evenodd" d="M635.791 285.577C639.031 287.272 642.971 287.521 646.546 285.953C647.339 285.602 648.096 285.174 648.803 284.672C650.585 283.394 651.95 281.704 652.837 279.798C653.424 278.535 653.798 277.176 653.936 275.784C654.161 273.57 653.795 271.266 652.76 269.112C651.261 266.008 649.708 263.075 648.117 260.306C642.804 251.068 637.035 243.623 631.323 237.641C624.766 230.777 618.288 225.842 612.678 222.334C607.841 219.309 603.646 217.348 600.594 216.125C598.105 215.128 595.432 214.069 592.716 214.004C587.272 213.87 582.26 217.351 580.571 222.685C578.419 229.467 582.565 236.872 589.466 238.566C589.54 238.584 591.718 239.194 595.186 240.959C599.146 242.971 604.785 246.493 610.882 252.359C616.193 257.469 621.845 264.358 627.037 273.577C628.17 275.592 629.283 277.714 630.364 279.96C631.574 282.466 633.505 284.379 635.791 285.577Z" fill="url(#paint16_radial)"/>
<path fill-rule="evenodd" clip-rule="evenodd" d="M635.791 285.577C639.031 287.272 642.971 287.521 646.546 285.953C647.339 285.602 648.096 285.174 648.803 284.672C650.585 283.394 651.95 281.704 652.837 279.798C653.424 278.535 653.798 277.176 653.936 275.784C654.161 273.57 653.795 271.266 652.76 269.112C651.261 266.008 649.708 263.075 648.117 260.306C642.804 251.068 637.035 243.623 631.323 237.641C624.766 230.777 618.288 225.842 612.678 222.334C607.841 219.309 603.646 217.348 600.594 216.125C598.105 215.128 595.432 214.069 592.716 214.004C587.272 213.87 582.26 217.351 580.571 222.685C578.419 229.467 582.565 236.872 589.466 238.566C589.54 238.584 591.718 239.194 595.186 240.959C599.146 242.971 604.785 246.493 610.882 252.359C616.193 257.469 621.845 264.358 627.037 273.577C628.17 275.592 629.283 277.714 630.364 279.96C631.574 282.466 633.505 284.379 635.791 285.577Z" fill="url(#paint17_linear)" fill-opacity="0.4"/>
<path fill-rule="evenodd" clip-rule="evenodd" d="M712.841 233.177C714.51 234.842 716.535 236.153 718.789 236.985C720.57 237.643 722.493 238 724.499 238C729.052 238 733.173 236.157 736.158 233.177C739.15 230.189 741 226.061 741 221.501C741 219.641 740.693 217.854 740.127 216.187C739.304 213.766 737.935 211.601 736.166 209.832C733.181 206.846 729.056 205 724.499 205C722.493 205 720.571 205.357 718.793 206.013C716.535 206.846 714.511 208.155 712.841 209.823C711.072 211.591 709.7 213.759 708.875 216.179C708.307 217.847 708 219.638 708 221.501C708 226.061 709.85 230.189 712.841 233.177Z" fill="url(#paint18_radial)"/>
<path fill-rule="evenodd" clip-rule="evenodd" d="M639.341 197.991C642.297 197.863 645.159 196.403 647.034 193.784C647.451 193.2 647.807 192.579 648.098 191.922C648.834 190.262 649.11 188.472 648.961 186.73C648.863 185.576 648.576 184.441 648.114 183.378C647.377 181.69 646.191 180.183 644.594 179.063C642.293 177.45 640.021 175.984 637.784 174.651C630.329 170.206 623.279 167.243 616.862 165.312C609.494 163.095 602.958 162.234 597.608 162.043C592.997 161.878 589.262 162.212 586.626 162.601C584.48 162.92 582.178 163.269 580.246 164.352C576.377 166.52 574.265 171.118 575.234 175.665C576.464 181.447 582.362 185.056 587.881 183.404C587.94 183.387 589.715 182.919 592.857 182.747C596.448 182.548 601.824 182.739 608.466 184.428C614.251 185.899 620.998 188.506 628.359 192.99C629.969 193.967 631.604 195.035 633.267 196.204C635.124 197.504 637.257 198.079 639.341 197.991Z" fill="url(#paint19_radial)"/>
<path fill-rule="evenodd" clip-rule="evenodd" d="M639.341 197.991C642.297 197.863 645.159 196.403 647.034 193.784C647.451 193.2 647.807 192.579 648.098 191.922C648.834 190.262 649.11 188.472 648.961 186.73C648.863 185.576 648.576 184.441 648.114 183.378C647.377 181.69 646.191 180.183 644.594 179.063C642.293 177.45 640.021 175.984 637.784 174.651C630.329 170.206 623.279 167.243 616.862 165.312C609.494 163.095 602.958 162.234 597.608 162.043C592.997 161.878 589.262 162.212 586.626 162.601C584.48 162.92 582.178 163.269 580.246 164.352C576.377 166.52 574.265 171.118 575.234 175.665C576.464 181.447 582.362 185.056 587.881 183.404C587.94 183.387 589.715 182.919 592.857 182.747C596.448 182.548 601.824 182.739 608.466 184.428C614.251 185.899 620.998 188.506 628.359 192.99C629.969 193.967 631.604 195.035 633.267 196.204C635.124 197.504 637.257 198.079 639.341 197.991Z" fill="url(#paint20_linear)" fill-opacity="0.4"/>
<path fill-rule="evenodd" clip-rule="evenodd" d="M885.655 314.284C890.805 315.755 896.536 314.984 901.225 311.74C902.264 311.022 903.229 310.198 904.098 309.286C906.288 306.976 907.767 304.189 908.487 301.237C908.968 299.281 909.112 297.253 908.914 295.243C908.596 292.046 907.407 288.884 905.292 286.142C902.243 282.175 899.164 278.468 896.074 274.996C885.772 263.432 875.326 254.545 865.391 247.709C853.983 239.867 843.245 234.728 834.16 231.36C826.334 228.464 819.74 226.887 814.994 226.03C811.131 225.328 806.985 224.589 803.057 225.269C795.198 226.628 788.99 232.99 788.106 241.024C786.974 251.238 795.075 260.538 805.478 260.961C805.588 260.965 808.896 261.206 814.395 262.72C820.663 264.439 829.788 267.812 840.248 274.375C849.357 280.093 859.472 288.226 869.604 299.792C871.814 302.323 874.03 305.012 876.233 307.876C878.694 311.079 882.023 313.238 885.655 314.284Z" fill="url(#paint21_radial)"/>
<path fill-rule="evenodd" clip-rule="evenodd" d="M885.655 314.284C890.805 315.755 896.536 314.984 901.225 311.74C902.264 311.022 903.229 310.198 904.098 309.286C906.288 306.976 907.767 304.189 908.487 301.237C908.968 299.281 909.112 297.253 908.914 295.243C908.596 292.046 907.407 288.884 905.292 286.142C902.243 282.175 899.164 278.468 896.074 274.996C885.772 263.432 875.326 254.545 865.391 247.709C853.983 239.867 843.245 234.728 834.16 231.36C826.334 228.464 819.74 226.887 814.994 226.03C811.131 225.328 806.985 224.589 803.057 225.269C795.198 226.628 788.99 232.99 788.106 241.024C786.974 251.238 795.075 260.538 805.478 260.961C805.588 260.965 808.896 261.206 814.395 262.72C820.663 264.439 829.788 267.812 840.248 274.375C849.357 280.093 859.472 288.226 869.604 299.792C871.814 302.323 874.03 305.012 876.233 307.876C878.694 311.079 882.023 313.238 885.655 314.284Z" fill="url(#paint22_linear)" fill-opacity="0.4"/>
<path fill-rule="evenodd" clip-rule="evenodd" d="M310.615 198.091C305.884 195.606 300.136 195.234 294.909 197.526C293.752 198.037 292.643 198.66 291.611 199.394C289.01 201.257 287.006 203.734 285.713 206.527C284.852 208.375 284.305 210.363 284.095 212.4C283.764 215.642 284.293 219.022 285.805 222.17C287.988 226.718 290.248 231.017 292.569 235.081C300.309 248.624 308.724 259.535 317.054 268.306C326.617 278.368 336.07 285.611 344.261 290.761C351.319 295.195 357.443 298.077 361.904 299.868C365.534 301.336 369.435 302.891 373.407 302.994C381.353 303.206 388.687 298.114 391.161 290.303C394.315 280.374 388.27 269.518 378.199 267.034C378.091 267.007 374.909 266.111 369.846 263.513C364.074 260.556 355.84 255.39 346.943 246.789C339.198 239.294 330.951 229.199 323.381 215.688C321.732 212.73 320.109 209.618 318.531 206.333C316.772 202.661 313.956 199.852 310.615 198.091Z" fill="url(#paint23_radial)"/>
<path fill-rule="evenodd" clip-rule="evenodd" d="M310.615 198.091C305.884 195.606 300.136 195.234 294.909 197.526C293.752 198.037 292.643 198.66 291.611 199.394C289.01 201.257 287.006 203.734 285.713 206.527C284.852 208.375 284.305 210.363 284.095 212.4C283.764 215.642 284.293 219.022 285.805 222.17C287.988 226.718 290.248 231.017 292.569 235.081C300.309 248.624 308.724 259.535 317.054 268.306C326.617 278.368 336.07 285.611 344.261 290.761C351.319 295.195 357.443 298.077 361.904 299.868C365.534 301.336 369.435 302.891 373.407 302.994C381.353 303.206 388.687 298.114 391.161 290.303C394.315 280.374 388.27 269.518 378.199 267.034C378.091 267.007 374.909 266.111 369.846 263.513C364.074 260.556 355.84 255.39 346.943 246.789C339.198 239.294 330.951 229.199 323.381 215.688C321.732 212.73 320.109 209.618 318.531 206.333C316.772 202.661 313.956 199.852 310.615 198.091Z" fill="url(#paint24_linear)" fill-opacity="0.4"/>
<path fill-rule="evenodd" clip-rule="evenodd" d="M758.841 276.177C760.51 277.842 762.535 279.153 764.789 279.986C766.57 280.643 768.493 281 770.501 281C775.052 281 779.173 279.157 782.158 276.177C785.15 273.191 787 269.061 787 264.501C787 262.641 786.693 260.854 786.127 259.187C785.304 256.768 783.935 254.601 782.168 252.832C779.181 249.846 775.056 248 770.501 248C768.493 248 766.571 248.357 764.793 249.013C762.535 249.846 760.511 251.155 758.841 252.823C757.072 254.591 755.7 256.759 754.875 259.179C754.307 260.847 754 262.638 754 264.501C754 269.061 755.85 273.191 758.841 276.177Z" fill="url(#paint25_radial)"/>
<path fill-rule="evenodd" clip-rule="evenodd" d="M459.288 295.577C462.68 299.617 467.799 302.117 473.433 301.996C474.682 301.965 475.926 301.812 477.143 301.528C480.221 300.812 482.974 299.311 485.204 297.257C486.683 295.897 487.923 294.293 488.877 292.517C490.393 289.69 491.173 286.42 490.968 282.984C490.673 278.024 490.212 273.262 489.609 268.693C487.594 253.461 483.984 240.369 479.647 229.261C474.668 216.507 468.735 206.366 463.17 198.604C458.376 191.915 453.856 186.993 450.452 183.683C447.681 180.987 444.697 178.103 441.109 176.519C433.922 173.347 425.319 175.222 420.135 181.403C413.542 189.254 415.007 201.404 423.286 207.452C423.372 207.515 425.944 209.528 429.602 213.787C433.778 218.649 439.372 226.446 444.286 237.615C448.565 247.344 452.327 259.633 454.196 274.77C454.6 278.079 454.919 281.523 455.132 285.105C455.369 289.107 456.895 292.724 459.288 295.577Z" fill="url(#paint26_radial)"/>
<path fill-rule="evenodd" clip-rule="evenodd" d="M459.288 295.577C462.68 299.617 467.799 302.117 473.433 301.996C474.682 301.965 475.926 301.812 477.143 301.528C480.221 300.812 482.974 299.311 485.204 297.257C486.683 295.897 487.923 294.293 488.877 292.517C490.393 289.69 491.173 286.42 490.968 282.984C490.673 278.024 490.212 273.262 489.609 268.693C487.594 253.461 483.984 240.369 479.647 229.261C474.668 216.507 468.735 206.366 463.17 198.604C458.376 191.915 453.856 186.993 450.452 183.683C447.681 180.987 444.697 178.103 441.109 176.519C433.922 173.347 425.319 175.222 420.135 181.403C413.542 189.254 415.007 201.404 423.286 207.452C423.372 207.515 425.944 209.528 429.602 213.787C433.778 218.649 439.372 226.446 444.286 237.615C448.565 247.344 452.327 259.633 454.196 274.77C454.6 278.079 454.919 281.523 455.132 285.105C455.369 289.107 456.895 292.724 459.288 295.577Z" fill="url(#paint27_linear)" fill-opacity="0.4"/>
<path fill-rule="evenodd" clip-rule="evenodd" d="M497.045 289.706C496.671 294.984 498.628 300.357 502.789 304.199C503.713 305.048 504.721 305.804 505.801 306.45C508.53 308.082 511.572 308.92 514.623 308.995C516.643 309.044 518.664 308.755 520.599 308.138C523.674 307.158 526.524 305.346 528.781 302.727C532.039 298.947 535.039 295.193 537.799 291.475C547 279.092 553.548 267.136 558.184 256.106C563.509 243.439 566.31 231.993 567.716 222.516C568.929 214.35 569.102 207.649 568.956 202.891C568.838 199.014 568.692 194.853 567.208 191.21C564.229 183.907 556.69 179.261 548.612 180.097C538.351 181.159 530.907 190.94 532.664 201.072C532.679 201.178 533.136 204.423 532.803 210.044C532.423 216.464 531.014 225.986 526.75 237.462C523.04 247.457 517.161 258.943 507.92 271.156C505.899 273.827 503.719 276.529 501.368 279.259C498.737 282.309 497.312 285.98 497.045 289.706Z" fill="url(#paint28_radial)"/>
<path fill-rule="evenodd" clip-rule="evenodd" d="M497.045 289.706C496.671 294.984 498.628 300.357 502.789 304.199C503.713 305.048 504.721 305.804 505.801 306.45C508.53 308.082 511.572 308.92 514.623 308.995C516.643 309.044 518.664 308.755 520.599 308.138C523.674 307.158 526.524 305.346 528.781 302.727C532.039 298.947 535.039 295.193 537.799 291.475C547 279.092 553.548 267.136 558.184 256.106C563.509 243.439 566.31 231.993 567.716 222.516C568.929 214.35 569.102 207.649 568.956 202.891C568.838 199.014 568.692 194.853 567.208 191.21C564.229 183.907 556.69 179.261 548.612 180.097C538.351 181.159 530.907 190.94 532.664 201.072C532.679 201.178 533.136 204.423 532.803 210.044C532.423 216.464 531.014 225.986 526.75 237.462C523.04 247.457 517.161 258.943 507.92 271.156C505.899 273.827 503.719 276.529 501.368 279.259C498.737 282.309 497.312 285.98 497.045 289.706Z" fill="url(#paint29_linear)" fill-opacity="0.4"/>
<path fill-rule="evenodd" clip-rule="evenodd" d="M425.853 161.367C426.414 157.748 425.368 153.934 422.709 151.05C422.115 150.411 421.463 149.832 420.753 149.326C418.956 148.047 416.897 147.298 414.793 147.071C413.396 146.922 411.981 147.008 410.608 147.323C408.424 147.825 406.347 148.917 404.632 150.592C402.161 153.014 399.87 155.432 397.747 157.834C390.672 165.85 385.452 173.719 381.611 181.064C377.202 189.493 374.607 197.226 373.09 203.676C371.783 209.236 371.278 213.846 371.107 217.132C370.966 219.812 370.827 222.688 371.649 225.284C373.296 230.487 378.247 234.115 383.882 233.997C391.049 233.848 396.755 227.53 396.124 220.441C396.117 220.365 395.991 218.105 396.542 214.249C397.171 209.845 398.692 203.364 402.3 195.693C405.44 189.01 410.167 181.428 417.265 173.535C418.815 171.81 420.478 170.072 422.266 168.323C424.262 166.366 425.456 163.918 425.853 161.367Z" fill="url(#paint30_radial)"/>
<path fill-rule="evenodd" clip-rule="evenodd" d="M425.853 161.367C426.414 157.748 425.368 153.934 422.709 151.05C422.115 150.411 421.463 149.832 420.753 149.326C418.956 148.047 416.897 147.298 414.793 147.071C413.396 146.922 411.981 147.008 410.608 147.323C408.424 147.825 406.347 148.917 404.632 150.592C402.161 153.014 399.87 155.432 397.747 157.834C390.672 165.85 385.452 173.719 381.611 181.064C377.202 189.493 374.607 197.226 373.09 203.676C371.783 209.236 371.278 213.846 371.107 217.132C370.966 219.812 370.827 222.688 371.649 225.284C373.296 230.487 378.247 234.115 383.882 233.997C391.049 233.848 396.755 227.53 396.124 220.441C396.117 220.365 395.991 218.105 396.542 214.249C397.171 209.845 398.692 203.364 402.3 195.693C405.44 189.01 410.167 181.428 417.265 173.535C418.815 171.81 420.478 170.072 422.266 168.323C424.262 166.366 425.456 163.918 425.853 161.367Z" fill="url(#paint31_linear)" fill-opacity="0.4"/>
<path fill-rule="evenodd" clip-rule="evenodd" d="M486.841 185.178C488.51 186.844 490.535 188.154 492.789 188.986C494.57 189.644 496.493 190 498.499 190C503.052 190 507.173 188.158 510.158 185.178C513.15 182.19 515 178.062 515 173.501C515 171.642 514.693 169.854 514.127 168.188C513.304 165.767 511.935 163.601 510.166 161.833C507.181 158.846 503.056 157 498.499 157C496.493 157 494.571 157.358 492.793 158.013C490.535 158.846 488.511 160.156 486.841 161.823C485.072 163.592 483.7 165.758 482.875 168.179C482.307 169.847 482 171.639 482 173.501C482 178.062 483.85 182.19 486.841 185.178Z" fill="url(#paint32_radial)"/>
<path fill-rule="evenodd" clip-rule="evenodd" d="M348.339 190.991C351.297 190.865 354.159 189.404 356.035 186.785C356.45 186.201 356.807 185.58 357.099 184.922C357.833 183.263 358.11 181.473 357.961 179.731C357.863 178.577 357.576 177.442 357.114 176.379C356.377 174.691 355.191 173.183 353.595 172.064C351.293 170.45 349.021 168.985 346.783 167.652C339.329 163.206 332.28 160.243 325.861 158.311C318.493 156.095 311.958 155.234 306.608 155.043C301.995 154.878 298.261 155.212 295.626 155.602C293.479 155.92 291.177 156.269 289.246 157.352C285.375 159.52 283.265 164.117 284.234 168.665C285.464 174.448 291.361 178.057 296.88 176.404C296.939 176.387 298.714 175.92 301.857 175.748C305.447 175.549 310.824 175.739 317.465 177.429C323.251 178.899 329.997 181.507 337.358 185.991C338.967 186.969 340.604 188.036 342.267 189.205C344.125 190.505 346.257 191.08 348.339 190.991Z" fill="url(#paint33_radial)"/>
<path fill-rule="evenodd" clip-rule="evenodd" d="M348.339 190.991C351.297 190.865 354.159 189.404 356.035 186.785C356.45 186.201 356.807 185.58 357.099 184.922C357.833 183.263 358.11 181.473 357.961 179.731C357.863 178.577 357.576 177.442 357.114 176.379C356.377 174.691 355.191 173.183 353.595 172.064C351.293 170.45 349.021 168.985 346.783 167.652C339.329 163.206 332.28 160.243 325.861 158.311C318.493 156.095 311.958 155.234 306.608 155.043C301.995 154.878 298.261 155.212 295.626 155.602C293.479 155.92 291.177 156.269 289.246 157.352C285.375 159.52 283.265 164.117 284.234 168.665C285.464 174.448 291.361 178.057 296.88 176.404C296.939 176.387 298.714 175.92 301.857 175.748C305.447 175.549 310.824 175.739 317.465 177.429C323.251 178.899 329.997 181.507 337.358 185.991C338.967 186.969 340.604 188.036 342.267 189.205C344.125 190.505 346.257 191.08 348.339 190.991Z" fill="url(#paint34_linear)" fill-opacity="0.4"/>
<path d="M228 216C228 216 267 169 244 136C221 103 175 103 175 103" stroke="#0089CF" stroke-dasharray="2 4"/>
<path d="M347.635 249.03C347.635 249.03 354 186 385 137C416 88 482 81 482 81" stroke="#0089CF" stroke-dasharray="2 4"/>
<path d="M570 206C570 206 662 208 704 183C746 158 744 103 744 103" stroke="#0089CF" stroke-dasharray="2 4"/>
<path d="M7.6 97.824C8.56 97.824 8.64 97.44 8.64 97.184C8.64 96.752 8.432 96.544 7.6 96.544H2.576C1.44 96.544 1.296 96.624 1.296 97.808V106.928C1.296 107.952 1.536 108.192 2.064 108.192C2.576 108.192 2.816 107.952 2.816 106.928V97.824H7.6ZM11.4964 100.464C11.4964 99.84 11.2724 99.52 10.8244 99.52C10.3764 99.52 10.1524 99.728 10.1524 100.624V110.208C10.1524 111.328 10.5204 111.36 10.8564 111.36C11.3044 111.36 11.5444 111.168 11.5444 110.192V106.752C12.2804 107.712 13.2564 108.192 14.4724 108.192C16.8884 108.192 18.1364 106.336 18.1364 103.936C18.1364 101.552 16.8724 99.52 14.4404 99.52C13.2404 99.52 12.2484 100 11.4964 100.96V100.464ZM16.7124 103.92C16.7124 105.792 15.7204 107.104 14.2164 107.104C12.7604 107.104 11.5284 106.016 11.5284 103.776C11.5284 101.744 12.6164 100.608 14.1684 100.608C15.5444 100.608 16.7124 101.824 16.7124 103.92ZM21.3881 100.368C21.3881 99.744 21.0361 99.52 20.7161 99.52C20.2521 99.52 20.0121 99.808 20.0121 100.368V107.28C20.0121 107.904 20.2681 108.208 20.9721 108.208C21.4681 108.208 21.5801 108.112 21.8361 107.664L25.3401 101.488V107.328C25.3401 107.92 25.6281 108.192 26.0121 108.192C26.4761 108.192 26.7161 107.904 26.7161 107.328V100.432C26.7161 99.792 26.4601 99.52 25.7081 99.52C25.3721 99.536 25.0681 99.696 24.8761 100.032L21.3881 106.256V100.368ZM29.8903 101.28C29.9383 98.672 30.6583 97.856 33.0263 97.888L33.9703 97.904C36.0823 97.936 36.2743 97.248 36.2743 96.608C36.2743 96.256 36.0823 96.08 35.6823 96.08C35.3463 96.08 35.0743 96.464 34.8663 96.528C34.7703 96.56 34.5303 96.576 34.1463 96.576C31.8743 96.576 30.8663 96.72 29.9863 97.488C29.1063 98.256 28.6743 99.44 28.6743 102.064C28.6743 103.808 28.8183 105.04 29.1063 105.776C29.6823 107.248 30.7543 108.192 32.6743 108.192C35.1863 108.192 36.4983 106.224 36.4983 103.872C36.4983 101.472 35.0103 99.696 32.7223 99.696C31.5383 99.696 30.5943 100.224 29.8903 101.28ZM32.6743 107.12C31.3143 107.12 30.2263 106.016 30.2263 104.08C30.2263 102.032 31.1703 100.784 32.6263 100.784C34.0823 100.784 35.0743 101.856 35.0743 103.824C35.0743 105.808 34.0983 107.12 32.6743 107.12ZM47.6355 100.368C47.6355 99.744 47.2835 99.52 46.9475 99.52C46.4835 99.52 46.2435 99.808 46.2435 100.368V107.328C46.2435 107.984 46.6115 108.192 46.9315 108.192C47.3955 108.192 47.6355 107.904 47.6355 107.328V100.368ZM39.7475 100.368C39.7475 99.728 39.4115 99.52 39.0755 99.52C38.6115 99.52 38.3715 99.808 38.3715 100.368V107.04C38.3715 107.68 38.6915 108 39.3155 108H41.8755C44.3075 108 45.1875 106.768 45.1875 105.488C45.1875 104.144 44.1635 102.992 41.5555 102.992H39.7475V100.368ZM39.7475 104.064H41.4435C43.1715 104.064 43.7475 104.576 43.7475 105.488C43.7475 106.272 43.3955 106.912 41.2515 106.912H39.7475V104.064ZM55.8401 100.464C55.8401 99.84 55.6161 99.52 55.1681 99.52C54.7201 99.52 54.4961 99.728 54.4961 100.624V110.208C54.4961 111.328 54.8641 111.36 55.2001 111.36C55.6481 111.36 55.8881 111.168 55.8881 110.192V106.752C56.6241 107.712 57.6001 108.192 58.8161 108.192C61.2321 108.192 62.4801 106.336 62.4801 103.936C62.4801 101.552 61.2161 99.52 58.7841 99.52C57.5841 99.52 56.5921 100 55.8401 100.96V100.464ZM61.0561 103.92C61.0561 105.792 60.0641 107.104 58.5601 107.104C57.1041 107.104 55.8721 106.016 55.8721 103.776C55.8721 101.744 56.9601 100.608 58.5121 100.608C59.8881 100.608 61.0561 101.824 61.0561 103.92ZM67.7479 99.52C65.2679 99.52 63.8439 101.152 63.8439 104.016C63.8439 106.464 65.3159 108.192 67.7479 108.192C70.0679 108.192 71.6519 106.624 71.6519 103.856C71.6519 101.088 70.1159 99.52 67.7479 99.52ZM67.7639 107.104C66.2279 107.104 65.2679 105.856 65.2679 103.856C65.2679 101.856 66.2279 100.608 67.7639 100.608C69.2839 100.608 70.2279 101.824 70.2279 103.856C70.2279 105.856 69.2999 107.104 67.7639 107.104ZM80.2958 100.48C80.2958 99.856 80.1038 99.696 79.5118 99.696H75.2878C74.6638 99.696 74.5038 99.936 74.5038 100.72C74.5038 101.904 74.2158 105.152 73.0798 106.912C72.5838 106.912 72.3438 107.168 72.3438 107.68V109.84C72.3438 110.32 72.5198 110.56 72.8717 110.56C73.2398 110.56 73.4318 110.32 73.4318 109.84V108H80.1038V109.84C80.1038 110.32 80.2798 110.56 80.6478 110.56C81.0158 110.56 81.1918 110.32 81.1918 109.84V107.68C81.1918 107.168 80.9518 106.912 80.4718 106.912H80.2958V100.48ZM78.9038 100.784V106.912H74.4078C75.2078 105.232 75.6238 103.2 75.6718 100.784H78.9038ZM88.4056 106.832C88.6456 107.744 88.9496 108.192 89.3336 108.192C89.7016 108.192 90.0056 107.92 90.0056 107.648C90.0216 107.44 89.6056 106.368 89.6216 105.552L89.6696 102.944C89.6696 100.88 89.3816 99.52 86.2936 99.52C83.8776 99.52 82.7416 100.8 82.7416 101.776C82.7416 102.096 83.0296 102.368 83.3656 102.368C83.6376 102.368 83.8136 102.288 84.0536 101.696C84.3576 100.928 85.1416 100.544 86.3896 100.544C87.7336 100.544 88.2776 101.008 88.2776 102.688C87.7976 102.864 84.8536 103.424 84.1816 103.6C83.3656 103.824 82.4376 104.512 82.4376 105.824C82.4376 107.168 83.4616 108.192 85.1256 108.192C86.3896 108.192 87.4776 107.744 88.4056 106.832ZM88.2936 103.68C88.2936 105.312 88.1816 106.112 87.1096 106.688C86.5976 106.96 86.0376 107.104 85.4456 107.104C84.4696 107.104 83.8616 106.48 83.8616 105.728C83.8616 105.328 84.1016 104.816 84.5976 104.608C84.9176 104.48 87.8136 103.872 88.2936 103.68ZM106.129 104.432C106.129 104.016 105.777 103.792 105.473 103.792C105.025 103.792 104.897 104.144 104.785 104.448C104.225 106.048 103.121 106.96 101.457 106.96C99.9529 106.96 97.7449 106.096 97.7449 102.336C97.7449 98.576 99.9849 97.584 101.585 97.584C102.369 97.584 102.881 97.824 103.217 98.032C103.713 98.336 104.161 98.8 104.449 99.36C104.673 99.776 104.945 100.304 105.409 100.304C105.841 100.304 106.033 99.92 106.033 99.632C106.033 99.072 104.881 96.352 101.521 96.352C98.4169 96.352 96.1769 98.688 96.1769 102.272C96.1769 103.984 96.7529 105.728 97.8089 106.832C98.8329 107.904 100.337 108.192 101.601 108.192C104.881 108.192 106.129 105.408 106.129 104.432ZM113.593 106.832C113.753 107.424 113.977 108.192 114.521 108.192C114.889 108.192 115.193 107.92 115.193 107.648C115.193 107.392 115.049 107.008 115.033 106.928C114.937 106.672 114.809 106.32 114.809 105.552C114.809 105.184 114.857 103.36 114.857 102.944C114.857 101.024 114.649 99.52 111.481 99.52C108.473 99.52 107.929 101.296 107.929 101.776C107.929 102.112 108.217 102.368 108.553 102.368C108.985 102.368 109.097 102.064 109.241 101.696C109.593 100.832 110.617 100.544 111.577 100.544C113.401 100.544 113.433 101.584 113.465 102.688C113.097 102.816 112.921 102.864 112.681 102.928C112.361 103.008 110.713 103.296 110.345 103.376C109.369 103.568 107.625 103.936 107.625 105.824C107.625 106.992 108.473 108.192 110.313 108.192C112.121 108.192 113.161 107.248 113.593 106.832ZM113.481 103.68C113.481 104.608 113.449 105.36 113.129 105.904C112.649 106.736 111.513 107.104 110.633 107.104C109.481 107.104 109.049 106.304 109.049 105.728C109.049 105.408 109.193 104.736 110.121 104.48C110.777 104.304 111.561 104.192 112.553 103.968C112.985 103.872 113.273 103.76 113.481 103.68ZM124.017 102.704C124.017 102.176 124.017 101.168 123.473 100.544C122.897 99.888 122.145 99.52 121.137 99.52C119.649 99.52 118.945 100.384 118.513 100.944C118.513 100.256 118.497 100.048 118.369 99.824C118.305 99.68 118.081 99.52 117.825 99.52C117.601 99.52 117.425 99.632 117.329 99.712C117.153 99.888 117.153 100.176 117.153 100.624V107.056C117.153 107.52 117.153 107.824 117.345 108C117.473 108.112 117.665 108.192 117.841 108.192C118.049 108.192 118.209 108.112 118.337 108C118.529 107.824 118.545 107.52 118.545 107.056V104.416C118.545 102.672 118.689 102.32 118.929 101.888C119.313 101.184 120.113 100.736 120.913 100.736C121.489 100.736 122.065 101.008 122.369 101.536C122.545 101.84 122.625 102.288 122.625 103.104V107.056C122.625 107.52 122.625 107.824 122.817 108C122.961 108.128 123.153 108.192 123.329 108.192C123.537 108.192 123.697 108.112 123.825 108C124.017 107.824 124.017 107.52 124.017 107.056V102.704ZM132.453 106.752V107.248C132.453 107.488 132.453 108.192 133.125 108.192C133.301 108.192 133.477 108.128 133.605 108C133.797 107.84 133.797 107.552 133.797 107.088V97.504C133.797 96.976 133.797 96.352 133.093 96.352C132.405 96.352 132.405 96.96 132.405 97.52V100.96C132.261 100.752 131.301 99.52 129.477 99.52C126.613 99.52 125.813 102.016 125.813 103.776C125.813 105.376 126.501 108.192 129.509 108.192C131.269 108.192 132.053 107.232 132.453 106.752ZM129.781 107.104C128.693 107.104 127.237 106.272 127.237 103.792C127.237 101.984 128.181 100.608 129.733 100.608C130.581 100.608 132.421 101.12 132.421 103.936C132.421 106.304 131.029 107.104 129.781 107.104ZM137.593 100.656C137.593 100.08 137.609 99.52 136.905 99.52C136.361 99.52 136.185 99.824 136.185 100.656V107.056C136.185 107.552 136.201 108.192 136.889 108.192C137.321 108.192 137.577 108.016 137.593 107.056V100.656ZM137.657 97.36C137.657 96.944 137.321 96.592 136.889 96.592C136.457 96.592 136.121 96.944 136.121 97.36C136.121 97.792 136.457 98.144 136.889 98.144C137.321 98.144 137.657 97.792 137.657 97.36ZM146.125 106.752V107.248C146.125 107.488 146.125 108.192 146.797 108.192C146.973 108.192 147.149 108.128 147.277 108C147.469 107.84 147.469 107.552 147.469 107.088V97.504C147.469 96.976 147.469 96.352 146.765 96.352C146.077 96.352 146.077 96.96 146.077 97.52V100.96C145.933 100.752 144.973 99.52 143.149 99.52C140.285 99.52 139.485 102.016 139.485 103.776C139.485 105.376 140.173 108.192 143.181 108.192C144.941 108.192 145.725 107.232 146.125 106.752ZM143.453 107.104C142.365 107.104 140.909 106.272 140.909 103.792C140.909 101.984 141.853 100.608 143.405 100.608C144.253 100.608 146.093 101.12 146.093 103.936C146.093 106.304 144.701 107.104 143.453 107.104ZM155.281 106.832C155.441 107.424 155.665 108.192 156.209 108.192C156.577 108.192 156.881 107.92 156.881 107.648C156.881 107.392 156.737 107.008 156.721 106.928C156.625 106.672 156.497 106.32 156.497 105.552C156.497 105.184 156.545 103.36 156.545 102.944C156.545 101.024 156.337 99.52 153.169 99.52C150.161 99.52 149.617 101.296 149.617 101.776C149.617 102.112 149.905 102.368 150.241 102.368C150.673 102.368 150.785 102.064 150.929 101.696C151.281 100.832 152.305 100.544 153.265 100.544C155.089 100.544 155.121 101.584 155.153 102.688C154.785 102.816 154.609 102.864 154.369 102.928C154.049 103.008 152.401 103.296 152.033 103.376C151.057 103.568 149.313 103.936 149.313 105.824C149.313 106.992 150.161 108.192 152.001 108.192C153.809 108.192 154.849 107.248 155.281 106.832ZM155.169 103.68C155.169 104.608 155.137 105.36 154.817 105.904C154.337 106.736 153.201 107.104 152.321 107.104C151.169 107.104 150.737 106.304 150.737 105.728C150.737 105.408 150.881 104.736 151.809 104.48C152.465 104.304 153.249 104.192 154.241 103.968C154.673 103.872 154.961 103.76 155.169 103.68Z" fill="#02527B"/>
<path d="M507.256 65.776C508.152 65.776 508.312 65.552 508.312 65.152C508.312 64.768 508.152 64.544 507.256 64.544H501.672C500.504 64.544 500.392 64.704 500.392 65.824V74.72C500.488 75.968 500.36 75.904 501.672 76H507.48C508.376 76 508.536 75.776 508.536 75.376C508.536 74.976 508.376 74.768 507.48 74.768H501.928V70.688H506.824C507.768 70.688 507.848 70.4 507.848 70.064C507.848 69.664 507.656 69.456 506.824 69.456H501.928V65.776H507.256ZM516.772 72.928C516.468 72.928 516.388 73.024 516.004 73.728C515.492 74.64 514.74 75.104 513.764 75.104C512.18 75.104 511.22 73.856 511.22 71.808C511.22 69.84 512.244 68.608 513.796 68.608C514.708 68.608 515.428 69.04 515.956 69.92C516.18 70.288 516.404 70.48 516.628 70.48C516.948 70.48 517.252 70.208 517.252 69.872C517.252 69.136 516.052 67.52 513.78 67.52C511.204 67.52 509.828 69.248 509.828 71.872C509.828 74.496 511.172 76.192 513.844 76.192C515.956 76.192 517.412 74.544 517.412 73.568C517.412 73.2 517.108 72.928 516.772 72.928ZM524.796 68.784C525.26 68.784 525.5 68.608 525.5 68.256C525.5 67.888 525.26 67.696 524.796 67.696H519.068C518.604 67.696 518.364 67.872 518.364 68.24C518.364 68.608 518.604 68.784 519.068 68.784H521.228V75.328C521.228 75.92 521.532 76.192 521.916 76.192C522.38 76.192 522.62 75.904 522.62 75.328V68.784H524.796ZM532.792 72.128C533.96 72.128 534.024 71.696 534.024 71.232C534.024 69.472 532.792 67.52 530.312 67.52C527.832 67.52 526.392 69.232 526.392 71.84C526.392 74.528 527.832 76.192 530.344 76.192C532.712 76.192 533.864 74.48 533.864 73.792C533.864 73.52 533.64 73.264 533.336 73.264C532.904 73.264 532.2 74.464 531.784 74.8C531.48 75.04 531.016 75.168 530.408 75.168C528.888 75.168 527.864 74.128 527.816 72.128H532.792ZM527.832 71.168C528.008 69.456 528.984 68.544 530.264 68.544C531.608 68.544 532.536 69.488 532.6 71.168H527.832ZM542.319 72.928C542.015 72.928 541.935 73.024 541.551 73.728C541.039 74.64 540.287 75.104 539.311 75.104C537.727 75.104 536.767 73.856 536.767 71.808C536.767 69.84 537.791 68.608 539.343 68.608C540.255 68.608 540.975 69.04 541.503 69.92C541.727 70.288 541.951 70.48 542.175 70.48C542.495 70.48 542.799 70.208 542.799 69.872C542.799 69.136 541.599 67.52 539.327 67.52C536.751 67.52 535.375 69.248 535.375 71.872C535.375 74.496 536.719 76.192 539.391 76.192C541.503 76.192 542.959 74.544 542.959 73.568C542.959 73.2 542.655 72.928 542.319 72.928ZM550.343 68.784C550.807 68.784 551.047 68.608 551.047 68.256C551.047 67.888 550.807 67.696 550.343 67.696H544.615C544.151 67.696 543.911 67.872 543.911 68.24C543.911 68.608 544.151 68.784 544.615 68.784H546.775V75.328C546.775 75.92 547.079 76.192 547.463 76.192C547.927 76.192 548.167 75.904 548.167 75.328V68.784H550.343ZM557.874 71.68C558.53 71.28 558.85 70.688 558.85 69.904C558.85 68.208 557.538 67.696 555.65 67.696H553.186C552.562 67.696 552.418 67.824 552.418 68.48V75.232C552.418 75.792 552.61 76 553.186 76H556.162C558.402 76 559.234 74.96 559.234 73.68C559.234 72.72 558.642 71.936 557.874 71.68ZM553.794 68.784H555.362C556.882 68.784 557.426 69.12 557.426 70.032C557.426 70.752 557.106 71.232 555.314 71.232H553.794V68.784ZM553.794 72.32H555.522C556.914 72.32 557.794 72.544 557.794 73.616C557.794 74.464 557.314 74.912 555.666 74.912H553.794V72.32ZM567.104 72.128C568.272 72.128 568.336 71.696 568.336 71.232C568.336 69.472 567.104 67.52 564.624 67.52C562.144 67.52 560.704 69.232 560.704 71.84C560.704 74.528 562.144 76.192 564.656 76.192C567.024 76.192 568.176 74.48 568.176 73.792C568.176 73.52 567.952 73.264 567.648 73.264C567.216 73.264 566.512 74.464 566.096 74.8C565.792 75.04 565.328 75.168 564.72 75.168C563.2 75.168 562.176 74.128 562.128 72.128H567.104ZM562.144 71.168C562.32 69.456 563.296 68.544 564.576 68.544C565.92 68.544 566.848 69.488 566.912 71.168H562.144ZM571.576 68.368C571.576 67.728 571.224 67.52 570.904 67.52C570.44 67.52 570.2 67.808 570.2 68.368V75.328C570.2 75.984 570.552 76.192 570.872 76.192C571.336 76.192 571.576 75.904 571.576 75.328V72.288H575.528V75.328C575.528 75.92 575.816 76.192 576.2 76.192C576.664 76.192 576.904 75.904 576.904 75.328V68.368C576.904 67.792 576.6 67.52 576.232 67.52C575.768 67.52 575.528 67.808 575.528 68.368V71.2H571.576V68.368ZM580.654 68.368C580.654 67.728 580.302 67.52 579.982 67.52C579.518 67.52 579.278 67.808 579.278 68.368V75.328C579.278 75.984 579.63 76.192 579.95 76.192C580.414 76.192 580.654 75.904 580.654 75.328V72.288H584.606V75.328C584.606 75.92 584.894 76.192 585.278 76.192C585.742 76.192 585.982 75.904 585.982 75.328V68.368C585.982 67.792 585.678 67.52 585.31 67.52C584.846 67.52 584.606 67.808 584.606 68.368V71.2H580.654V68.368ZM597.62 68.368C597.62 67.744 597.268 67.52 596.932 67.52C596.468 67.52 596.228 67.808 596.228 68.368V75.328C596.228 75.984 596.596 76.192 596.916 76.192C597.38 76.192 597.62 75.904 597.62 75.328V68.368ZM589.732 68.368C589.732 67.728 589.396 67.52 589.06 67.52C588.596 67.52 588.356 67.808 588.356 68.368V75.04C588.356 75.68 588.676 76 589.3 76H591.86C594.292 76 595.172 74.768 595.172 73.488C595.172 72.144 594.148 70.992 591.54 70.992H589.732V68.368ZM589.732 72.064H591.428C593.156 72.064 593.732 72.576 593.732 73.488C593.732 74.272 593.38 74.912 591.236 74.912H589.732V72.064ZM605.901 72.128C607.069 72.128 607.133 71.696 607.133 71.232C607.133 69.472 605.901 67.52 603.421 67.52C600.941 67.52 599.501 69.232 599.501 71.84C599.501 74.528 600.941 76.192 603.453 76.192C605.821 76.192 606.973 74.48 606.973 73.792C606.973 73.52 606.749 73.264 606.445 73.264C606.013 73.264 605.309 74.464 604.893 74.8C604.589 75.04 604.125 75.168 603.517 75.168C601.997 75.168 600.973 74.128 600.925 72.128H605.901ZM600.941 71.168C601.117 69.456 602.093 68.544 603.373 68.544C604.717 68.544 605.645 69.488 605.709 71.168H600.941ZM505.576 94.328C505.576 94.92 505.88 95.192 506.264 95.192C506.728 95.192 506.968 94.904 506.968 94.328V87.672C506.968 87.016 506.648 86.696 506.008 86.696H501.592C500.968 86.696 500.648 87.016 500.648 87.672V92.584C500.648 93.928 500.552 94.152 499.944 94.12L499.64 94.104C499.208 94.088 499 94.28 499 94.584C499 94.984 499.352 95.192 500.04 95.192C501.32 95.192 502.024 94.904 502.024 92.776V87.784H505.576V94.328ZM514.781 93.832C515.021 94.744 515.325 95.192 515.709 95.192C516.077 95.192 516.381 94.92 516.381 94.648C516.397 94.44 515.981 93.368 515.997 92.552L516.045 89.944C516.045 87.88 515.757 86.52 512.669 86.52C510.253 86.52 509.117 87.8 509.117 88.776C509.117 89.096 509.405 89.368 509.741 89.368C510.013 89.368 510.189 89.288 510.429 88.696C510.733 87.928 511.517 87.544 512.765 87.544C514.109 87.544 514.653 88.008 514.653 89.688C514.173 89.864 511.229 90.424 510.557 90.6C509.741 90.824 508.813 91.512 508.813 92.824C508.813 94.168 509.837 95.192 511.501 95.192C512.765 95.192 513.853 94.744 514.781 93.832ZM514.669 90.68C514.669 92.312 514.557 93.112 513.485 93.688C512.973 93.96 512.413 94.104 511.821 94.104C510.845 94.104 510.237 93.48 510.237 92.728C510.237 92.328 510.477 91.816 510.973 91.608C511.293 91.48 514.189 90.872 514.669 90.68ZM519.716 91.16C520.292 91.16 520.676 91.384 521.316 92.424L522.564 94.568C522.804 94.984 523.076 95.192 523.364 95.192C523.732 95.192 524.02 94.904 524.02 94.648C524.02 94.488 523.924 94.248 523.716 93.912L522.82 92.424C522.228 91.448 521.636 90.888 521.044 90.744C521.78 90.408 522.084 90.184 522.612 88.344C522.788 87.72 523.012 87.64 523.492 87.592C523.988 87.56 524.228 87.4 524.228 87.048C524.228 86.696 523.988 86.52 523.524 86.52C522.324 86.52 521.908 87.016 521.54 88.184C520.948 89.992 520.66 90.296 519.716 90.296V87.288C519.716 86.776 519.492 86.52 519.028 86.52C518.564 86.52 518.34 86.776 518.34 87.288V94.424C518.34 94.936 518.564 95.192 519.028 95.192C519.492 95.192 519.716 94.936 519.716 94.424V91.16ZM531.374 87.784C531.838 87.784 532.078 87.608 532.078 87.256C532.078 86.888 531.838 86.696 531.374 86.696H525.646C525.182 86.696 524.942 86.872 524.942 87.24C524.942 87.608 525.182 87.784 525.646 87.784H527.806V94.328C527.806 94.92 528.11 95.192 528.494 95.192C528.958 95.192 529.198 94.904 529.198 94.328V87.784H531.374ZM536.842 86.52C534.362 86.52 532.938 88.152 532.938 91.016C532.938 93.464 534.41 95.192 536.842 95.192C539.162 95.192 540.746 93.624 540.746 90.856C540.746 88.088 539.21 86.52 536.842 86.52ZM536.858 94.104C535.322 94.104 534.362 92.856 534.362 90.856C534.362 88.856 535.322 87.608 536.858 87.608C538.378 87.608 539.322 88.824 539.322 90.856C539.322 92.856 538.394 94.104 536.858 94.104ZM543.422 88.28C543.47 85.672 544.19 84.856 546.558 84.888L547.502 84.904C549.614 84.936 549.806 84.248 549.806 83.608C549.806 83.256 549.614 83.08 549.214 83.08C548.878 83.08 548.606 83.464 548.398 83.528C548.302 83.56 548.062 83.576 547.678 83.576C545.406 83.576 544.398 83.72 543.518 84.488C542.638 85.256 542.206 86.44 542.206 89.064C542.206 90.808 542.35 92.04 542.638 92.776C543.214 94.248 544.286 95.192 546.206 95.192C548.718 95.192 550.03 93.224 550.03 90.872C550.03 88.472 548.542 86.696 546.254 86.696C545.07 86.696 544.126 87.224 543.422 88.28ZM546.206 94.12C544.846 94.12 543.758 93.016 543.758 91.08C543.758 89.032 544.702 87.784 546.158 87.784C547.614 87.784 548.606 88.856 548.606 90.824C548.606 92.808 547.63 94.12 546.206 94.12ZM557.359 93.832C557.599 94.744 557.903 95.192 558.287 95.192C558.655 95.192 558.959 94.92 558.959 94.648C558.975 94.44 558.559 93.368 558.575 92.552L558.623 89.944C558.623 87.88 558.335 86.52 555.247 86.52C552.831 86.52 551.695 87.8 551.695 88.776C551.695 89.096 551.983 89.368 552.319 89.368C552.591 89.368 552.767 89.288 553.007 88.696C553.311 87.928 554.095 87.544 555.343 87.544C556.687 87.544 557.231 88.008 557.231 89.688C556.751 89.864 553.807 90.424 553.135 90.6C552.319 90.824 551.391 91.512 551.391 92.824C551.391 94.168 552.415 95.192 554.079 95.192C555.343 95.192 556.431 94.744 557.359 93.832ZM557.247 90.68C557.247 92.312 557.135 93.112 556.063 93.688C555.551 93.96 554.991 94.104 554.399 94.104C553.423 94.104 552.815 93.48 552.815 92.728C552.815 92.328 553.055 91.816 553.551 91.608C553.871 91.48 556.767 90.872 557.247 90.68ZM562.294 91.16C562.87 91.16 563.254 91.384 563.894 92.424L565.142 94.568C565.382 94.984 565.654 95.192 565.942 95.192C566.31 95.192 566.598 94.904 566.598 94.648C566.598 94.488 566.502 94.248 566.294 93.912L565.398 92.424C564.806 91.448 564.214 90.888 563.622 90.744C564.358 90.408 564.662 90.184 565.19 88.344C565.366 87.72 565.59 87.64 566.07 87.592C566.566 87.56 566.806 87.4 566.806 87.048C566.806 86.696 566.566 86.52 566.102 86.52C564.902 86.52 564.486 87.016 564.118 88.184C563.526 89.992 563.238 90.296 562.294 90.296V87.288C562.294 86.776 562.07 86.52 561.606 86.52C561.142 86.52 560.918 86.776 560.918 87.288V94.424C560.918 94.936 561.142 95.192 561.606 95.192C562.07 95.192 562.294 94.936 562.294 94.424V91.16ZM573.952 87.784C574.416 87.784 574.656 87.608 574.656 87.256C574.656 86.888 574.416 86.696 573.952 86.696H568.224C567.76 86.696 567.52 86.872 567.52 87.24C567.52 87.608 567.76 87.784 568.224 87.784H570.384V94.328C570.384 94.92 570.688 95.192 571.072 95.192C571.536 95.192 571.776 94.904 571.776 94.328V87.784H573.952ZM581.948 91.128C583.116 91.128 583.18 90.696 583.18 90.232C583.18 88.472 581.948 86.52 579.468 86.52C576.988 86.52 575.548 88.232 575.548 90.84C575.548 93.528 576.988 95.192 579.5 95.192C581.868 95.192 583.02 93.48 583.02 92.792C583.02 92.52 582.796 92.264 582.492 92.264C582.06 92.264 581.356 93.464 580.94 93.8C580.636 94.04 580.172 94.168 579.564 94.168C578.044 94.168 577.02 93.128 576.972 91.128H581.948ZM576.988 90.168C577.164 88.456 578.14 87.544 579.42 87.544C580.764 87.544 581.692 88.488 581.756 90.168H576.988ZM586.371 87.464C586.371 86.84 586.147 86.52 585.699 86.52C585.251 86.52 585.027 86.728 585.027 87.624V97.208C585.027 98.328 585.395 98.36 585.731 98.36C586.179 98.36 586.419 98.168 586.419 97.192V93.752C587.155 94.712 588.131 95.192 589.347 95.192C591.763 95.192 593.011 93.336 593.011 90.936C593.011 88.552 591.747 86.52 589.315 86.52C588.115 86.52 587.123 87 586.371 87.96V87.464ZM591.587 90.92C591.587 92.792 590.595 94.104 589.091 94.104C587.635 94.104 586.403 93.016 586.403 90.776C586.403 88.744 587.491 87.608 589.043 87.608C590.419 87.608 591.587 88.824 591.587 90.92ZM596.263 87.368C596.263 86.744 595.911 86.52 595.591 86.52C595.127 86.52 594.887 86.808 594.887 87.368V94.28C594.887 94.904 595.143 95.208 595.847 95.208C596.343 95.208 596.455 95.112 596.711 94.664L600.215 88.488V94.328C600.215 94.92 600.503 95.192 600.887 95.192C601.351 95.192 601.591 94.904 601.591 94.328V87.432C601.591 86.792 601.335 86.52 600.583 86.52C600.247 86.536 599.943 86.696 599.751 87.032L596.263 93.256V87.368ZM605.341 87.368C605.341 86.744 604.989 86.52 604.669 86.52C604.205 86.52 603.965 86.808 603.965 87.368V94.28C603.965 94.904 604.221 95.208 604.925 95.208C605.421 95.208 605.533 95.112 605.789 94.664L609.293 88.488V94.328C609.293 94.92 609.581 95.192 609.965 95.192C610.429 95.192 610.669 94.904 610.669 94.328V87.432C610.669 86.792 610.413 86.52 609.661 86.52C609.325 86.536 609.021 86.696 608.829 87.032L605.341 93.256V87.368Z" fill="#02527B"/>
<path d="M726.272 68.28C726.272 68.872 726.592 69.192 727.024 69.192C727.536 69.192 727.792 68.888 727.792 68.28V58.328C727.792 57.8 727.536 57.544 727.008 57.544H720.64C720.128 57.544 719.872 57.8 719.872 58.328V65.752C719.872 67.592 719.536 67.96 718.928 67.96C718.8 67.96 718.224 67.864 718.176 67.864C717.856 67.864 717.568 68.104 717.568 68.424C717.568 68.936 718.08 69.192 719.088 69.192C719.712 69.192 720.256 68.984 720.704 68.552C721.152 68.12 721.376 66.856 721.376 64.792V58.824H726.272V68.28ZM735.734 67.832C735.974 68.744 736.278 69.192 736.662 69.192C737.03 69.192 737.334 68.92 737.334 68.648C737.35 68.44 736.934 67.368 736.95 66.552L736.998 63.944C736.998 61.88 736.71 60.52 733.622 60.52C731.206 60.52 730.07 61.8 730.07 62.776C730.07 63.096 730.358 63.368 730.694 63.368C730.966 63.368 731.142 63.288 731.382 62.696C731.686 61.928 732.47 61.544 733.718 61.544C735.062 61.544 735.606 62.008 735.606 63.688C735.126 63.864 732.182 64.424 731.51 64.6C730.694 64.824 729.766 65.512 729.766 66.824C729.766 68.168 730.79 69.192 732.454 69.192C733.718 69.192 734.806 68.744 735.734 67.832ZM735.622 64.68C735.622 66.312 735.51 67.112 734.438 67.688C733.926 67.96 733.366 68.104 732.774 68.104C731.798 68.104 731.19 67.48 731.19 66.728C731.19 66.328 731.43 65.816 731.926 65.608C732.246 65.48 735.142 64.872 735.622 64.68ZM740.669 65.16C741.245 65.16 741.629 65.384 742.269 66.424L743.517 68.568C743.757 68.984 744.029 69.192 744.317 69.192C744.685 69.192 744.973 68.904 744.973 68.648C744.973 68.488 744.877 68.248 744.669 67.912L743.773 66.424C743.181 65.448 742.589 64.888 741.997 64.744C742.733 64.408 743.037 64.184 743.565 62.344C743.741 61.72 743.965 61.64 744.445 61.592C744.941 61.56 745.181 61.4 745.181 61.048C745.181 60.696 744.941 60.52 744.477 60.52C743.277 60.52 742.861 61.016 742.493 62.184C741.901 63.992 741.613 64.296 740.669 64.296V61.288C740.669 60.776 740.445 60.52 739.981 60.52C739.517 60.52 739.293 60.776 739.293 61.288V68.424C739.293 68.936 739.517 69.192 739.981 69.192C740.445 69.192 740.669 68.936 740.669 68.424V65.16ZM752.327 61.784C752.791 61.784 753.031 61.608 753.031 61.256C753.031 60.888 752.791 60.696 752.327 60.696H746.599C746.135 60.696 745.895 60.872 745.895 61.24C745.895 61.608 746.135 61.784 746.599 61.784H748.759V68.328C748.759 68.92 749.063 69.192 749.447 69.192C749.911 69.192 750.151 68.904 750.151 68.328V61.784H752.327ZM757.795 60.52C755.315 60.52 753.891 62.152 753.891 65.016C753.891 67.464 755.363 69.192 757.795 69.192C760.115 69.192 761.699 67.624 761.699 64.856C761.699 62.088 760.163 60.52 757.795 60.52ZM757.811 68.104C756.275 68.104 755.315 66.856 755.315 64.856C755.315 62.856 756.275 61.608 757.811 61.608C759.331 61.608 760.275 62.824 760.275 64.856C760.275 66.856 759.347 68.104 757.811 68.104ZM764.375 62.28C764.423 59.672 765.143 58.856 767.511 58.888L768.455 58.904C770.567 58.936 770.759 58.248 770.759 57.608C770.759 57.256 770.567 57.08 770.167 57.08C769.831 57.08 769.559 57.464 769.351 57.528C769.255 57.56 769.015 57.576 768.631 57.576C766.359 57.576 765.351 57.72 764.471 58.488C763.591 59.256 763.159 60.44 763.159 63.064C763.159 64.808 763.303 66.04 763.591 66.776C764.167 68.248 765.239 69.192 767.159 69.192C769.671 69.192 770.983 67.224 770.983 64.872C770.983 62.472 769.495 60.696 767.207 60.696C766.023 60.696 765.079 61.224 764.375 62.28ZM767.159 68.12C765.799 68.12 764.711 67.016 764.711 65.08C764.711 63.032 765.655 61.784 767.111 61.784C768.567 61.784 769.559 62.856 769.559 64.824C769.559 66.808 768.583 68.12 767.159 68.12ZM778.312 67.832C778.552 68.744 778.856 69.192 779.24 69.192C779.608 69.192 779.912 68.92 779.912 68.648C779.928 68.44 779.512 67.368 779.528 66.552L779.576 63.944C779.576 61.88 779.288 60.52 776.2 60.52C773.784 60.52 772.648 61.8 772.648 62.776C772.648 63.096 772.936 63.368 773.272 63.368C773.544 63.368 773.72 63.288 773.96 62.696C774.264 61.928 775.048 61.544 776.296 61.544C777.64 61.544 778.184 62.008 778.184 63.688C777.704 63.864 774.76 64.424 774.088 64.6C773.272 64.824 772.344 65.512 772.344 66.824C772.344 68.168 773.368 69.192 775.032 69.192C776.296 69.192 777.384 68.744 778.312 67.832ZM778.2 64.68C778.2 66.312 778.088 67.112 777.016 67.688C776.504 67.96 775.944 68.104 775.352 68.104C774.376 68.104 773.768 67.48 773.768 66.728C773.768 66.328 774.008 65.816 774.504 65.608C774.824 65.48 777.72 64.872 778.2 64.68ZM783.248 65.16C783.824 65.16 784.208 65.384 784.848 66.424L786.096 68.568C786.336 68.984 786.608 69.192 786.896 69.192C787.264 69.192 787.552 68.904 787.552 68.648C787.552 68.488 787.456 68.248 787.248 67.912L786.352 66.424C785.76 65.448 785.168 64.888 784.576 64.744C785.312 64.408 785.616 64.184 786.144 62.344C786.32 61.72 786.544 61.64 787.024 61.592C787.52 61.56 787.76 61.4 787.76 61.048C787.76 60.696 787.52 60.52 787.056 60.52C785.856 60.52 785.44 61.016 785.072 62.184C784.48 63.992 784.192 64.296 783.248 64.296V61.288C783.248 60.776 783.024 60.52 782.56 60.52C782.096 60.52 781.872 60.776 781.872 61.288V68.424C781.872 68.936 782.096 69.192 782.56 69.192C783.024 69.192 783.248 68.936 783.248 68.424V65.16ZM794.905 61.784C795.369 61.784 795.609 61.608 795.609 61.256C795.609 60.888 795.369 60.696 794.905 60.696H789.177C788.713 60.696 788.473 60.872 788.473 61.24C788.473 61.608 788.713 61.784 789.177 61.784H791.337V68.328C791.337 68.92 791.641 69.192 792.025 69.192C792.489 69.192 792.729 68.904 792.729 68.328V61.784H794.905ZM802.901 65.128C804.069 65.128 804.133 64.696 804.133 64.232C804.133 62.472 802.901 60.52 800.421 60.52C797.941 60.52 796.501 62.232 796.501 64.84C796.501 67.528 797.941 69.192 800.453 69.192C802.821 69.192 803.973 67.48 803.973 66.792C803.973 66.52 803.749 66.264 803.445 66.264C803.013 66.264 802.309 67.464 801.893 67.8C801.589 68.04 801.125 68.168 800.517 68.168C798.997 68.168 797.973 67.128 797.925 65.128H802.901ZM797.941 64.168C798.117 62.456 799.093 61.544 800.373 61.544C801.717 61.544 802.645 62.488 802.709 64.168H797.941ZM807.325 61.464C807.325 60.84 807.101 60.52 806.653 60.52C806.205 60.52 805.981 60.728 805.981 61.624V71.208C805.981 72.328 806.349 72.36 806.685 72.36C807.133 72.36 807.373 72.168 807.373 71.192V67.752C808.109 68.712 809.085 69.192 810.301 69.192C812.717 69.192 813.965 67.336 813.965 64.936C813.965 62.552 812.701 60.52 810.269 60.52C809.069 60.52 808.077 61 807.325 61.96V61.464ZM812.541 64.92C812.541 66.792 811.549 68.104 810.045 68.104C808.589 68.104 807.357 67.016 807.357 64.776C807.357 62.744 808.445 61.608 809.997 61.608C811.373 61.608 812.541 62.824 812.541 64.92ZM817.216 61.368C817.216 60.744 816.864 60.52 816.544 60.52C816.08 60.52 815.84 60.808 815.84 61.368V68.28C815.84 68.904 816.096 69.208 816.8 69.208C817.296 69.208 817.408 69.112 817.664 68.664L821.168 62.488V68.328C821.168 68.92 821.456 69.192 821.84 69.192C822.304 69.192 822.544 68.904 822.544 68.328V61.432C822.544 60.792 822.288 60.52 821.536 60.52C821.2 60.536 820.896 60.696 820.704 61.032L817.216 67.256V61.368ZM826.294 61.368C826.294 60.744 825.942 60.52 825.622 60.52C825.158 60.52 824.918 60.808 824.918 61.368V68.28C824.918 68.904 825.174 69.208 825.878 69.208C826.374 69.208 826.486 69.112 826.742 68.664L830.246 62.488V68.328C830.246 68.92 830.534 69.192 830.918 69.192C831.382 69.192 831.622 68.904 831.622 68.328V61.432C831.622 60.792 831.366 60.52 830.614 60.52C830.278 60.536 829.974 60.696 829.782 61.032L826.294 67.256V61.368ZM840.208 67.768V58.616C840.208 57.624 839.952 57.352 839.424 57.352C838.816 57.352 838.672 57.704 838.672 58.616V67.72C838.672 68.872 838.8 69 839.952 69H845.056C845.552 69 846.128 69.032 846.128 68.392C846.128 67.752 845.536 67.768 845.056 67.768H840.208ZM857.332 65.432C857.332 65.016 856.98 64.792 856.676 64.792C856.228 64.792 856.1 65.144 855.988 65.448C855.428 67.048 854.324 67.96 852.66 67.96C851.156 67.96 848.948 67.096 848.948 63.336C848.948 59.576 851.188 58.584 852.788 58.584C853.572 58.584 854.084 58.824 854.42 59.032C854.916 59.336 855.364 59.8 855.652 60.36C855.876 60.776 856.148 61.304 856.612 61.304C857.044 61.304 857.236 60.92 857.236 60.632C857.236 60.072 856.084 57.352 852.724 57.352C849.62 57.352 847.38 59.688 847.38 63.272C847.38 64.984 847.956 66.728 849.012 67.832C850.036 68.904 851.54 69.192 852.804 69.192C856.084 69.192 857.332 66.408 857.332 65.432ZM861.068 63.864H862.412C863.532 63.864 864.108 63.96 865.676 66.44L866.764 68.168C867.26 68.968 867.42 69.208 867.884 69.208C868.236 69.208 868.588 68.952 868.588 68.536C868.588 68.296 868.54 68.184 868.06 67.384L867.02 65.64C866.94 65.512 866.572 65.032 866.348 64.728C865.916 64.168 865.436 63.896 865.132 63.72C865.596 63.64 866.38 63.512 867.148 62.936C867.612 62.584 868.188 61.816 868.188 60.664C868.188 59.528 867.628 58.552 866.716 58.008C865.932 57.544 864.668 57.544 864.476 57.544H860.812C859.66 57.544 859.532 57.672 859.532 58.824V67.912C859.532 68.184 859.532 68.552 859.58 68.696C859.676 69 859.98 69.192 860.284 69.192C860.556 69.192 860.908 69.032 861.004 68.696C861.052 68.536 861.068 68.376 861.068 67.912V63.864ZM863.788 58.728C864.364 58.728 865.356 58.744 865.884 59.16C866.364 59.528 866.62 60.04 866.62 60.648C866.62 62.632 864.46 62.632 863.74 62.632H861.068V58.728H863.788ZM725.616 84.928C725.312 84.928 725.232 85.024 724.848 85.728C724.336 86.64 723.584 87.104 722.608 87.104C721.024 87.104 720.064 85.856 720.064 83.808C720.064 81.84 721.088 80.608 722.64 80.608C723.552 80.608 724.272 81.04 724.8 81.92C725.024 82.288 725.248 82.48 725.472 82.48C725.792 82.48 726.096 82.208 726.096 81.872C726.096 81.136 724.896 79.52 722.624 79.52C720.048 79.52 718.672 81.248 718.672 83.872C718.672 86.496 720.016 88.192 722.688 88.192C724.8 88.192 726.256 86.544 726.256 85.568C726.256 85.2 725.952 84.928 725.616 84.928ZM738.171 83.68C738.827 83.28 739.147 82.688 739.147 81.904C739.147 80.208 737.835 79.696 735.947 79.696H733.483C732.859 79.696 732.715 79.824 732.715 80.48V87.232C732.715 87.792 732.907 88 733.483 88H736.459C738.699 88 739.531 86.96 739.531 85.68C739.531 84.72 738.939 83.936 738.171 83.68ZM734.091 80.784H735.659C737.179 80.784 737.723 81.12 737.723 82.032C737.723 82.752 737.403 83.232 735.611 83.232H734.091V80.784ZM734.091 84.32H735.819C737.211 84.32 738.091 84.544 738.091 85.616C738.091 86.464 737.611 86.912 735.963 86.912H734.091V84.32ZM750.745 80.368C750.745 79.744 750.393 79.52 750.057 79.52C749.593 79.52 749.353 79.808 749.353 80.368V87.328C749.353 87.984 749.721 88.192 750.041 88.192C750.505 88.192 750.745 87.904 750.745 87.328V80.368ZM742.857 80.368C742.857 79.728 742.521 79.52 742.185 79.52C741.721 79.52 741.481 79.808 741.481 80.368V87.04C741.481 87.68 741.801 88 742.425 88H744.985C747.417 88 748.297 86.768 748.297 85.488C748.297 84.144 747.273 82.992 744.665 82.992H742.857V80.368ZM742.857 84.064H744.553C746.281 84.064 746.857 84.576 746.857 85.488C746.857 86.272 746.505 86.912 744.361 86.912H742.857V84.064ZM759.538 84.928C759.234 84.928 759.154 85.024 758.77 85.728C758.258 86.64 757.506 87.104 756.53 87.104C754.946 87.104 753.986 85.856 753.986 83.808C753.986 81.84 755.01 80.608 756.562 80.608C757.474 80.608 758.194 81.04 758.722 81.92C758.946 82.288 759.17 82.48 759.394 82.48C759.714 82.48 760.018 82.208 760.018 81.872C760.018 81.136 758.818 79.52 756.546 79.52C753.97 79.52 752.594 81.248 752.594 83.872C752.594 86.496 753.938 88.192 756.61 88.192C758.722 88.192 760.178 86.544 760.178 85.568C760.178 85.2 759.874 84.928 759.538 84.928ZM765.514 79.52C763.034 79.52 761.61 81.152 761.61 84.016C761.61 86.464 763.082 88.192 765.514 88.192C767.834 88.192 769.418 86.624 769.418 83.856C769.418 81.088 767.882 79.52 765.514 79.52ZM765.53 87.104C763.994 87.104 763.034 85.856 763.034 83.856C763.034 81.856 763.994 80.608 765.53 80.608C767.05 80.608 767.994 81.824 767.994 83.856C767.994 85.856 767.066 87.104 765.53 87.104ZM772.669 84.16C773.245 84.16 773.629 84.384 774.269 85.424L775.517 87.568C775.757 87.984 776.029 88.192 776.317 88.192C776.685 88.192 776.973 87.904 776.973 87.648C776.973 87.488 776.877 87.248 776.669 86.912L775.773 85.424C775.181 84.448 774.589 83.888 773.997 83.744C774.733 83.408 775.037 83.184 775.565 81.344C775.741 80.72 775.965 80.64 776.445 80.592C776.941 80.56 777.181 80.4 777.181 80.048C777.181 79.696 776.941 79.52 776.477 79.52C775.277 79.52 774.861 80.016 774.493 81.184C773.901 82.992 773.613 83.296 772.669 83.296V80.288C772.669 79.776 772.445 79.52 771.981 79.52C771.517 79.52 771.293 79.776 771.293 80.288V87.424C771.293 87.936 771.517 88.192 771.981 88.192C772.445 88.192 772.669 87.936 772.669 87.424V84.16ZM780.263 80.368C780.263 79.744 779.911 79.52 779.591 79.52C779.127 79.52 778.887 79.808 778.887 80.368V87.28C778.887 87.904 779.143 88.208 779.847 88.208C780.343 88.208 780.455 88.112 780.711 87.664L784.215 81.488V87.328C784.215 87.92 784.503 88.192 784.887 88.192C785.351 88.192 785.591 87.904 785.591 87.328V80.432C785.591 79.792 785.335 79.52 784.583 79.52C784.247 79.536 783.943 79.696 783.751 80.032L780.263 86.256V80.368ZM795.453 87.376C795.453 88 795.773 88.192 796.093 88.192C796.557 88.192 796.781 87.92 796.781 87.376V80.48C796.781 79.712 796.477 79.52 795.565 79.52C794.829 79.52 794.621 79.6 794.397 80.304L792.413 86.336L790.333 80.304C790.077 79.568 789.917 79.52 789.069 79.52C788.237 79.52 787.965 79.76 787.965 80.48V87.376C787.965 88 788.301 88.192 788.621 88.192C789.069 88.192 789.293 87.92 789.293 87.376V80.8L791.469 87.472C791.661 88.048 791.901 88.192 792.365 88.192C792.813 88.192 793.069 88.064 793.261 87.472L795.453 80.8V87.376ZM805.397 89.104C805.125 89.792 804.741 90.128 804.245 90.128C804.245 90.128 803.573 90.08 803.541 90.08C803.221 90.08 802.997 90.336 802.997 90.64C802.997 91.12 803.445 91.36 804.341 91.36C805.525 91.36 806.117 90.96 806.773 89.312L810.101 80.784C810.229 80.448 810.293 80.224 810.293 80.096C810.293 79.84 810.037 79.52 809.669 79.52C809.285 79.52 809.189 79.648 808.901 80.416L806.549 86.528L804.277 80.336C804.021 79.632 803.829 79.52 803.509 79.52C803.125 79.52 802.821 79.84 802.821 80.16C802.821 80.272 802.869 80.496 802.997 80.816L805.829 88L805.397 89.104ZM813.137 80.464C813.137 79.84 812.913 79.52 812.465 79.52C812.017 79.52 811.793 79.728 811.793 80.624V90.208C811.793 91.328 812.161 91.36 812.497 91.36C812.945 91.36 813.185 91.168 813.185 90.192V86.752C813.921 87.712 814.897 88.192 816.113 88.192C818.529 88.192 819.777 86.336 819.777 83.936C819.777 81.552 818.513 79.52 816.081 79.52C814.881 79.52 813.889 80 813.137 80.96V80.464ZM818.353 83.92C818.353 85.792 817.361 87.104 815.857 87.104C814.401 87.104 813.169 86.016 813.169 83.776C813.169 81.744 814.257 80.608 815.809 80.608C817.185 80.608 818.353 81.824 818.353 83.92ZM825.045 79.52C822.565 79.52 821.141 81.152 821.141 84.016C821.141 86.464 822.613 88.192 825.045 88.192C827.365 88.192 828.949 86.624 828.949 83.856C828.949 81.088 827.413 79.52 825.045 79.52ZM825.061 87.104C823.525 87.104 822.565 85.856 822.565 83.856C822.565 81.856 823.525 80.608 825.061 80.608C826.581 80.608 827.525 81.824 827.525 83.856C827.525 85.856 826.597 87.104 825.061 87.104ZM836.281 83.68C836.937 83.28 837.257 82.688 837.257 81.904C837.257 80.208 835.945 79.696 834.057 79.696H831.593C830.969 79.696 830.825 79.824 830.825 80.48V87.232C830.825 87.792 831.017 88 831.593 88H834.569C836.809 88 837.641 86.96 837.641 85.68C837.641 84.72 837.049 83.936 836.281 83.68ZM832.201 80.784H833.769C835.289 80.784 835.833 81.12 835.833 82.032C835.833 82.752 835.513 83.232 833.721 83.232H832.201V80.784ZM832.201 84.32H833.929C835.321 84.32 836.201 84.544 836.201 85.616C836.201 86.464 835.721 86.912 834.073 86.912H832.201V84.32ZM840.966 80.368C840.966 79.728 840.614 79.52 840.294 79.52C839.83 79.52 839.59 79.808 839.59 80.368V87.328C839.59 87.984 839.942 88.192 840.262 88.192C840.726 88.192 840.966 87.904 840.966 87.328V84.288H844.918V87.328C844.918 87.92 845.206 88.192 845.59 88.192C846.054 88.192 846.294 87.904 846.294 87.328V80.368C846.294 79.792 845.99 79.52 845.622 79.52C845.158 79.52 844.918 79.808 844.918 80.368V83.2H840.966V80.368ZM854.588 84.128C855.756 84.128 855.82 83.696 855.82 83.232C855.82 81.472 854.588 79.52 852.108 79.52C849.628 79.52 848.188 81.232 848.188 83.84C848.188 86.528 849.628 88.192 852.14 88.192C854.508 88.192 855.66 86.48 855.66 85.792C855.66 85.52 855.436 85.264 855.132 85.264C854.7 85.264 853.996 86.464 853.58 86.8C853.276 87.04 852.812 87.168 852.204 87.168C850.684 87.168 849.66 86.128 849.612 84.128H854.588ZM849.628 83.168C849.804 81.456 850.78 80.544 852.06 80.544C853.404 80.544 854.332 81.488 854.396 83.168H849.628ZM865.172 87.376C865.172 88 865.492 88.192 865.812 88.192C866.276 88.192 866.5 87.92 866.5 87.376V80.48C866.5 79.712 866.196 79.52 865.284 79.52C864.548 79.52 864.34 79.6 864.116 80.304L862.132 86.336L860.052 80.304C859.796 79.568 859.636 79.52 858.788 79.52C857.956 79.52 857.684 79.76 857.684 80.48V87.376C857.684 88 858.02 88.192 858.34 88.192C858.788 88.192 859.012 87.92 859.012 87.376V80.8L861.188 87.472C861.38 88.048 861.62 88.192 862.084 88.192C862.532 88.192 862.788 88.064 862.98 87.472L865.172 80.8V87.376ZM878.828 86.832C879.068 87.744 879.372 88.192 879.756 88.192C880.124 88.192 880.428 87.92 880.428 87.648C880.444 87.44 880.028 86.368 880.044 85.552L880.092 82.944C880.092 80.88 879.804 79.52 876.716 79.52C874.299 79.52 873.164 80.8 873.164 81.776C873.164 82.096 873.452 82.368 873.788 82.368C874.06 82.368 874.236 82.288 874.476 81.696C874.78 80.928 875.564 80.544 876.812 80.544C878.156 80.544 878.7 81.008 878.7 82.688C878.22 82.864 875.276 83.424 874.604 83.6C873.788 83.824 872.86 84.512 872.86 85.824C872.86 87.168 873.884 88.192 875.548 88.192C876.812 88.192 877.9 87.744 878.828 86.832ZM878.716 83.68C878.716 85.312 878.604 86.112 877.532 86.688C877.02 86.96 876.46 87.104 875.868 87.104C874.892 87.104 874.284 86.48 874.284 85.728C874.284 85.328 874.524 84.816 875.02 84.608C875.34 84.48 878.236 83.872 878.716 83.68ZM889.155 80.48C889.155 79.856 888.963 79.696 888.371 79.696H884.147C883.523 79.696 883.363 79.936 883.363 80.72C883.363 81.904 883.075 85.152 881.939 86.912C881.443 86.912 881.203 87.168 881.203 87.68V89.84C881.203 90.32 881.379 90.56 881.731 90.56C882.099 90.56 882.291 90.32 882.291 89.84V88H888.963V89.84C888.963 90.32 889.139 90.56 889.507 90.56C889.875 90.56 890.051 90.32 890.051 89.84V87.68C890.051 87.168 889.811 86.912 889.331 86.912H889.155V80.48ZM887.763 80.784V86.912H883.267C884.067 85.232 884.483 83.2 884.531 80.784H887.763ZM896.065 80.784C896.529 80.784 896.769 80.608 896.769 80.256C896.769 79.888 896.529 79.696 896.065 79.696H892.577C891.953 79.696 891.809 79.888 891.809 80.48V87.328C891.809 87.984 892.177 88.192 892.497 88.192C892.961 88.192 893.185 87.904 893.185 87.328V80.784H896.065ZM904.073 84.128C905.241 84.128 905.305 83.696 905.305 83.232C905.305 81.472 904.073 79.52 901.593 79.52C899.113 79.52 897.673 81.232 897.673 83.84C897.673 86.528 899.113 88.192 901.625 88.192C903.993 88.192 905.145 86.48 905.145 85.792C905.145 85.52 904.921 85.264 904.617 85.264C904.185 85.264 903.481 86.464 903.065 86.8C902.761 87.04 902.297 87.168 901.689 87.168C900.169 87.168 899.145 86.128 899.097 84.128H904.073ZM899.113 83.168C899.289 81.456 900.265 80.544 901.545 80.544C902.889 80.544 903.817 81.488 903.881 83.168H899.113ZM911.584 83.6C912.24 83.2 912.56 82.656 912.56 81.984C912.56 80.672 911.472 79.52 909.728 79.52C907.936 79.52 906.944 80.784 906.944 81.52C906.944 81.84 907.216 82.176 907.616 82.176C907.824 82.176 908 82.016 908.144 81.712C908.576 80.832 908.992 80.608 909.712 80.608C910.544 80.608 911.136 81.136 911.136 81.92C911.136 82.736 910.512 83.136 909.696 83.168C909.2 83.2 908.96 83.36 908.96 83.696C908.96 84.064 909.168 84.24 909.568 84.24H909.824C910.832 84.24 911.392 84.864 911.392 85.632C911.392 86.464 910.72 87.12 909.76 87.12C908.912 87.12 908.32 86.688 907.904 85.84C907.744 85.504 907.52 85.328 907.296 85.328C906.928 85.328 906.624 85.6 906.624 86C906.624 87.088 907.776 88.192 909.744 88.192C911.712 88.192 912.832 87.168 912.832 85.68C912.832 84.736 912.416 84.048 911.584 83.6ZM916.013 80.368C916.013 79.744 915.661 79.52 915.341 79.52C914.877 79.52 914.637 79.808 914.637 80.368V87.28C914.637 87.904 914.893 88.208 915.597 88.208C916.093 88.208 916.205 88.112 916.461 87.664L919.965 81.488V87.328C919.965 87.92 920.253 88.192 920.637 88.192C921.101 88.192 921.341 87.904 921.341 87.328V80.432C921.341 79.792 921.085 79.52 920.333 79.52C919.997 79.536 919.693 79.696 919.501 80.032L916.013 86.256V80.368ZM925.091 80.368C925.091 79.744 924.739 79.52 924.419 79.52C923.955 79.52 923.715 79.808 923.715 80.368V87.28C923.715 87.904 923.971 88.208 924.675 88.208C925.171 88.208 925.283 88.112 925.539 87.664L929.043 81.488V87.328C929.043 87.92 929.331 88.192 929.715 88.192C930.179 88.192 930.419 87.904 930.419 87.328V80.432C930.419 79.792 930.163 79.52 929.411 79.52C929.075 79.536 928.771 79.696 928.579 80.032L925.091 86.256V80.368Z" fill="#02527B"/>
</g>
<defs>
<linearGradient id="paint0_linear" x1="99.0001" y1="287" x2="99.0001" y2="485" gradientUnits="userSpaceOnUse">
<stop stop-color="#FFEDED"/>
<stop offset="0.510834" stop-color="#FFF3F3"/>
<stop offset="1" stop-color="#FFD7D7"/>
</linearGradient>
<radialGradient id="paint1_radial" cx="0" cy="0" r="1" gradientUnits="userSpaceOnUse" gradientTransform="translate(196.113 273.082) rotate(-14.0918) scale(43.098 8.45818)">
<stop stop-color="#E3FFBF"/>
<stop offset="1" stop-color="#88BC87"/>
</radialGradient>
<linearGradient id="paint2_linear" x1="225.152" y1="282.5" x2="225.152" y2="270.572" gradientUnits="userSpaceOnUse">
<stop stop-color="#88BC87"/>
<stop offset="1" stop-color="#E3FFBF"/>
</linearGradient>
<radialGradient id="paint3_radial" cx="0" cy="0" r="1" gradientUnits="userSpaceOnUse" gradientTransform="translate(412.637 272.693) rotate(90) scale(34.8344 32.8245)">
<stop stop-color="#E3FFBF"/>
<stop offset="1" stop-color="#88BC87"/>
</radialGradient>
<radialGradient id="paint4_radial" cx="0" cy="0" r="1" gradientUnits="userSpaceOnUse" gradientTransform="translate(580.777 281.326) rotate(25.2471) scale(44.2554 12.8663)">
<stop stop-color="#E3FFBF"/>
<stop offset="1" stop-color="#88BC87"/>
</radialGradient>
<linearGradient id="paint5_linear" x1="585.83" y1="292" x2="585.83" y2="277.815" gradientUnits="userSpaceOnUse">
<stop stop-color="#88BC87"/>
<stop offset="1" stop-color="#E3FFBF"/>
</linearGradient>
<radialGradient id="paint6_radial" cx="0" cy="0" r="1" gradientUnits="userSpaceOnUse" gradientTransform="translate(263.637 261.693) rotate(90) scale(34.8344 32.8245)">
<stop stop-color="#E3FFBF"/>
<stop offset="1" stop-color="#88BC87"/>
</radialGradient>
<radialGradient id="paint7_radial" cx="0" cy="0" r="1" gradientUnits="userSpaceOnUse" gradientTransform="translate(301.722 285.696) rotate(90) scale(23.5975 22.2359)">
<stop stop-color="#E3FFBF"/>
<stop offset="1" stop-color="#88BC87"/>
</radialGradient>
<radialGradient id="paint8_radial" cx="0" cy="0" r="1" gradientUnits="userSpaceOnUse" gradientTransform="translate(835.637 303.693) rotate(90) scale(34.8344 32.8245)">
<stop stop-color="#E3FFBF"/>
<stop offset="1" stop-color="#88BC87"/>
</radialGradient>
<radialGradient id="paint9_radial" cx="0" cy="0" r="1" gradientUnits="userSpaceOnUse" gradientTransform="translate(642.491 284.95) rotate(-20.6387) scale(46.8258 13.1214)">
<stop stop-color="#E3FFBF"/>
<stop offset="1" stop-color="#88BC87"/>
</radialGradient>
<linearGradient id="paint10_linear" x1="669.524" y1="291" x2="669.524" y2="273.591" gradientUnits="userSpaceOnUse">
<stop stop-color="#88BC87"/>
<stop offset="1" stop-color="#E3FFBF"/>
</linearGradient>
<radialGradient id="paint11_radial" cx="0" cy="0" r="1" gradientUnits="userSpaceOnUse" gradientTransform="translate(704.637 272.693) rotate(90) scale(34.8344 32.8245)">
<stop stop-color="#E3FFBF"/>
<stop offset="1" stop-color="#88BC87"/>
</radialGradient>
<radialGradient id="paint12_radial" cx="0" cy="0" r="1" gradientUnits="userSpaceOnUse" gradientTransform="translate(792.559 274.402) rotate(17.3211) scale(48.1851 11.1763)">
<stop stop-color="#E3FFBF"/>
<stop offset="1" stop-color="#88BC87"/>
</radialGradient>
<linearGradient id="paint13_linear" x1="793.83" y1="283.5" x2="793.83" y2="269.637" gradientUnits="userSpaceOnUse">
<stop stop-color="#88BC87"/>
<stop offset="1" stop-color="#E3FFBF"/>
</linearGradient>
<radialGradient id="paint14_radial" cx="0" cy="0" r="1" gradientUnits="userSpaceOnUse" gradientTransform="translate(205 237.075) scale(42.2667 5.42122)">
<stop stop-color="#E3FFBF"/>
<stop offset="1" stop-color="#88BC87"/>
</radialGradient>
<linearGradient id="paint15_linear" x1="220.152" y1="244" x2="220.152" y2="233.684" gradientUnits="userSpaceOnUse">
<stop stop-color="#88BC87"/>
<stop offset="1" stop-color="#E3FFBF"/>
</linearGradient>
<radialGradient id="paint16_radial" cx="0" cy="0" r="1" gradientUnits="userSpaceOnUse" gradientTransform="translate(625.157 241.905) rotate(47.0416) scale(54.2947 20.4783)">
<stop stop-color="#E3FFBF"/>
<stop offset="1" stop-color="#88BC87"/>
</radialGradient>
<linearGradient id="paint17_linear" x1="628.928" y1="250.5" x2="628.928" y2="226.966" gradientUnits="userSpaceOnUse">
<stop stop-color="#88BC87"/>
<stop offset="1" stop-color="#E3FFBF"/>
</linearGradient>
<radialGradient id="paint18_radial" cx="0" cy="0" r="1" gradientUnits="userSpaceOnUse" gradientTransform="translate(722.71 216.546) rotate(90) scale(18.5409 17.4711)">
<stop stop-color="#E3FFBF"/>
<stop offset="1" stop-color="#88BC87"/>
</radialGradient>
<radialGradient id="paint19_radial" cx="0" cy="0" r="1" gradientUnits="userSpaceOnUse" gradientTransform="translate(621.789 169.597) rotate(23.739) scale(40.42 11.2813)">
<stop stop-color="#E3FFBF"/>
<stop offset="1" stop-color="#88BC87"/>
</radialGradient>
<linearGradient id="paint20_linear" x1="623.928" y1="180" x2="623.928" y2="168.394" gradientUnits="userSpaceOnUse">
<stop stop-color="#88BC87"/>
<stop offset="1" stop-color="#E3FFBF"/>
</linearGradient>
<radialGradient id="paint21_radial" cx="0" cy="0" r="1" gradientUnits="userSpaceOnUse" gradientTransform="translate(828.296 251.899) rotate(32.4356) scale(59.1508 21.7946)">
<stop stop-color="white"/>
<stop offset="1" stop-color="#50C0E3"/>
</radialGradient>
<linearGradient id="paint22_linear" x1="935.938" y1="257.356" x2="851.672" y2="180.96" gradientUnits="userSpaceOnUse">
<stop stop-color="#00CAFF"/>
<stop offset="1" stop-color="#A7E2FF" stop-opacity="0.988391"/>
</linearGradient>
<radialGradient id="paint23_radial" cx="0" cy="0" r="1" gradientUnits="userSpaceOnUse" gradientTransform="translate(350.774 265.648) rotate(40.247) scale(58.3798 23.4329)">
<stop stop-color="white"/>
<stop offset="1" stop-color="#50C0E3"/>
</radialGradient>
<linearGradient id="paint24_linear" x1="247.663" y1="244.99" x2="335.189" y2="341.313" gradientUnits="userSpaceOnUse">
<stop stop-color="#00CAFF"/>
<stop offset="1" stop-color="#A7E2FF" stop-opacity="0.988391"/>
</linearGradient>
<radialGradient id="paint25_radial" cx="0" cy="0" r="1" gradientUnits="userSpaceOnUse" gradientTransform="translate(768.71 259.546) rotate(90) scale(18.5409 17.4711)">
<stop stop-color="#E3FFBF"/>
<stop offset="1" stop-color="#88BC87"/>
</radialGradient>
<radialGradient id="paint26_radial" cx="0" cy="0" r="1" gradientUnits="userSpaceOnUse" gradientTransform="translate(448.706 212.499) rotate(55.3477) scale(54.4219 19.7504)">
<stop stop-color="white"/>
<stop offset="1" stop-color="#006DC3"/>
</radialGradient>
<linearGradient id="paint27_linear" x1="393.786" y1="235.101" x2="485.769" y2="294.328" gradientUnits="userSpaceOnUse">
<stop stop-color="#0084C0"/>
<stop offset="1" stop-color="#A7E2FF" stop-opacity="0.988391"/>
</linearGradient>
<radialGradient id="paint28_radial" cx="0" cy="0" r="1" gradientUnits="userSpaceOnUse" gradientTransform="translate(542.85 214.342) rotate(96.0134) scale(62.3992 13.6693)">
<stop stop-color="white"/>
<stop offset="1" stop-color="#006DC3"/>
</radialGradient>
<linearGradient id="paint29_linear" x1="475.674" y1="241.047" x2="566.83" y2="296.52" gradientUnits="userSpaceOnUse">
<stop stop-color="#0084C0"/>
<stop offset="1" stop-color="#A7E2FF" stop-opacity="0.988391"/>
</linearGradient>
<radialGradient id="paint30_radial" cx="0" cy="0" r="1" gradientUnits="userSpaceOnUse" gradientTransform="translate(387.474 186.514) rotate(-57.4668) scale(42.1122 14.3884)">
<stop stop-color="#E3FFBF"/>
<stop offset="1" stop-color="#88BC87"/>
</radialGradient>
<linearGradient id="paint31_linear" x1="407.366" y1="190.5" x2="407.366" y2="162.452" gradientUnits="userSpaceOnUse">
<stop stop-color="#88BC87"/>
<stop offset="1" stop-color="#E3FFBF"/>
</linearGradient>
<radialGradient id="paint32_radial" cx="0" cy="0" r="1" gradientUnits="userSpaceOnUse" gradientTransform="translate(496.71 168.546) rotate(90) scale(18.5409 17.4711)">
<stop stop-color="#E3FFBF"/>
<stop offset="1" stop-color="#88BC87"/>
</radialGradient>
<radialGradient id="paint33_radial" cx="0" cy="0" r="1" gradientUnits="userSpaceOnUse" gradientTransform="translate(326.567 162.72) rotate(15.007) scale(30.0856 6.70701)">
<stop stop-color="#E3FFBF"/>
<stop offset="1" stop-color="#88BC87"/>
</radialGradient>
<linearGradient id="paint34_linear" x1="332.928" y1="173" x2="332.928" y2="161.394" gradientUnits="userSpaceOnUse">
<stop stop-color="#88BC87"/>
<stop offset="1" stop-color="#E3FFBF"/>
</linearGradient>
<clipPath id="clip0">
<rect width="966" height="485" fill="white"/>
</clipPath>
</defs>
</svg>
