<svg width="80" height="80" viewBox="0 0 80 80" fill="none" xmlns="http://www.w3.org/2000/svg">
<path fill-rule="evenodd" clip-rule="evenodd" d="M44.2689 63.5141C43.6692 62.066 44.0008 60.3992 45.1091 59.291C45.8325 58.5581 46.8193 58.1455 47.849 58.1455C48.8788 58.1455 49.8656 58.5581 50.5889 59.291C51.6973 60.3992 52.0289 62.066 51.4291 63.5141C50.8294 64.9621 49.4164 65.9063 47.849 65.9063C46.2817 65.9063 44.8687 64.9621 44.2689 63.5141ZM46.7758 60.9577C46.1848 61.5508 46.1848 62.5103 46.7758 63.1034C47.3687 63.6957 48.3293 63.6957 48.9222 63.1034H48.9215C49.514 62.5109 49.514 61.5502 48.9215 60.9577C48.329 60.3652 47.3684 60.3652 46.7758 60.9577Z" fill="#0089CF"/>
<path fill-rule="evenodd" clip-rule="evenodd" d="M30.1217 49.3666C29.5219 47.9185 29.8536 46.2518 30.9619 45.1436C31.6852 44.4106 32.6721 43.998 33.7018 43.998C34.7315 43.998 35.7184 44.4106 36.4417 45.1436C37.55 46.2518 37.8817 47.9185 37.2819 49.3666C36.6822 50.8147 35.2692 51.7588 33.7018 51.7588C32.1345 51.7588 30.7214 50.8147 30.1217 49.3666ZM32.6286 46.8102C32.0375 47.4034 32.0375 48.3628 32.6286 48.9559C33.2215 49.5482 34.1821 49.5482 34.775 48.9559H34.7743C35.3668 48.3634 35.3668 47.4028 34.7743 46.8102C34.1818 46.2177 33.2211 46.2177 32.6286 46.8102Z" fill="#DB4580"/>
<path fill-rule="evenodd" clip-rule="evenodd" d="M35.9602 29.9769C37.4794 29.1002 39.3981 29.3532 40.638 30.5939H40.6367C41.7456 31.7017 42.0777 33.3685 41.4779 34.8166C40.8782 36.2648 39.4649 37.2088 37.8975 37.2082C36.1434 37.2083 34.608 36.0302 34.1541 34.3359C33.7002 32.6416 34.441 30.8537 35.9602 29.9769ZM37.8982 34.8503C38.3007 34.8516 38.6871 34.692 38.9713 34.407C39.5499 33.8123 39.5434 32.8632 38.9568 32.2765C38.3703 31.6897 37.4212 31.683 36.8263 32.2613C36.3918 32.6947 36.2615 33.3473 36.4963 33.9143C36.731 34.4813 37.2845 34.8508 37.8982 34.8503Z" fill="#DB4580"/>
<path fill-rule="evenodd" clip-rule="evenodd" d="M44.9642 52.9992C43.2565 50.6751 43.7561 47.4068 46.0799 45.6988C47.193 44.8691 48.5922 44.5202 49.9646 44.7301C51.3369 44.94 52.5679 45.6913 53.382 46.8158C55.089 49.1403 54.5887 52.4085 52.2644 54.1159C49.9401 55.8232 46.6718 55.3233 44.9642 52.9992ZM47.6873 52.3585C48.6784 52.959 49.9337 52.9033 50.8678 52.2174H50.8712C52.1437 51.2788 52.4167 49.4874 51.4815 48.2123C50.7957 47.2782 49.6147 46.8492 48.4892 47.1253C47.3637 47.4015 46.5154 48.3285 46.3399 49.474C46.1643 50.6195 46.6961 51.758 47.6873 52.3585Z" fill="#0089CF"/>
<path fill-rule="evenodd" clip-rule="evenodd" d="M27.4557 65.7272C25.4159 63.6876 25.4158 60.3806 27.4554 58.3408H27.4547C29.496 56.3037 32.8011 56.3037 34.8423 58.3408C36.8819 60.3806 36.8818 63.6876 34.8421 65.7272C32.8023 67.7669 29.4954 67.7669 27.4557 65.7272ZM29.1219 64.0591C30.2407 65.178 32.0546 65.1783 33.1736 64.0597V64.057C33.7159 63.5227 34.0212 62.7932 34.0212 62.0319C34.0212 61.2706 33.7159 60.5412 33.1736 60.0068C32.0546 58.8883 30.2407 58.8886 29.1219 60.0075C28.0032 61.1263 28.0032 62.9402 29.1219 64.0591Z" fill="#0089CF"/>
<path fill-rule="evenodd" clip-rule="evenodd" d="M38.7874 73.7593C39.2707 71.3194 41.4099 69.5604 43.8972 69.5577H43.8966C45.2827 69.5529 46.6132 70.1031 47.591 71.0856C49.3496 72.8446 49.6211 75.6008 48.2396 77.6692C46.8581 79.7376 44.2081 80.5424 41.9097 79.5917C39.6112 78.6409 38.3041 76.1993 38.7874 73.7593ZM41.8701 72.753C40.7513 73.8718 40.7513 75.6857 41.8701 76.8045C42.9889 77.9233 44.8029 77.9233 45.9217 76.8045H45.921C46.7394 75.9852 46.984 74.7537 46.5408 73.6839C46.0977 72.614 45.0539 71.9162 43.8959 71.9156C43.1359 71.9128 42.4064 72.2144 41.8701 72.753Z" fill="#DB4580"/>
<path fill-rule="evenodd" clip-rule="evenodd" d="M39.1713 18.5413C39.3924 18.7623 39.5167 19.0621 39.5169 19.3747C39.5174 19.6882 39.3931 19.9891 39.1713 20.2107L20.2084 39.1716C19.9874 39.3928 19.6875 39.5172 19.3747 39.5172C19.062 39.5172 18.762 39.3928 18.541 39.1716L4.44081 25.072C0.724896 21.393 -0.737626 16.0064 0.60737 10.9533C1.95237 5.9001 5.89912 1.95334 10.9523 0.608346C16.0055 -0.736649 21.392 0.725873 25.071 4.44179L39.1713 18.5413ZM6.10818 23.4047L19.3737 36.6708L36.6705 19.3747L23.4044 6.10849C18.6281 1.33228 10.8844 1.33228 6.10818 6.10849C1.33198 10.8847 1.33198 18.6284 6.10818 23.4047Z" fill="#0089CF"/>
<path fill-rule="evenodd" clip-rule="evenodd" d="M65.4123 0.168457C69.2813 0.168457 72.9918 1.70558 75.7274 4.4416H75.7254C81.4222 10.1385 81.4222 19.3749 75.7254 25.0718L61.6252 39.1714C61.4042 39.3927 61.1043 39.517 60.7915 39.517C60.4788 39.517 60.1788 39.3927 59.9578 39.1714L40.997 20.2078C40.7757 19.9868 40.6514 19.6869 40.6514 19.3741C40.6514 19.0614 40.7757 18.7615 40.997 18.5405L55.0972 4.4416C57.8328 1.70558 61.5433 0.168457 65.4123 0.168457ZM60.7939 36.6707L74.0601 23.4045C78.8363 18.6283 78.8363 10.8845 74.0601 6.1083C69.2839 1.33209 61.5401 1.33209 56.7639 6.1083L43.4977 19.3745L60.7939 36.6707Z" fill="#DB4580"/>
</svg>
