<svg width="100" height="101" viewBox="0 0 100 101" fill="none" xmlns="http://www.w3.org/2000/svg">
<path fill-rule="evenodd" clip-rule="evenodd" d="M75.8949 45.9901L98.8797 86.5096C100.39 89.1632 100.37 92.3272 98.8389 94.9605C97.0222 98.0632 93.4295 100.002 89.4286 100.002H29.2924C25.2915 100.002 21.6988 98.0632 19.8821 94.9605C18.3511 92.3272 18.3307 89.1632 19.8413 86.5096L22.005 82.7128C21.5559 82.7536 21.0864 82.774 20.6374 82.774C12.2273 82.774 5.38899 75.9357 5.38899 67.5256V8.32843H4.16422C1.85757 8.32843 0 6.47087 0 4.16422C0 1.85757 1.85757 0 4.16422 0H9.5532H31.7215H37.1105C39.4172 0 41.2747 1.85757 41.2747 4.16422C41.2747 6.47087 39.4172 8.32843 37.1105 8.32843H35.8857V58.2378L42.7853 46.0513L43.3773 25.5569H42.4995C40.1929 25.5569 38.3353 23.6993 38.3353 21.3926C38.3353 19.086 40.1929 17.2284 42.4995 17.2284H76.2215C78.5281 17.2284 80.3857 19.086 80.3857 21.3926C80.3857 23.6993 78.5281 25.5569 76.2215 25.5569H75.3437L75.8949 45.9901ZM27.5573 32.1298V8.32843H13.7174V32.1298H27.5573ZM13.7174 67.5256V40.4582H27.5573V67.5256C27.5573 71.3428 24.4546 74.4456 20.6374 74.4456C16.8202 74.4252 13.7174 71.3224 13.7174 67.5256ZM29.2924 91.674H89.4286C90.9391 91.674 91.6332 90.8779 91.7148 90.6942L68.7096 50.1951C68.0155 48.9704 67.6277 47.6027 67.5869 46.2351L67.0153 25.5773H51.7465L51.175 46.2351C51.1341 47.6027 50.7463 48.9704 50.0522 50.1951L27.0878 90.6329C27.0878 90.8779 27.7819 91.674 29.2924 91.674Z" fill="url(#paint0_linear)"/>
<defs>
<linearGradient id="paint0_linear" x1="-16.3332" y1="17.9213" x2="19.5101" y2="117.923" gradientUnits="userSpaceOnUse">
<stop stop-color="#E8F7FF"/>
<stop offset="1" stop-color="#FFF3F8"/>
</linearGradient>
</defs>
</svg>
