<svg width="54" height="80" viewBox="0 0 54 80" fill="none" xmlns="http://www.w3.org/2000/svg">
<path d="M41.0345 71.3757C40.2783 71.3305 39.6269 71.8212 39.5762 72.4664C39.4321 74.3066 39.3215 76.0467 39.2459 77.6562H7.42865C6.31849 76.5801 2.73973 72.4182 2.73973 63.4887C2.73973 54.3725 9.01898 51.3897 14.0646 48.9929C17.1511 47.5274 19.8159 46.2609 20.0692 43.8549C20.3196 41.48 21.2193 39.8767 23.2777 38.1359C23.8156 37.6806 23.8206 36.9384 23.2884 36.4788C22.7568 36.018 21.8893 36.0137 21.3513 36.4691C18.8463 38.587 17.647 40.733 17.3402 43.645C17.2175 44.8144 15.239 45.7543 12.7347 46.9439C7.66338 49.353 0 52.9937 0 63.4887C0 75.1831 5.71133 79.5355 5.95462 79.7149C6.20362 79.8986 6.52112 79.9999 6.85003 79.9999H40.5665C41.3064 79.9999 41.9121 79.4982 41.9364 78.8659C42.0077 76.9781 42.134 74.8779 42.3102 72.6232C42.3609 71.9775 41.7901 71.419 41.0345 71.3757Z" fill="#0089CF"/>
<path fill-rule="evenodd" clip-rule="evenodd" d="M7.30664 62.9425C7.30664 59.4965 10.234 56.7969 13.9705 56.7969C16.4569 56.7969 18.2227 57.724 19.2644 58.4998C20.3068 57.7234 22.0719 56.7969 24.5584 56.7969C28.2955 56.7969 31.2222 59.4965 31.2222 62.9425C31.2222 68.3643 24.1816 72.1307 19.9843 73.8934C19.5334 74.0826 18.9969 74.0826 18.5459 73.894C14.3479 72.1307 7.30664 68.3643 7.30664 62.9425ZM24.5584 59.1406C22.1711 59.1406 20.8048 60.4224 20.4431 60.8154C19.8437 61.4667 18.6872 61.4691 18.0858 60.8148C17.7226 60.4211 16.357 59.1406 13.9705 59.1406C12.0683 59.1406 10.0464 60.473 10.0464 62.9425C10.0464 65.8936 13.3983 69.0271 19.2644 71.5814C25.1306 69.0277 28.4824 65.8942 28.4824 62.9425C28.4824 61.0992 27.1069 59.1406 24.5584 59.1406Z" fill="#DB4580"/>
<path fill-rule="evenodd" clip-rule="evenodd" d="M51.0588 26.4764C51.7901 26.3116 52.5393 26.6858 52.7319 27.312C54.1082 31.7926 53.1122 36.2323 49.8509 40.1508C48.0751 42.2852 46.0888 43.7122 45.1035 44.3506C45.1042 44.5129 45.1042 44.6771 45.1042 44.8438C45.1042 47.0587 44.614 51.2195 43.9933 56.4868C43.5924 59.8914 43.1379 63.7506 42.754 67.6434C42.6941 68.255 42.0955 68.717 41.3906 68.717C41.3521 68.717 41.3128 68.7158 41.2743 68.7128C40.5202 68.6584 39.9601 68.0914 40.0236 67.4469C40.4089 63.5345 40.8648 59.6655 41.2672 56.2518L41.2701 56.2271C41.8575 51.2412 42.3645 46.9375 42.3645 44.8438C42.3645 44.3781 42.3623 43.9276 42.3588 43.493V43.49C42.2532 41.6779 40.6678 37.2046 38.9498 32.9156H32.0884C30.3789 33.7408 28.9313 34.4891 27.6713 35.2002C27.0349 35.5585 26.1865 35.4034 25.7734 34.8669C25.3568 34.3268 25.5309 33.5999 26.163 33.2434C27.311 32.5958 28.6016 31.9214 30.0871 31.1926L28.8292 27.8046C26.8061 27.6885 26.7138 27.6889 26.6232 27.6767C26.6133 27.6754 26.6034 27.6739 26.5911 27.6721C25.0193 27.4408 23.7443 26.7151 22.8025 25.5151C19.4214 21.2067 21.5618 11.524 21.9813 9.79248C21.3007 6.92383 21.1894 4.87366 21.183 4.7467C21.1601 4.28589 21.4555 3.8562 21.9371 3.64929C22.2839 3.50037 30.5137 0 37.3388 0C43.4525 0 47.1604 1.68823 49.0083 5.31311C50.0383 7.33287 50.2332 10.0401 50.48 13.4673L50.4802 13.4698C50.6721 16.1414 50.8897 19.1693 51.5497 22.5671C51.6738 23.2056 51.1694 23.8092 50.4231 23.9148C49.6761 24.021 48.9712 23.5895 48.8471 22.951C48.1643 19.4381 47.9422 16.349 47.7461 13.6229L47.7455 13.6139L47.7447 13.6032C47.5146 10.4106 47.3329 7.8888 46.4969 6.24939C44.7425 2.80762 40.8826 2.34375 37.3388 2.34375C32.3259 2.34375 26.178 4.55627 23.9883 5.41199C24.1467 6.88416 24.6497 10.2869 26.1238 13.9252C28.6744 20.2203 32.779 24.223 38.3248 25.8221C38.7136 25.9338 39.0226 26.189 39.1681 26.5173C39.6875 27.6904 43.6081 36.6229 44.776 41.5283C45.6407 40.8508 46.6988 39.9078 47.6713 38.728C50.4431 35.3632 51.2536 31.723 50.0814 27.9077C49.8894 27.2815 50.3268 26.6406 51.0588 26.4764ZM25.0785 24.2096C25.5865 24.8572 26.1958 25.2209 26.9906 25.3522L29.9415 25.5182C30.5037 25.5499 30.9861 25.8734 31.1573 26.333L32.6855 30.448C34.0197 30.3308 36.5497 30.3174 37.8875 30.3247C37.5236 29.4574 37.1661 28.6243 36.8287 27.8534C31.031 25.9821 26.5511 21.6797 23.8114 15.3522C23.4903 18.6194 23.5881 22.3114 25.0785 24.2096Z" fill="#0089CF"/>
</svg>
