<svg width="63" height="80" viewBox="0 0 63 80" fill="none" xmlns="http://www.w3.org/2000/svg">
<path fill-rule="evenodd" clip-rule="evenodd" d="M31.6228 0.17628L61.8692 16.1978C62.36 16.4576 62.6667 16.9663 62.6667 17.5193V38.0324C62.665 55.4455 52.1579 71.1597 36.0075 77.9024L31.4077 79.8771C31.0254 80.0417 30.5909 80.0408 30.2094 79.8754L26.1273 78.107C10.2709 71.2148 0.0176462 55.651 0 38.4475V17.5193C0 16.9722 0.299145 16.4693 0.781474 16.2062L30.191 0.184633C30.6363 -0.0584462 31.1741 -0.0617873 31.6228 0.17628ZM34.8285 75.1483C49.8665 68.8742 59.6517 54.2452 59.6551 38.0324V18.4164L30.9245 3.19765L3.01078 18.4056V38.4475C3.02758 54.4615 12.5725 68.9477 27.3323 75.363L30.8128 76.8724L34.8185 75.1533L34.8285 75.1483Z" fill="#0089CF"/>
<path d="M19.9708 38.0241C19.4334 37.4175 18.4881 37.3459 17.8587 37.8638C17.2293 38.3809 17.1549 39.2927 17.6924 39.8984L25.6041 48.827C26.1323 49.423 27.0576 49.5043 27.6878 49.0098L46.1139 34.563C46.7558 34.0604 46.8528 33.151 46.3304 32.5324C45.8089 31.9146 44.8653 31.8204 44.2234 32.3238L26.9322 45.8798L19.9708 38.0241Z" fill="#DB4580"/>
</svg>
