<svg width="79" height="99" viewBox="0 0 79 99" fill="none" xmlns="http://www.w3.org/2000/svg">
<path fill-rule="evenodd" clip-rule="evenodd" d="M70.8051 52.4865C65.6332 47.4596 58.7981 44.687 51.5368 44.687C48.287 44.687 45.1782 45.331 42.2205 46.3845V20.8565C42.2205 9.35997 32.7542 0 21.108 0C9.48009 0 0 9.35431 0 20.8565V76.6995C0 88.1938 9.48811 97.5571 21.108 97.5571C26.0004 97.5571 30.5766 95.8359 34.312 92.8381C39.209 96.7661 45.1656 99 51.5357 99C58.9573 99 65.9162 96.1199 71.1419 90.886C81.7491 80.2054 81.5991 62.977 70.8051 52.4865ZM21.108 6.33504C29.21 6.33504 35.8012 12.85 35.8012 20.8497V44.6689H6.41819V20.8497C6.41819 12.8557 13.0162 6.33504 21.108 6.33504ZM6.41819 51.0142V76.687C6.41819 84.6879 13.0162 91.2017 21.108 91.2153C24.3188 91.2153 27.3223 90.1629 29.8332 88.3171C21.6234 77.7542 22.2202 62.5628 31.9374 52.7977C32.3744 52.3586 32.8591 51.9841 33.3421 51.6109L33.3422 51.6109C33.5961 51.4147 33.8497 51.2189 34.0956 51.0142H6.41819ZM66.5542 86.4216C58.6572 94.35 44.7727 94.4609 36.7726 86.6638C28.4987 78.621 28.3818 65.4179 36.5217 57.2372C40.508 53.2311 45.8449 51.0266 51.5357 51.0266C57.0901 51.0266 62.3434 53.144 66.3068 57.0018C74.5807 65.0456 74.6849 78.2476 66.5542 86.4216ZM59.3056 81.8471C60.8177 82.7557 62.7901 82.2799 63.69 80.7822C64.5888 79.2864 64.0834 77.3206 62.5851 76.4203L52.9548 70.6339L58.6668 61.1277C59.569 59.6261 59.0549 57.6616 57.5487 56.7566C56.0287 55.8433 54.0636 56.3181 53.1614 57.8197L45.867 69.9595C45.1181 71.206 45.6064 73.0956 46.6558 74.1314C46.836 74.3229 47.0459 74.4807 47.2619 74.6105L59.3056 81.8471Z" fill="url(#paint0_linear)"/>
<defs>
<linearGradient id="paint0_linear" x1="-12.9032" y1="17.7416" x2="28.8518" y2="110.705" gradientUnits="userSpaceOnUse">
<stop stop-color="#E8F7FF"/>
<stop offset="1" stop-color="#FFF3F8"/>
</linearGradient>
</defs>
</svg>
