<svg width="80" height="80" viewBox="0 0 80 80" fill="none" xmlns="http://www.w3.org/2000/svg">
<path fill-rule="evenodd" clip-rule="evenodd" d="M44.269 63.5141C43.6692 62.066 44.0008 60.3992 45.1092 59.291C45.8325 58.5581 46.8193 58.1455 47.8491 58.1455C48.8788 58.1455 49.8656 58.5581 50.589 59.291C51.6973 60.3992 52.0289 62.066 51.4292 63.5141C50.8294 64.9621 49.4164 65.9063 47.8491 65.9063C46.2817 65.9063 44.8687 64.9621 44.269 63.5141ZM46.7759 60.9577C46.1848 61.5508 46.1848 62.5103 46.7759 63.1034C47.3688 63.6957 48.3294 63.6957 48.9223 63.1034H48.9216C49.5141 62.5109 49.5141 61.5502 48.9216 60.9577C48.3291 60.3652 47.3684 60.3652 46.7759 60.9577Z" fill="#0089CF"/>
<path fill-rule="evenodd" clip-rule="evenodd" d="M30.1216 49.3666C29.5219 47.9185 29.8535 46.2518 30.9618 45.1436C31.6852 44.4106 32.672 43.998 33.7017 43.998C34.7315 43.998 35.7183 44.4106 36.4416 45.1436C37.5499 46.2518 37.8816 47.9185 37.2818 49.3666C36.6821 50.8147 35.2691 51.7588 33.7017 51.7588C32.1344 51.7588 30.7214 50.8147 30.1216 49.3666ZM32.6285 46.8102C32.0375 47.4034 32.0375 48.3628 32.6285 48.9559C33.2214 49.5482 34.182 49.5482 34.7749 48.9559H34.7742C35.3667 48.3634 35.3667 47.4028 34.7742 46.8102C34.1817 46.2177 33.221 46.2177 32.6285 46.8102Z" fill="#DB4580"/>
<path fill-rule="evenodd" clip-rule="evenodd" d="M35.9601 29.9769C37.4793 29.1002 39.3981 29.3532 40.638 30.5939H40.6366C41.7455 31.7017 42.0776 33.3685 41.4779 34.8166C40.8781 36.2648 39.4648 37.2088 37.8974 37.2082C36.1434 37.2083 34.6079 36.0302 34.154 34.3359C33.7001 32.6416 34.4409 30.8537 35.9601 29.9769ZM37.8981 34.8503C38.3006 34.8516 38.687 34.692 38.9713 34.407C39.5498 33.8123 39.5433 32.8632 38.9568 32.2765C38.3702 31.6897 37.4211 31.683 36.8263 32.2613C36.3918 32.6947 36.2615 33.3473 36.4962 33.9143C36.731 34.4813 37.2844 34.8508 37.8981 34.8503Z" fill="#DB4580"/>
<path fill-rule="evenodd" clip-rule="evenodd" d="M44.9642 52.9989C43.2566 50.6748 43.7561 47.4065 46.08 45.6986C47.1931 44.8688 48.5923 44.5199 49.9646 44.7298C51.337 44.9398 52.5679 45.691 53.3821 46.8156C55.0891 49.1401 54.5888 52.4083 52.2644 54.1156C49.9401 55.823 46.6719 55.323 44.9642 52.9989ZM47.6873 52.3582C48.6785 52.9587 49.9338 52.9031 50.8679 52.2172H50.8712C52.1438 51.2785 52.4168 49.4872 51.4816 48.2121C50.7958 47.278 49.6147 46.8489 48.4892 47.1251C47.3638 47.4013 46.5155 48.3282 46.3399 49.4737C46.1644 50.6193 46.6962 51.7577 47.6873 52.3582Z" fill="#0089CF"/>
<path fill-rule="evenodd" clip-rule="evenodd" d="M27.4556 65.7275C25.4159 63.6878 25.4157 60.3809 27.4553 58.3411H27.4546C29.4959 56.304 32.801 56.304 34.8423 58.3411C36.8818 60.3809 36.8817 63.6878 34.842 65.7275C32.8023 67.7671 29.4953 67.7671 27.4556 65.7275ZM29.1219 64.0594C30.2406 65.1783 32.0545 65.1785 33.1736 64.06V64.0573C33.7158 63.523 34.0212 62.7935 34.0212 62.0322C34.0212 61.2709 33.7158 60.5414 33.1736 60.0071C32.0545 58.8885 30.2406 58.8888 29.1219 60.0077C28.0032 61.1266 28.0032 62.9405 29.1219 64.0594Z" fill="#0089CF"/>
<path fill-rule="evenodd" clip-rule="evenodd" d="M38.7874 73.7596C39.2707 71.3197 41.4099 69.5607 43.8973 69.5579H43.8966C45.2828 69.5531 46.6132 70.1034 47.5911 71.0858C49.3496 72.8449 49.6212 75.601 48.2397 77.6694C46.8581 79.7378 44.2082 80.5426 41.9097 79.5919C39.6112 78.6412 38.3041 76.1995 38.7874 73.7596ZM41.8701 72.7532C40.7513 73.872 40.7513 75.6859 41.8701 76.8047C42.9889 77.9235 44.8029 77.9235 45.9217 76.8047H45.921C46.7394 75.9855 46.984 74.754 46.5409 73.6841C46.0977 72.6142 45.0539 71.9164 43.8959 71.9158C43.1359 71.9131 42.4064 72.2146 41.8701 72.7532Z" fill="#DB4580"/>
<path fill-rule="evenodd" clip-rule="evenodd" d="M39.1714 18.5411C39.3925 18.7621 39.5168 19.0618 39.517 19.3744C39.5175 19.688 39.3932 19.9888 39.1714 20.2105L20.2085 39.1713C19.9875 39.3926 19.6876 39.5169 19.3748 39.5169C19.0621 39.5169 18.7622 39.3926 18.5411 39.1713L4.44094 25.0718C0.725018 21.3927 -0.737504 16.0062 0.607492 10.953C1.95249 5.89986 5.89924 1.9531 10.9524 0.608102C16.0056 -0.736894 21.3921 0.725629 25.0712 4.44155L39.1714 18.5411ZM6.1083 23.4044L19.3738 36.6706L36.6707 19.3744L23.4045 6.10824C18.6283 1.33204 10.8845 1.33204 6.1083 6.10824C1.3321 10.8844 1.3321 18.6282 6.1083 23.4044Z" fill="#0089CF"/>
<path fill-rule="evenodd" clip-rule="evenodd" d="M65.4124 0.168457C69.2814 0.168457 72.9919 1.70558 75.7275 4.4416H75.7255C81.4223 10.1385 81.4223 19.3749 75.7255 25.0718L61.6253 39.1714C61.4043 39.3927 61.1043 39.517 60.7916 39.517C60.4788 39.517 60.1789 39.3927 59.9579 39.1714L40.9971 20.2078C40.7758 19.9868 40.6514 19.6869 40.6514 19.3741C40.6514 19.0614 40.7758 18.7615 40.9971 18.5405L55.0973 4.4416C57.8329 1.70558 61.5434 0.168457 65.4124 0.168457ZM60.7939 36.6707L74.0601 23.4045C78.8363 18.6283 78.8363 10.8845 74.0601 6.1083C69.2839 1.33209 61.5402 1.33209 56.764 6.1083L43.4978 19.3745L60.7939 36.6707Z" fill="#DB4580"/>
</svg>
