<svg width="95" height="100" viewBox="0 0 95 100" fill="none" xmlns="http://www.w3.org/2000/svg">
<path d="M49.9429 13.2849H49.729V13.072C49.729 11.4181 48.3826 10.0776 46.7212 10.0776C45.0598 10.0776 43.7134 11.4181 43.7134 13.072V13.2849H43.4995C41.839 13.2849 40.4917 14.6253 40.4917 16.2792C40.4917 17.9331 41.839 19.2735 43.4995 19.2735H43.7134V19.4864C43.7134 21.1403 45.0598 22.4807 46.7212 22.4807C48.3826 22.4807 49.729 21.1403 49.729 19.4864V19.2735H49.9429C51.6042 19.2735 52.9507 17.9331 52.9507 16.2792C52.9507 14.6253 51.6042 13.2849 49.9429 13.2849Z" fill="url(#paint0_linear)"/>
<path fill-rule="evenodd" clip-rule="evenodd" d="M90.9765 82.7591L94.889 96.2646C95.3878 97.9851 94.1659 100 92.0322 100C90.7399 100 89.5512 99.1608 89.1777 97.8745L85.2652 84.3681C83.9513 79.8279 80.6893 76.1253 76.3159 74.2081L68.7099 70.8725L68.7098 70.8726C68.7074 70.8755 68.7049 70.8784 68.7025 70.8812C68.6972 70.8874 68.6917 70.8935 68.6859 70.8992L49.6009 89.727C49.0209 90.2992 48.2615 90.5853 47.5013 90.5853C46.741 90.5853 45.9816 90.2992 45.4016 89.727L26.3158 70.8992C26.3073 70.8908 26.3003 70.8809 26.2918 70.8725L18.6866 74.2081C14.3132 76.1253 11.0512 79.8286 9.73726 84.3681L5.82406 97.8745C5.4513 99.1615 4.26264 100 2.97036 100C0.929456 100 -0.409232 98.0682 0.11356 96.2646L4.02599 82.7583C5.82483 76.5457 10.2894 71.4775 16.2745 68.8538L34.989 60.6476V55.3543C29.2283 51.4252 25.4458 44.8639 25.4458 37.4474V2.92969C25.4458 1.31149 26.776 0 28.4155 0H66.587C68.2266 0 69.5567 1.31149 69.5567 2.92969V37.4474C69.5567 44.8639 65.7742 51.4252 60.0135 55.3543V60.6476L78.7288 68.8538C84.7131 71.4775 89.1777 76.5457 90.9765 82.7591ZM63.6173 5.85938H31.3852V25.1038H63.6173V5.85938ZM31.3852 37.4474V30.9631H63.6173V37.4474C63.6173 46.2135 56.3872 53.3455 47.5013 53.3455C38.6153 53.3455 31.3852 46.2135 31.3852 37.4474ZM32.1052 68.3243L47.5013 83.5121L62.8973 68.3243L55.8381 65.2283C54.7654 64.7583 54.0741 63.7093 54.0741 62.5511V58.2184C51.9976 58.8593 49.7896 59.2049 47.5013 59.2049C45.2129 59.2049 43.0049 58.8593 40.9285 58.2184V62.5511C40.9285 63.7093 40.2371 64.7583 39.1652 65.2283L32.1052 68.3243Z" fill="url(#paint1_linear)"/>
<path d="M76.4388 87.5967H66.84C65.1899 87.5967 63.8525 88.8113 63.8525 90.3099C63.8525 91.8085 65.1899 93.023 66.84 93.023H76.4388C78.0889 93.023 79.4263 91.8085 79.4263 90.3099C79.4263 88.8113 78.0889 87.5967 76.4388 87.5967Z" fill="url(#paint2_linear)"/>
<defs>
<linearGradient id="paint0_linear" x1="38.4567" y1="12.3004" x2="42.8868" y2="24.7161" gradientUnits="userSpaceOnUse">
<stop stop-color="#E8F7FF"/>
<stop offset="1" stop-color="#FFF3F8"/>
</linearGradient>
<linearGradient id="paint1_linear" x1="-15.5165" y1="17.9209" x2="21.7532" y2="116.706" gradientUnits="userSpaceOnUse">
<stop stop-color="#E8F7FF"/>
<stop offset="1" stop-color="#FFF3F8"/>
</linearGradient>
<linearGradient id="paint2_linear" x1="61.3088" y1="88.5691" x2="62.0618" y2="94.5985" gradientUnits="userSpaceOnUse">
<stop stop-color="#E8F7FF"/>
<stop offset="1" stop-color="#FFF3F8"/>
</linearGradient>
</defs>
</svg>
