<svg width="80" height="80" viewBox="0 0 80 80" fill="none" xmlns="http://www.w3.org/2000/svg">
<path fill-rule="evenodd" clip-rule="evenodd" d="M0 40C0 17.9086 17.9086 0 40 0C62.081 0.0249827 79.975 17.919 80 40C80 62.0914 62.0914 80 40 80C17.9086 80 0 62.0914 0 40ZM2.66667 40C2.66667 60.6186 19.3814 77.3333 40 77.3333C60.6089 77.3098 77.3098 60.6089 77.3333 40C77.3333 19.3814 60.6186 2.66667 40 2.66667C19.3814 2.66667 2.66667 19.3814 2.66667 40Z" fill="#0089CF"/>
<path d="M40.4001 72.5232C22.659 72.5232 8.27702 58.1412 8.27702 40.4001C8.27702 22.659 22.659 8.27702 40.4001 8.27702V5.6001C21.1806 5.6001 5.6001 21.1806 5.6001 40.4001C5.6001 59.6196 21.1806 75.2001 40.4001 75.2001C59.6196 75.2001 75.2001 59.6196 75.2001 40.4001H72.5232C72.5025 58.1326 58.1326 72.5025 40.4001 72.5232Z" fill="#DB4580"/>
<path d="M43.2 5.6001H45.6V8.0001H43.2V5.6001Z" fill="#0089CF"/>
<path d="M72 35.2002H74.4V37.6002H72V35.2002Z" fill="#0089CF"/>
<path d="M28 29.3333C27.2636 29.3333 26.6667 28.7364 26.6667 28H24C24 30.2091 25.7909 32 28 32C30.2091 32 32 30.2091 32 28H29.3333C29.3333 28.7364 28.7364 29.3333 28 29.3333Z" fill="#0089CF"/>
<path fill-rule="evenodd" clip-rule="evenodd" d="M37.2267 26.6667H40V29.3333H37.2267C37.0059 30.8738 36.4006 32.3339 35.4667 33.5787L38.276 36.3933L36.3907 38.2787L33.5787 35.4667C32.3339 36.4006 30.8738 37.0059 29.3333 37.2267V40H26.6667V37.2267C25.1262 37.0059 23.6661 36.4006 22.4213 35.4667L19.6067 38.276L17.7213 36.3907L20.5333 33.5787C19.5994 32.3339 18.9941 30.8738 18.7733 29.3333H16V26.6667H18.7733C18.9941 25.1262 19.5994 23.6661 20.5333 22.4213L17.724 19.6067L19.6093 17.7213L22.4213 20.5333C23.6661 19.5994 25.1262 18.9941 26.6667 18.7733V16H29.3333V18.7733C30.8738 18.9941 32.3339 19.5994 33.5787 20.5333L36.3933 17.724L38.2787 19.6093L35.4667 22.4213C36.4006 23.6661 37.0059 25.1262 37.2267 26.6667ZM28 34.6667C31.6819 34.6667 34.6667 31.6819 34.6667 28C34.6623 24.3199 31.6801 21.3377 28 21.3333C24.3181 21.3333 21.3333 24.3181 21.3333 28C21.3333 31.6819 24.3181 34.6667 28 34.6667Z" fill="#0089CF"/>
<path fill-rule="evenodd" clip-rule="evenodd" d="M43.3214 56.3907L46.1334 53.5787C45.1994 52.3339 44.5942 50.8738 44.3734 49.3333H41.6001V46.6667H44.3734C44.5942 45.1262 45.1994 43.6661 46.1334 42.4213L43.3241 39.6067L45.2094 37.7213L48.0214 40.5333C49.2662 39.5994 50.7263 38.9941 52.2668 38.7733V36H54.9334V38.7733C56.4739 38.9941 57.934 39.5994 59.1788 40.5333L61.9934 37.724L63.8788 39.6093L61.0668 42.4213C62.0007 43.6661 62.606 45.1262 62.8268 46.6667H65.6001V49.3333H62.8268C62.606 50.8738 62.0007 52.3339 61.0668 53.5787L63.8761 56.3933L61.9908 58.2787L59.1788 55.4667C57.934 56.4006 56.4739 57.0059 54.9334 57.2267V60H52.2668V57.2267C50.7263 57.0059 49.2662 56.4006 48.0214 55.4667L45.2068 58.276L43.3214 56.3907ZM51.0489 41.8408C48.5577 42.8727 46.9334 45.3036 46.9334 48C46.9378 51.6801 49.92 54.6623 53.6001 54.6667C56.2965 54.6667 58.7274 53.0424 59.7593 50.5512C60.7912 48.0601 60.2208 45.1926 58.3141 43.286C56.4075 41.3793 53.54 40.8089 51.0489 41.8408Z" fill="#DB4580"/>
<path d="M53.6001 46.6667C54.3365 46.6667 54.9334 47.2636 54.9334 48H57.6001C57.6001 45.7909 55.8092 44 53.6001 44C51.391 44 49.6001 45.7909 49.6001 48H52.2668C52.2668 47.2636 52.8637 46.6667 53.6001 46.6667Z" fill="#DB4580"/>
<path fill-rule="evenodd" clip-rule="evenodd" d="M66.0422 15.2995L67.9006 17.1579L65.8779 19.1819C66.344 19.8807 66.6707 20.663 66.84 21.4858H69.6V24.1144H66.84C66.6704 24.9377 66.3433 25.7205 65.8766 26.4196L67.9006 28.4436L66.0422 30.302L64.0182 28.278C63.3193 28.7441 62.537 29.0708 61.7142 29.2401V32.0001H59.0857V29.2401C58.2623 29.0706 57.4795 28.7434 56.7804 28.2767L54.7564 30.3007L52.898 28.4423L54.922 26.4183C54.4559 25.7195 54.1292 24.9372 53.96 24.1144H51.2V21.4858H53.96C54.1295 20.6625 54.4566 19.8797 54.9233 19.1806L52.8993 17.1566L54.7577 15.2982L56.7817 17.3222C57.4806 16.8561 58.2629 16.5294 59.0857 16.3601V13.6001H61.7142V16.3601C62.5371 16.5298 63.3194 16.8569 64.0182 17.3235L66.0422 15.2995ZM56.7572 24.309C57.3675 25.7823 58.8052 26.743 60.4 26.743C62.5775 26.743 64.3428 24.9777 64.3428 22.8001C64.3428 21.2054 63.3822 19.7677 61.9088 19.1574C60.4355 18.5471 58.7396 18.8844 57.6119 20.0121C56.4843 21.1397 56.1469 22.8356 56.7572 24.309Z" fill="#DB4580"/>
<path fill-rule="evenodd" clip-rule="evenodd" d="M34.84 55.0859H37.6V57.7145H34.84C34.6704 58.5378 34.3433 59.3206 33.8766 60.0197L35.9006 62.0437L34.0422 63.9021L32.0182 61.8781C31.3193 62.3442 30.537 62.6709 29.7142 62.8402V65.6002H27.0857V62.8402C26.2623 62.6707 25.4795 62.3435 24.7804 61.8768L22.7564 63.9008L20.898 62.0424L22.922 60.0184C22.4559 59.3196 22.1292 58.5373 21.96 57.7145H19.2V55.0859H21.96C22.1295 54.2626 22.4566 53.4798 22.9233 52.7807L20.8993 50.7567L22.7577 48.8983L24.7817 50.9223C25.4806 50.4561 26.2629 50.1295 27.0857 49.9602V47.2002H29.7142V49.9602C30.5376 50.1297 31.3204 50.4568 32.0195 50.9236L34.0435 48.8996L35.9019 50.758L33.8779 52.782C34.344 53.4808 34.6707 54.2631 34.84 55.0859ZM24.4571 56.4002C24.4571 58.5778 26.2224 60.3431 28.4 60.3431C30.5775 60.3431 32.3428 58.5778 32.3428 56.4002C32.3428 54.2226 30.5775 52.4573 28.4 52.4573C26.2224 52.4573 24.4571 54.2226 24.4571 56.4002Z" fill="#0089CF"/>
<path fill-rule="evenodd" clip-rule="evenodd" d="M50.3999 30.3999C50.3999 32.609 48.609 34.3999 46.3999 34.3999C44.1908 34.3999 42.3999 32.609 42.3999 30.3999C42.3999 28.1908 44.1908 26.3999 46.3999 26.3999C48.609 26.3999 50.3999 28.1908 50.3999 30.3999ZM47.7332 30.3999C47.7332 29.6635 47.1363 29.0666 46.3999 29.0666C45.6635 29.0666 45.0666 29.6635 45.0666 30.3999C45.0666 31.1363 45.6635 31.7332 46.3999 31.7332C47.1363 31.7332 47.7332 31.1363 47.7332 30.3999Z" fill="#DB4580"/>
<path fill-rule="evenodd" clip-rule="evenodd" d="M42.3999 69.6001C40.1908 69.6001 38.3999 67.8092 38.3999 65.6001C38.3999 63.391 40.1908 61.6001 42.3999 61.6001C44.609 61.6001 46.3999 63.391 46.3999 65.6001C46.3999 67.8092 44.609 69.6001 42.3999 69.6001ZM43.7332 65.6001C43.7332 64.8637 43.1363 64.2668 42.3999 64.2668C41.6635 64.2668 41.0666 64.8637 41.0666 65.6001C41.0666 66.3365 41.6635 66.9334 42.3999 66.9334C43.1363 66.9334 43.7332 66.3365 43.7332 65.6001Z" fill="#0089CF"/>
<path fill-rule="evenodd" clip-rule="evenodd" d="M10.3999 42.3999C10.3999 40.1908 12.1908 38.3999 14.3999 38.3999C16.609 38.3999 18.3999 40.1908 18.3999 42.3999C18.3999 44.609 16.609 46.3999 14.3999 46.3999C12.1908 46.3999 10.3999 44.609 10.3999 42.3999ZM13.0666 42.3999C13.0666 43.1363 13.6635 43.7332 14.3999 43.7332C15.1363 43.7332 15.7332 43.1363 15.7332 42.3999C15.7332 41.6635 15.1363 41.0666 14.3999 41.0666C13.6635 41.0666 13.0666 41.6635 13.0666 42.3999Z" fill="#0089CF"/>
<path d="M33.6001 41.6001H36.0001V44.0001H33.6001V41.6001Z" fill="#DB4580"/>
<path d="M44 15.2002H46.4V17.6002H44V15.2002Z" fill="#DB4580"/>
</svg>
