<svg width="54" height="80" viewBox="0 0 54 80" fill="none" xmlns="http://www.w3.org/2000/svg">
<path d="M41.0345 71.3757C40.2783 71.3305 39.6269 71.8212 39.5762 72.4664C39.4321 74.3066 39.3215 76.0467 39.2459 77.6562H7.42865C6.31849 76.5801 2.73973 72.4182 2.73973 63.4887C2.73973 54.3725 9.01898 51.3897 14.0646 48.9929C17.1511 47.5274 19.8159 46.2609 20.0692 43.8549C20.3196 41.48 21.2193 39.8767 23.2777 38.1359C23.8156 37.6806 23.8206 36.9384 23.2884 36.4788C22.7568 36.018 21.8893 36.0137 21.3513 36.4691C18.8463 38.587 17.647 40.733 17.3402 43.645C17.2175 44.8144 15.239 45.7543 12.7347 46.9439C7.66338 49.353 0 52.9937 0 63.4887C0 75.1831 5.71133 79.5355 5.95462 79.7149C6.20362 79.8986 6.52112 79.9999 6.85003 79.9999H40.5665C41.3064 79.9999 41.9121 79.4982 41.9364 78.8659C42.0077 76.9781 42.134 74.8779 42.3102 72.6232C42.3609 71.9775 41.7901 71.419 41.0345 71.3757Z" fill="#0089CF"/>
<path fill-rule="evenodd" clip-rule="evenodd" d="M7.30664 62.9425C7.30664 59.4965 10.234 56.7969 13.9705 56.7969C16.4569 56.7969 18.2227 57.724 19.2644 58.4998C20.3068 57.7234 22.0719 56.7969 24.5584 56.7969C28.2955 56.7969 31.2222 59.4965 31.2222 62.9425C31.2222 68.3643 24.1816 72.1307 19.9843 73.8934C19.5334 74.0826 18.9969 74.0826 18.5459 73.894C14.3479 72.1307 7.30664 68.3643 7.30664 62.9425ZM24.5584 59.1406C22.1711 59.1406 20.8048 60.4224 20.4431 60.8154C19.8437 61.4667 18.6872 61.4691 18.0858 60.8148C17.7226 60.4211 16.357 59.1406 13.9705 59.1406C12.0683 59.1406 10.0464 60.473 10.0464 62.9425C10.0464 65.8936 13.3983 69.0271 19.2644 71.5814C25.1306 69.0277 28.4824 65.8942 28.4824 62.9425C28.4824 61.0992 27.1069 59.1406 24.5584 59.1406Z" fill="#DB4580"/>
<path fill-rule="evenodd" clip-rule="evenodd" d="M51.0587 26.4764C51.79 26.3116 52.5392 26.6858 52.7318 27.312C54.1081 31.7926 53.1121 36.2323 49.8508 40.1508C48.075 42.2852 46.0887 43.7122 45.1034 44.3506C45.1041 44.5129 45.1041 44.6771 45.1041 44.8438C45.1041 47.0587 44.6139 51.2195 43.9932 56.4868C43.5922 59.8914 43.1378 63.7506 42.7539 67.6434C42.694 68.255 42.0954 68.717 41.3905 68.717C41.3519 68.717 41.3127 68.7158 41.2742 68.7128C40.52 68.6584 39.96 68.0914 40.0235 67.4469C40.4087 63.5345 40.8646 59.6655 41.267 56.2518L41.27 56.2271C41.8573 51.2412 42.3644 46.9375 42.3644 44.8438C42.3644 44.3781 42.3622 43.9276 42.3586 43.493V43.49C42.2531 41.6779 40.6677 37.2046 38.9497 32.9156H32.0882C30.3788 33.7408 28.9311 34.4891 27.6711 35.2002C27.0347 35.5585 26.1864 35.4034 25.7733 34.8669C25.3566 34.3268 25.5307 33.5999 26.1629 33.2434C27.3108 32.5958 28.6015 31.9214 30.087 31.1926L28.8291 27.8046C26.806 27.6885 26.7137 27.6889 26.6231 27.6767C26.6132 27.6754 26.6033 27.6739 26.591 27.6721C25.0192 27.4408 23.7442 26.7151 22.8024 25.5151C19.4213 21.2067 21.5617 11.524 21.9812 9.79248C21.3006 6.92383 21.1893 4.87366 21.1828 4.7467C21.16 4.28589 21.4554 3.8562 21.937 3.64929C22.2837 3.50037 30.5136 0 37.3387 0C43.4524 0 47.1603 1.68823 49.0082 5.31311C50.0382 7.33287 50.2331 10.0401 50.4799 13.4673L50.4801 13.4698C50.672 16.1414 50.8896 19.1693 51.5496 22.5671C51.6737 23.2056 51.1693 23.8092 50.423 23.9148C49.676 24.021 48.9711 23.5895 48.8469 22.951C48.1642 19.4381 47.942 16.349 47.746 13.6229L47.7453 13.6139L47.7446 13.6032C47.5145 10.4106 47.3327 7.8888 46.4968 6.24939C44.7424 2.80762 40.8825 2.34375 37.3387 2.34375C32.3258 2.34375 26.1779 4.55627 23.9882 5.41199C24.1466 6.88416 24.6496 10.2869 26.1236 13.9252C28.6743 20.2203 32.7789 24.223 38.3247 25.8221C38.7135 25.9338 39.0225 26.189 39.168 26.5173C39.6874 27.6904 43.6079 36.6229 44.7759 41.5283C45.6406 40.8508 46.6987 39.9078 47.6711 38.728C50.443 35.3632 51.2535 31.723 50.0812 27.9077C49.8893 27.2815 50.3267 26.6406 51.0587 26.4764ZM25.0784 24.2096C25.5864 24.8572 26.1957 25.2209 26.9905 25.3522L29.9414 25.5182C30.5036 25.5499 30.9859 25.8734 31.1572 26.333L32.6854 30.448C34.0196 30.3308 36.5496 30.3174 37.8873 30.3247C37.5235 29.4574 37.166 28.6243 36.8285 27.8534C31.0309 25.9821 26.551 21.6797 23.8113 15.3522C23.4902 18.6194 23.588 22.3114 25.0784 24.2096Z" fill="#0089CF"/>
</svg>
