<svg width="80" height="80" viewBox="0 0 80 80" fill="none" xmlns="http://www.w3.org/2000/svg">
<path fill-rule="evenodd" clip-rule="evenodd" d="M0 40C0 17.9086 17.9086 0 40 0C62.081 0.0249827 79.975 17.919 80 40C80 62.0914 62.0914 80 40 80C17.9086 80 0 62.0914 0 40ZM2.66667 40C2.66667 60.6186 19.3814 77.3333 40 77.3333C60.6089 77.3098 77.3098 60.6089 77.3333 40C77.3333 19.3814 60.6186 2.66667 40 2.66667C19.3814 2.66667 2.66667 19.3814 2.66667 40Z" fill="#0089CF"/>
<path d="M40.4 72.5231C22.6589 72.5231 8.27693 58.1411 8.27693 40.4C8.27693 22.6589 22.6589 8.2769 40.4 8.2769V5.59998C21.1805 5.59998 5.60001 21.1805 5.60001 40.4C5.60001 59.6195 21.1805 75.2 40.4 75.2C59.6195 75.2 75.2 59.6195 75.2 40.4H72.5231C72.5024 58.1325 58.1325 72.5024 40.4 72.5231Z" fill="#DB4580"/>
<path d="M43.2 5.59998H45.6V7.99998H43.2V5.59998Z" fill="#0089CF"/>
<path d="M72 35.2H74.4V37.6H72V35.2Z" fill="#0089CF"/>
<path d="M28 29.3333C27.2636 29.3333 26.6667 28.7364 26.6667 28H24C24 30.2091 25.7909 32 28 32C30.2091 32 32 30.2091 32 28H29.3333C29.3333 28.7364 28.7364 29.3333 28 29.3333Z" fill="#0089CF"/>
<path fill-rule="evenodd" clip-rule="evenodd" d="M37.2267 26.6667H40V29.3333H37.2267C37.0059 30.8738 36.4006 32.3339 35.4667 33.5787L38.276 36.3933L36.3907 38.2787L33.5787 35.4667C32.3339 36.4006 30.8738 37.0059 29.3333 37.2267V40H26.6667V37.2267C25.1262 37.0059 23.6661 36.4006 22.4213 35.4667L19.6067 38.276L17.7213 36.3907L20.5333 33.5787C19.5994 32.3339 18.9941 30.8738 18.7733 29.3333H16V26.6667H18.7733C18.9941 25.1262 19.5994 23.6661 20.5333 22.4213L17.724 19.6067L19.6093 17.7213L22.4213 20.5333C23.6661 19.5994 25.1262 18.9941 26.6667 18.7733V16H29.3333V18.7733C30.8738 18.9941 32.3339 19.5994 33.5787 20.5333L36.3933 17.724L38.2787 19.6093L35.4667 22.4213C36.4006 23.6661 37.0059 25.1262 37.2267 26.6667ZM28 34.6667C31.6819 34.6667 34.6667 31.6819 34.6667 28C34.6623 24.3199 31.6801 21.3377 28 21.3333C24.3181 21.3333 21.3333 24.3181 21.3333 28C21.3333 31.6819 24.3181 34.6667 28 34.6667Z" fill="#0089CF"/>
<path fill-rule="evenodd" clip-rule="evenodd" d="M43.3213 56.3907L46.1333 53.5787C45.1994 52.3339 44.5941 50.8738 44.3733 49.3333H41.6V46.6667H44.3733C44.5941 45.1262 45.1994 43.6661 46.1333 42.4213L43.324 39.6067L45.2093 37.7213L48.0213 40.5333C49.2661 39.5994 50.7262 38.9941 52.2667 38.7733V36H54.9333V38.7733C56.4738 38.9941 57.9339 39.5994 59.1787 40.5333L61.9933 37.724L63.8787 39.6093L61.0667 42.4213C62.0007 43.6661 62.606 45.1262 62.8267 46.6667H65.6V49.3333H62.8267C62.606 50.8738 62.0007 52.3339 61.0667 53.5787L63.876 56.3933L61.9907 58.2787L59.1787 55.4667C57.9339 56.4006 56.4738 57.0059 54.9333 57.2267V60H52.2667V57.2267C50.7262 57.0059 49.2661 56.4006 48.0213 55.4667L45.2067 58.276L43.3213 56.3907ZM51.0488 41.8408C48.5576 42.8727 46.9333 45.3036 46.9333 48C46.9377 51.6801 49.9199 54.6623 53.6 54.6667C56.2964 54.6667 58.7273 53.0424 59.7592 50.5512C60.7911 48.0601 60.2207 45.1926 58.3141 43.286C56.4074 41.3793 53.5399 40.8089 51.0488 41.8408Z" fill="#DB4580"/>
<path d="M53.6 46.6667C54.3364 46.6667 54.9333 47.2636 54.9333 48H57.6C57.6 45.7909 55.8091 44 53.6 44C51.3909 44 49.6 45.7909 49.6 48H52.2667C52.2667 47.2636 52.8636 46.6667 53.6 46.6667Z" fill="#DB4580"/>
<path fill-rule="evenodd" clip-rule="evenodd" d="M66.0422 15.2993L67.9006 17.1577L65.878 19.1817C66.3441 19.8806 66.6707 20.6629 66.84 21.4857H69.6V24.1143H66.84C66.6705 24.9376 66.3434 25.7204 65.8766 26.4195L67.9006 28.4435L66.0422 30.3019L64.0182 28.2779C63.3194 28.744 62.5371 29.0707 61.7143 29.24V32H59.0857V29.24C58.2624 29.0705 57.4796 28.7433 56.7805 28.2766L54.7565 30.3006L52.8981 28.4422L54.9221 26.4182C54.456 25.7194 54.1293 24.937 53.96 24.1143H51.2V21.4857H53.96C54.1295 20.6624 54.4567 19.8796 54.9234 19.1804L52.8994 17.1564L54.7578 15.298L56.7818 17.322C57.4806 16.8559 58.2629 16.5293 59.0857 16.36V13.6H61.7143V16.36C62.5372 16.5297 63.3195 16.8568 64.0182 17.3233L66.0422 15.2993ZM56.7573 24.3088C57.3676 25.7822 58.8053 26.7428 60.4 26.7428C62.5776 26.7428 64.3429 24.9776 64.3429 22.8C64.3429 21.2052 63.3822 19.7675 61.9089 19.1573C60.4355 18.547 58.7396 18.8843 57.612 20.012C56.4843 21.1396 56.147 22.8355 56.7573 24.3088Z" fill="#DB4580"/>
<path fill-rule="evenodd" clip-rule="evenodd" d="M34.84 55.0857H37.6V57.7142H34.84C34.6705 58.5376 34.3434 59.3204 33.8766 60.0195L35.9006 62.0435L34.0422 63.9019L32.0182 61.8779C31.3194 62.344 30.5371 62.6707 29.7143 62.84V65.6H27.0857V62.84C26.2624 62.6704 25.4796 62.3433 24.7805 61.8766L22.7565 63.9006L20.8981 62.0422L22.9221 60.0182C22.456 59.3193 22.1293 58.537 21.96 57.7142H19.2V55.0857H21.96C22.1295 54.2623 22.4567 53.4795 22.9234 52.7804L20.8994 50.7564L22.7578 48.898L24.7818 50.922C25.4806 50.4559 26.2629 50.1292 27.0857 49.96V47.2H29.7143V49.96C30.5376 50.1295 31.3204 50.4566 32.0196 50.9233L34.0436 48.8993L35.902 50.7577L33.878 52.7817C34.3441 53.4806 34.6707 54.2629 34.84 55.0857ZM24.4572 56.4C24.4572 58.5775 26.2224 60.3428 28.4 60.3428C30.5776 60.3428 32.3429 58.5775 32.3429 56.4C32.3429 54.2224 30.5776 52.4571 28.4 52.4571C26.2224 52.4571 24.4572 54.2224 24.4572 56.4Z" fill="#0089CF"/>
<path fill-rule="evenodd" clip-rule="evenodd" d="M50.4 30.4C50.4 32.6092 48.6091 34.4 46.4 34.4C44.1909 34.4 42.4 32.6092 42.4 30.4C42.4 28.1909 44.1909 26.4 46.4 26.4C48.6091 26.4 50.4 28.1909 50.4 30.4ZM47.7333 30.4C47.7333 29.6636 47.1364 29.0667 46.4 29.0667C45.6636 29.0667 45.0667 29.6636 45.0667 30.4C45.0667 31.1364 45.6636 31.7334 46.4 31.7334C47.1364 31.7334 47.7333 31.1364 47.7333 30.4Z" fill="#DB4580"/>
<path fill-rule="evenodd" clip-rule="evenodd" d="M42.4 69.6C40.1909 69.6 38.4 67.8091 38.4 65.6C38.4 63.3908 40.1909 61.6 42.4 61.6C44.6091 61.6 46.4 63.3908 46.4 65.6C46.4 67.8091 44.6091 69.6 42.4 69.6ZM43.7333 65.6C43.7333 64.8636 43.1364 64.2666 42.4 64.2666C41.6636 64.2666 41.0667 64.8636 41.0667 65.6C41.0667 66.3364 41.6636 66.9333 42.4 66.9333C43.1364 66.9333 43.7333 66.3364 43.7333 65.6Z" fill="#0089CF"/>
<path fill-rule="evenodd" clip-rule="evenodd" d="M10.4 42.4C10.4 40.1909 12.1909 38.4 14.4 38.4C16.6091 38.4 18.4 40.1909 18.4 42.4C18.4 44.6092 16.6091 46.4 14.4 46.4C12.1909 46.4 10.4 44.6092 10.4 42.4ZM13.0667 42.4C13.0667 43.1364 13.6636 43.7334 14.4 43.7334C15.1364 43.7334 15.7333 43.1364 15.7333 42.4C15.7333 41.6636 15.1364 41.0667 14.4 41.0667C13.6636 41.0667 13.0667 41.6636 13.0667 42.4Z" fill="#0089CF"/>
<path d="M33.6 41.6H36V44H33.6V41.6Z" fill="#DB4580"/>
<path d="M44 15.2H46.4V17.6H44V15.2Z" fill="#DB4580"/>
</svg>
