<svg width="90" height="90" viewBox="0 0 90 90" fill="none" xmlns="http://www.w3.org/2000/svg">
<path fill-rule="evenodd" clip-rule="evenodd" d="M88.6501 52.4891L82.0672 56.8749C83.2256 58.8691 84.02 61.0987 84.362 63.4725H90V68.7428H84.362C84.1038 70.5415 83.5847 72.2578 82.8438 73.8506L89.0524 80.0556L85.3239 83.7819L79.8878 78.3496C77.0574 81.5317 73.1442 83.7311 68.7312 84.3652V90H63.4577V84.4936C58.1156 84.2671 52.8896 83.3516 47.8407 81.7582L44.8071 89.2287L39.9209 87.2468L42.8838 79.9513C42.8249 79.9268 42.7659 79.903 42.7068 79.8792C42.6335 79.8497 42.5602 79.8201 42.4876 79.7893C38.391 78.0579 34.5314 75.9011 30.9416 73.3434L25.7712 78.5115L22.042 74.7845L26.7565 70.0728C25.5377 69.0324 24.3546 67.944 23.2121 66.8014C20.6454 64.2369 18.3362 61.4748 16.29 58.5383L9.54849 63.0298L6.62338 58.6447L13.4644 54.0867C12.2552 51.9792 11.171 49.7942 10.2159 47.5371C9.50386 45.8551 8.87558 44.1484 8.32214 42.4218L1.68365 44.5492L0 39.53L6.93237 37.3326C6.13792 33.8156 5.66345 30.2245 5.50896 26.5798H0V21.3095H5.63805C6.27251 16.899 8.47321 12.988 11.6572 10.1593L6.22169 4.72632L9.95018 1L16.1588 7.20436C18.5161 6.11048 21.1404 5.49835 23.9062 5.49835C27.2701 5.49835 30.4259 6.40282 33.1444 7.9805L37.5327 1.40145L41.9204 4.32486L37.2945 11.2601C40.2766 14.4024 42.1648 18.5899 42.3475 23.209L49.6342 21.3884L50.9127 26.5009L42.8089 28.526C43.8883 34.0146 46.867 38.8307 51.0322 42.2585L56.0742 35.5395L60.293 38.7017L55.4597 45.1428C58.6608 46.7527 62.2726 47.6613 66.0938 47.6613C66.4281 47.6613 66.7612 47.6709 67.0908 47.6888L68.782 39.239L73.9531 40.2725L72.2619 48.7223C74.716 49.5945 76.9324 50.9711 78.7857 52.7279L85.7249 48.104L88.6501 52.4891ZM10.7227 23.9447C10.7227 54.4586 35.5621 79.2836 66.0938 79.2836C73.3633 79.2836 79.2773 73.3729 79.2773 66.1076C79.2773 58.8423 73.3633 52.9317 66.0938 52.9317C50.1011 52.9317 37.0898 39.928 37.0898 23.9447C37.0898 16.6794 31.1758 10.7687 23.9062 10.7687C16.6367 10.7687 10.7227 16.6794 10.7227 23.9447Z" fill="#DB4580"/>
<path fill-rule="evenodd" clip-rule="evenodd" d="M68.8571 26.4286C68.8571 23.5139 66.4861 21.1429 63.5714 21.1429C57.742 21.1429 53 16.4009 53 10.5714C53 4.742 57.742 0 63.5714 0C78.1443 0 90 11.8557 90 26.4286C90 32.258 85.258 37 79.4286 37C73.5991 37 68.8571 32.258 68.8571 26.4286ZM84.7143 26.4286C84.7143 14.7704 75.2296 5.28571 63.5714 5.28571C60.6567 5.28571 58.2857 7.65671 58.2857 10.5714C58.2857 13.4861 60.6567 15.8571 63.5714 15.8571C69.4009 15.8571 74.1429 20.5991 74.1429 26.4286C74.1429 29.3433 76.5139 31.7143 79.4286 31.7143C82.3433 31.7143 84.7143 29.3433 84.7143 26.4286Z" fill="#DB4580"/>
<path fill-rule="evenodd" clip-rule="evenodd" d="M16 24C16 19.5889 19.5889 16 24 16C28.4111 16 32 19.5889 32 24C32 28.4111 28.4111 32 24 32C19.5889 32 16 28.4111 16 24ZM21.3333 24C21.3333 25.4701 22.5299 26.6667 24 26.6667C25.4701 26.6667 26.6667 25.4701 26.6667 24C26.6667 22.5299 25.4701 21.3333 24 21.3333C22.5299 21.3333 21.3333 22.5299 21.3333 24Z" fill="#0089CF"/>
<path fill-rule="evenodd" clip-rule="evenodd" d="M58 66C58 61.5889 61.5889 58 66 58C70.4111 58 74 61.5889 74 66C74 70.4111 70.4111 74 66 74C61.5889 74 58 70.4111 58 66ZM63.3333 66C63.3333 67.4701 64.5299 68.6667 66 68.6667C67.4701 68.6667 68.6667 67.4701 68.6667 66C68.6667 64.5299 67.4701 63.3333 66 63.3333C64.5299 63.3333 63.3333 64.5299 63.3333 66Z" fill="#0089CF"/>
<path d="M23.5003 43L20 39.5003L23.5003 36L27 39.5003L23.5003 43Z" fill="#DB4580"/>
<path d="M34.5003 59L31 55.5003L34.5003 52L38 55.5003L34.5003 59Z" fill="#DB4580"/>
<path d="M50.5003 70L47 66.4997L50.5003 63L54 66.4997L50.5003 70Z" fill="#DB4580"/>
<path d="M47.4997 52L51 55.5L47.4997 59L44 55.5L47.4997 52Z" fill="#DB4580"/>
<path d="M34.5003 46L31 42.5003L34.5003 39L38 42.5003L34.5003 46Z" fill="#DB4580"/>
</svg>
