<svg width="63" height="62" viewBox="0 0 63 62" fill="none" xmlns="http://www.w3.org/2000/svg">
<path fill-rule="evenodd" clip-rule="evenodd" d="M49.3838 34.4038L46.8238 36.1104C47.2743 36.8864 47.5833 37.754 47.7162 38.6776H49.9088V40.7284H47.7162C47.6158 41.4283 47.414 42.0961 47.1258 42.7159L49.5403 45.1304L48.0903 46.5803L45.9763 44.4665C44.8756 45.7048 43.3538 46.5606 41.6376 46.8073V48.9999H39.5868V46.8572C37.5093 46.7691 35.477 46.4129 33.5135 45.7929L32.3338 48.6997L30.4336 47.9286L31.5858 45.0898C31.563 45.0803 31.54 45.071 31.517 45.0617C31.4885 45.0502 31.46 45.0387 31.4318 45.0268C29.8387 44.3531 28.3377 43.5138 26.9417 42.5186L24.9309 44.5296L23.4807 43.0793L25.3141 41.2459C24.8401 40.8411 24.3801 40.4176 23.9357 39.973C22.9376 38.9751 22.0396 37.9003 21.2438 36.7577L18.6221 38.5054L17.4846 36.7991L20.145 35.0255C19.6747 34.2054 19.2531 33.3552 18.8817 32.4769C18.6048 31.8225 18.3604 31.1584 18.1452 30.4865L15.5636 31.3143L14.9088 29.3613L17.6047 28.5062C17.2958 27.1377 17.1113 25.7403 17.0512 24.3222H14.9088V22.2714H17.1014C17.3481 20.5552 18.2039 19.0334 19.4422 17.9327L17.3284 15.8186L18.7783 14.3687L21.1928 16.7829C22.1095 16.3572 23.1301 16.119 24.2057 16.119C25.5139 16.119 26.7411 16.471 27.7983 17.0849L29.5049 14.5249L31.2112 15.6624L29.4122 18.361C30.5719 19.5837 31.3063 21.2131 31.3773 23.0105L34.211 22.3021L34.7082 24.2914L31.5567 25.0794C31.9765 27.2151 33.1349 29.0891 34.7547 30.423L36.7155 27.8085L38.3561 29.0389L36.4765 31.5453C37.7214 32.1717 39.1259 32.5253 40.6119 32.5253C40.742 32.5253 40.8715 32.529 40.9997 32.536L41.6574 29.248L43.6684 29.6502L43.0107 32.9381C43.965 33.2775 44.827 33.8132 45.5477 34.4967L48.2463 32.6975L49.3838 34.4038ZM19.0787 23.2968C19.0787 35.1702 28.7385 44.83 40.6119 44.83C43.439 44.83 45.7389 42.53 45.7389 39.703C45.7389 36.876 43.439 34.5761 40.6119 34.5761C34.3926 34.5761 29.3326 29.5161 29.3326 23.2968C29.3326 20.4697 27.0327 18.1698 24.2057 18.1698C21.3787 18.1698 19.0787 20.4697 19.0787 23.2968Z" fill="#DB4580"/>
<path fill-rule="evenodd" clip-rule="evenodd" d="M41.7057 24.2539C41.7057 23.123 40.7858 22.2031 39.6549 22.2031C37.3932 22.2031 35.5533 20.3633 35.5533 18.1016C35.5533 15.8398 37.3932 14 39.6549 14C45.309 14 49.9088 18.5998 49.9088 24.2539C49.9088 26.5156 48.069 28.3555 45.8073 28.3555C43.5455 28.3555 41.7057 26.5156 41.7057 24.2539ZM47.858 24.2539C47.858 19.7307 44.1781 16.0508 39.6549 16.0508C38.524 16.0508 37.6041 16.9707 37.6041 18.1016C37.6041 19.2324 38.524 20.1523 39.6549 20.1523C41.9166 20.1523 43.7565 21.9922 43.7565 24.2539C43.7565 25.3848 44.6764 26.3047 45.8073 26.3047C46.9381 26.3047 47.858 25.3848 47.858 24.2539Z" fill="#DB4580"/>
<path fill-rule="evenodd" clip-rule="evenodd" d="M21.1295 23.2969C21.1295 21.6007 22.5095 20.2207 24.2057 20.2207C25.9019 20.2207 27.2819 21.6007 27.2819 23.2969C27.2819 24.993 25.9019 26.373 24.2057 26.373C22.5095 26.373 21.1295 24.993 21.1295 23.2969ZM23.1803 23.2969C23.1803 23.8622 23.6404 24.3223 24.2057 24.3223C24.771 24.3223 25.2311 23.8622 25.2311 23.2969C25.2311 22.7316 24.771 22.2715 24.2057 22.2715C23.6404 22.2715 23.1803 22.7316 23.1803 23.2969Z" fill="#0089CF"/>
<path fill-rule="evenodd" clip-rule="evenodd" d="M37.5358 39.7031C37.5358 38.007 38.9158 36.627 40.6119 36.627C42.3081 36.627 43.6881 38.007 43.6881 39.7031C43.6881 41.3993 42.3081 42.7793 40.6119 42.7793C38.9158 42.7793 37.5358 41.3993 37.5358 39.7031ZM39.5865 39.7031C39.5865 40.2684 40.0466 40.7285 40.6119 40.7285C41.1772 40.7285 41.6373 40.2684 41.6373 39.7031C41.6373 39.1378 41.1772 38.6777 40.6119 38.6777C40.0466 38.6777 39.5865 39.1378 39.5865 39.7031Z" fill="#0089CF"/>
<path d="M24.2057 30.8995L22.7555 29.4495L24.2057 27.9993L25.6557 29.4495L24.2057 30.8995Z" fill="#DB4580"/>
<path d="M28.3073 37.0518L26.8571 35.6018L28.3073 34.1516L29.7573 35.6018L28.3073 37.0518Z" fill="#DB4580"/>
<path d="M34.4596 41.1536L33.0094 39.7034L34.4596 38.2534L35.9096 39.7034L34.4596 41.1536Z" fill="#DB4580"/>
<path d="M33.4342 34.1511L34.8845 35.6014L33.4342 37.0516L31.9843 35.6014L33.4342 34.1511Z" fill="#DB4580"/>
<path d="M28.3073 31.9249L26.8571 30.4749L28.3073 29.0247L29.7573 30.4749L28.3073 31.9249Z" fill="#DB4580"/>
<path d="M61.4088 31C61.4088 47.2924 48.2012 60.5 31.9088 60.5C15.6164 60.5 2.40881 47.2924 2.40881 31C2.40881 14.7076 15.6164 1.5 31.9088 1.5C48.2012 1.5 61.4088 14.7076 61.4088 31Z" stroke="#0089CF" stroke-width="3"/>
</svg>
