<svg width="40" height="40" viewBox="0 0 40 40" fill="none" xmlns="http://www.w3.org/2000/svg">
<path fill-rule="evenodd" clip-rule="evenodd" d="M33.7424 16.4428H36.4284C38.3956 16.4428 40 18.0327 40 20C40 21.9673 38.4029 23.5572 36.4428 23.5572H33.7568C33.4157 24.8639 32.9075 26.0834 32.2396 27.216L34.1416 29.1179C35.5282 30.5045 35.5282 32.7549 34.1416 34.1415C33.452 34.8311 32.5371 35.1796 31.6297 35.1796C30.7223 35.1796 29.8148 34.8385 29.1179 34.1415L27.216 32.2395C26.0836 32.9002 24.8566 33.4155 23.5572 33.7495V36.4356C23.5572 38.4029 21.9673 39.9927 20 39.9927C18.0327 39.9927 16.4428 38.3956 16.4428 36.4356V33.7495C15.1361 33.4155 13.9093 32.9074 12.784 32.2395L10.882 34.1415C10.1924 34.8311 9.27768 35.1796 8.37024 35.1796C7.4628 35.1796 6.55535 34.8385 5.85844 34.1415C4.47187 32.755 4.47187 30.5045 5.85844 29.1179L7.76044 27.216C7.09256 26.0835 6.57713 24.8566 6.24319 23.5572H3.55717C1.58984 23.5572 0 21.9601 0 20C0 18.0327 1.5971 16.4428 3.55717 16.4428H6.24327C6.5772 15.1361 7.08537 13.9165 7.75325 12.784L5.85125 10.882C4.46468 9.49546 4.46468 7.24501 5.85125 5.85844C7.23782 4.47187 9.48828 4.47187 10.8748 5.85844L12.7768 7.76044C13.9093 7.09256 15.1362 6.57713 16.4356 6.24319V3.55717C16.4356 1.58984 18.0255 0 19.9928 0C21.9601 0 23.55 1.5971 23.55 3.55717V6.24319C24.8567 6.58439 26.0762 7.09256 27.2088 7.76044L29.1107 5.85844C30.4972 4.47187 32.7477 4.47187 34.1342 5.85844C35.5209 7.24501 35.5209 9.49546 34.1342 10.882L32.2323 12.784C32.8929 13.9165 33.4083 15.1434 33.7424 16.4428ZM14.3448 29.6334C14.4828 29.6334 14.6207 29.6117 14.7514 29.5681C15.4555 29.3503 15.8476 28.6025 15.6225 27.8984L14.2432 23.5572L13.5608 21.4083L13.4446 21.0454C13.2269 20.3485 12.4791 19.9564 11.775 20.1815C11.078 20.3993 10.686 21.147 10.9111 21.8512L11.441 23.5281L11.4483 23.5572L13.0744 28.7042C13.2559 29.2704 13.7786 29.6334 14.3448 29.6334ZM16.4356 16.6824L13.9165 18.9546L13.8947 18.9764C13.6407 19.2087 13.3212 19.3176 13.0018 19.3176C12.6388 19.3176 12.2759 19.1724 12.0145 18.8748C11.5426 18.3593 11.5789 17.5826 12.0508 17.0817C12.0726 17.0526 12.726 16.4428 12.726 16.4428L16.4428 13.0889L17.3212 12.2976L17.4519 12.1742C17.9964 11.6806 18.8385 11.7241 19.3321 12.2686C19.8258 12.8131 19.7822 13.6552 19.2377 14.1488L19.2015 14.1779L16.7042 16.4428L16.4356 16.6824ZM16.7985 22.127C16.5808 22.6207 16.6969 23.1797 17.0381 23.5572C17.1543 23.6878 17.3067 23.804 17.4809 23.8838C17.6552 23.9564 17.8367 23.9927 18.0181 23.9927C18.2795 23.9927 18.5263 23.9201 18.7441 23.7822C18.8385 23.7169 18.9183 23.6443 18.9982 23.5572C19.0926 23.4483 19.1797 23.3321 19.2377 23.1942L21.9745 16.9583L22.1271 16.6098C22.1451 16.5676 22.1582 16.5205 22.1704 16.4766L22.1704 16.4766L22.1779 16.4501C22.3666 15.8113 22.0618 15.1216 21.4375 14.853C20.9582 14.6425 20.4356 14.7441 20.0581 15.049C19.8984 15.1797 19.7677 15.3394 19.6806 15.5426L19.2813 16.4501L16.8857 21.9238L16.7985 22.127ZM26.0544 25.4737L23.5499 26.3375L21.8802 26.911L19.2522 27.8184C19.107 27.8693 18.9618 27.891 18.8166 27.891C18.3738 27.891 17.9673 27.6659 17.7204 27.2958C17.6551 27.2014 17.597 27.107 17.5607 26.9981C17.3212 26.3011 17.6914 25.5462 18.3811 25.2994L19.7821 24.813L20.4136 24.5952L23.441 23.5499L23.5426 23.5136L25.176 22.9473C25.7931 22.7368 26.4537 22.9981 26.7657 23.5499C26.8094 23.6225 26.8457 23.6951 26.8674 23.775C27.1143 24.4718 26.7441 25.234 26.0544 25.4737ZM26.9256 22.0617C26.9691 22.0617 27.2377 22.0254 27.3249 21.9964C28.0218 21.7713 28.4138 21.0235 28.1888 20.3122L27.3466 17.6624L26.9619 16.4356L26.0182 13.4592C25.8004 12.7622 25.0526 12.3775 24.3485 12.5953C23.9782 12.7114 23.7024 12.9728 23.5499 13.2922C23.4047 13.5898 23.3684 13.9383 23.4773 14.2722L23.5499 14.4973L24.167 16.4428L25.2269 19.7967L25.4228 20.4065L25.6552 21.1324C25.8367 21.6987 26.3593 22.0617 26.9256 22.0617Z" fill="#DB4580"/>
</svg>
