<svg width="74" height="80" viewBox="0 0 74 80" fill="none" xmlns="http://www.w3.org/2000/svg">
<path d="M36.5001 23C35.6716 23 35.0001 23.6716 35.0001 24.5C35.0001 25.3284 35.6716 26 36.5001 26C43.9559 26 50 32.0442 50 39.5C50 46.9558 43.9559 53 36.5001 53C29.0443 53 23.0001 46.9558 23.0001 39.5C22.9844 35.6301 24.6449 31.943 27.5532 29.39C27.7509 30.1138 28.4531 30.5801 29.1969 30.4816C29.9407 30.3832 30.4974 29.7503 30.5001 29V26C30.5001 25.1716 29.8285 24.5 29.0001 24.5H26.0001C25.3024 24.4996 24.6966 24.9807 24.539 25.6604C24.3814 26.3402 24.7136 27.0388 25.3403 27.3455C21.9215 30.4595 19.9812 34.8756 20.0001 39.5C20.0001 48.6127 27.3874 56 36.5001 56C45.6127 56 53 48.6127 53 39.5C53 30.3873 45.6127 23 36.5001 23V23Z" fill="#DB4580"/>
<mask id="path-2-inside-1" fill="white">
<path d="M28.0001 34.6V38.2608C27.9832 43.3918 31.1469 48.0098 35.9739 49.8999C36.3116 50.0334 36.6884 50.0334 37.0261 49.8999C41.8529 48.0099 45.0165 43.3923 44.9999 38.2615V34.6C44.9999 34.1082 44.7389 33.6525 44.3121 33.3995L37.2289 29.1995C36.7802 28.9335 36.2198 28.9335 35.7711 29.1995L28.6879 33.3995C28.2611 33.6525 28.0001 34.1082 28.0001 34.6Z"/>
</mask>
<path d="M28.0001 34.6H31.0001V34.6L28.0001 34.6ZM28.0001 38.2608L31.0001 38.2707V38.2608H28.0001ZM35.9739 49.8999L37.0767 47.1099L37.0677 47.1064L35.9739 49.8999ZM37.0261 49.8999L35.9323 47.1064L35.9233 47.1099L37.0261 49.8999ZM44.9999 38.2615H41.9999L42 38.2712L44.9999 38.2615ZM44.9999 34.6L41.9999 34.6V34.6H44.9999ZM44.3121 33.3995L45.8422 30.819L45.8422 30.819L44.3121 33.3995ZM37.2289 29.1995L35.6988 31.78L35.6988 31.78L37.2289 29.1995ZM35.7711 29.1995L37.3012 31.78L37.3012 31.78L35.7711 29.1995ZM28.6879 33.3995L27.1578 30.819L27.1578 30.819L28.6879 33.3995ZM25.0001 34.6V38.2608H31.0001V34.6H25.0001ZM25.0001 38.2509C24.9791 44.6372 28.9159 50.358 34.8801 52.6934L37.0677 47.1064C33.3779 45.6616 30.9873 42.1465 31.0001 38.2707L25.0001 38.2509ZM34.8711 52.6898C35.9174 53.1034 37.0827 53.1034 38.1289 52.6898L35.9233 47.1099C36.2941 46.9634 36.7059 46.9634 37.0767 47.1099L34.8711 52.6898ZM38.1199 52.6934C44.0838 50.3581 48.0206 44.6377 47.9999 38.2518L42 38.2712C42.0125 42.1468 39.6219 45.6617 35.9323 47.1064L38.1199 52.6934ZM47.9999 38.2615V34.6H41.9999V38.2615H47.9999ZM47.9999 34.6C48 33.0375 47.1703 31.6065 45.8422 30.819L42.7821 35.98C42.3074 35.6985 41.9999 35.179 41.9999 34.6L47.9999 34.6ZM45.8422 30.819L38.759 26.619L35.6988 31.78L42.7821 35.98L45.8422 30.819ZM38.759 26.619C37.367 25.7937 35.633 25.7937 34.241 26.619L37.3012 31.78C36.8065 32.0733 36.1935 32.0733 35.6988 31.78L38.759 26.619ZM34.2411 26.619L27.1578 30.819L30.2179 35.98L37.3012 31.78L34.2411 26.619ZM27.1578 30.819C25.8297 31.6065 25.0001 33.0375 25.0001 34.6L31.0001 34.6C31.0001 35.179 30.6926 35.6985 30.2179 35.98L27.1578 30.819Z" fill="#DB4580" mask="url(#path-2-inside-1)"/>
<path fill-rule="evenodd" clip-rule="evenodd" d="M67.9592 6.03774H55.8776V4.5283C55.8776 2.02739 53.8491 0 51.3469 0C48.8447 0 46.8163 2.02739 46.8163 4.5283V6.03774H27.1837V4.5283C27.1837 2.02739 25.1552 0 22.6531 0C20.1509 0 18.1224 2.02739 18.1224 4.5283V6.03774H13.5918C10.2571 6.04148 7.55477 8.74247 7.55102 12.0755V58.8679H1.5102C0.676141 58.8679 0 59.5437 0 60.3774V66.4151C0.00468152 70.5813 3.38265 73.9576 7.55102 73.9623V78.4906C7.55102 79.3242 8.22716 80 9.06122 80H72.4898C73.3239 80 74 79.3242 74 78.4906V12.0755C73.9963 8.74247 71.2939 6.04148 67.9592 6.03774ZM70.9796 12.0755V16.6038H64.9388V12.0755C64.9388 10.4082 66.2911 9.0566 67.9592 9.0566C69.6273 9.0566 70.9796 10.4082 70.9796 12.0755ZM51.3469 3.01887C50.5129 3.01887 49.8367 3.69466 49.8367 4.5283V9.0566C49.8367 9.89024 50.5129 10.566 51.3469 10.566C52.181 10.566 52.8571 9.89024 52.8571 9.0566V4.5283C52.8571 3.69466 52.181 3.01887 51.3469 3.01887ZM21.1429 4.5283C21.1429 3.69466 21.819 3.01887 22.6531 3.01887C23.4871 3.01887 24.1633 3.69466 24.1633 4.5283V9.0566C24.1633 9.89024 23.4871 10.566 22.6531 10.566C21.819 10.566 21.1429 9.89024 21.1429 9.0566V4.5283ZM18.1224 9.0566H13.5918C11.9245 9.05858 10.5734 10.409 10.5714 12.0755V16.6038H61.9184V12.0755C61.9175 11.0151 62.198 9.97341 62.731 9.0566H55.8775C55.8775 11.5575 53.8491 13.5849 51.3469 13.5849C48.8447 13.5849 46.8163 11.5575 46.8163 9.0566H27.1837C27.1837 11.5575 25.1552 13.5849 22.6531 13.5849C20.1509 13.5849 18.1224 11.5575 18.1224 9.0566ZM10.5714 19.6226H61.9184V66.4151C61.9184 68.916 59.8899 70.9434 57.3878 70.9434C54.8856 70.9434 52.8571 68.916 52.8571 66.4151V60.3774C52.8571 59.5437 52.181 58.8679 51.3469 58.8679H10.5714V19.6226ZM3.02041 61.8868V66.4151C3.02332 68.9148 5.05004 70.9405 7.55102 70.9434H51.3505C50.3664 69.6388 49.8349 68.0489 49.8367 66.4151V61.8868H3.02041ZM10.5714 73.9623H57.3878C59.0225 73.964 60.6132 73.4325 61.9184 72.4487V76.9811H10.5714V73.9623ZM64.9388 19.6226V76.9811H70.9796V19.6226H64.9388Z" fill="#0089CF"/>
</svg>
