<svg width="95" height="80" viewBox="0 0 95 80" fill="none" xmlns="http://www.w3.org/2000/svg">
<path d="M56.3131 68.5948H49.1625C48.1448 68.5948 47.3197 69.422 47.3197 70.4427C47.3197 71.4634 48.1448 72.2906 49.1625 72.2906H56.3131C57.4167 72.2906 58.3146 73.1908 58.3146 74.2974C58.3146 75.404 57.4169 76.3042 56.3131 76.3042H37.0642C34.1707 76.3042 31.4497 75.025 29.5993 72.7944L24.9961 67.2461C22.5261 64.2689 18.9314 62.5252 15.0851 62.4149V51.4989H21.8702C25.2163 51.4989 28.3846 52.7822 30.7917 55.1123L40.7269 64.7287C41.4293 65.4086 41.4621 66.547 40.7999 67.2663C40.125 67.9992 38.9794 68.0471 38.2461 67.3731L30.446 60.2033C29.6961 59.5138 28.5302 59.5644 27.8426 60.3168C27.1548 61.0691 27.2055 62.238 27.9557 62.9276L35.7558 70.0973C36.8078 71.0642 38.139 71.5418 39.4669 71.5418C40.9494 71.5418 42.4276 70.9465 43.5082 69.7728C45.5181 67.5893 45.4188 64.1338 43.2867 62.0699L33.3515 52.4534C30.2536 49.4548 26.1762 47.8033 21.8702 47.8033H14.7271C14.0338 46.1578 12.4077 45 10.5172 45H1.8428C0.825106 45 0 45.8272 0 46.8479V60.3604C0 61.3809 0.825106 62.2083 1.8428 62.2083C2.8605 62.2083 3.68561 61.3811 3.68561 60.3604V48.6956H10.5174C11.0039 48.6956 11.3996 49.0925 11.3996 49.5803V64.3912C11.3996 64.8789 11.0039 65.2759 10.5174 65.2759H8.60344C7.58574 65.2759 6.76064 66.1031 6.76064 67.1238C6.76064 68.1443 7.58574 68.9717 8.60344 68.9717H10.5172C12.4332 68.9717 14.0762 67.7822 14.7535 66.1014C17.6263 66.1179 20.3243 67.3936 22.1629 69.6098L26.7661 75.1581C29.319 78.2353 33.0724 80 37.0642 80H56.3131C59.4487 80 62 77.4419 62 74.2974C62 71.1529 59.4487 68.5948 56.3131 68.5948Z" fill="#0089CF"/>
<path d="M93.157 17.07C92.1393 17.07 91.3142 17.8972 91.3142 18.9178V31.3046H84.4825C83.9959 31.3046 83.6002 30.9076 83.6002 30.4199V15.6089C83.6002 15.1212 83.9959 14.7242 84.4825 14.7242H86.2611C87.2788 14.7242 88.1039 13.897 88.1039 12.8763C88.1039 11.8558 87.2788 11.0284 86.2611 11.0284H84.4825C82.5665 11.0284 80.9235 12.2178 80.2462 13.8987C77.3733 13.8822 74.6754 12.6065 72.8368 10.3903L68.2336 4.84215C65.6809 1.76491 61.9273 0 57.9354 0H38.6869C35.5512 0 33 2.55811 33 5.70243C33 8.84675 35.5512 11.4049 38.6869 11.4049H46.5579C47.5756 11.4049 48.4007 10.5777 48.4007 9.55696C48.4007 8.53627 47.5756 7.70907 46.5579 7.70907H38.6869C37.5833 7.70907 36.6854 6.80887 36.6854 5.70224C36.6854 4.5958 37.5831 3.69542 38.6869 3.69542H57.9356C60.8292 3.69542 63.5502 4.97466 65.4006 7.20528L70.0038 12.7534C72.4736 15.7307 76.0685 17.4743 79.9148 17.5848V28.5009H73.1297C69.7836 28.5009 66.6153 27.2176 64.2082 24.8875L54.273 15.271C53.5706 14.5911 53.5378 13.4529 54.2 12.7334C54.8749 12.0003 56.0205 11.9526 56.7538 12.6266L64.5541 19.7964C65.3044 20.4859 66.4697 20.4353 67.1577 19.6829C67.8453 18.9306 67.7946 17.7617 67.0443 17.0722L59.2441 9.90255C57.0178 7.85618 53.5404 8.00199 51.4918 10.2271C49.4818 12.4108 49.5811 15.8663 51.7133 17.93L61.6484 27.5465C64.7463 30.5452 68.8237 32.1967 73.1297 32.1967H80.2727C80.966 33.8422 82.5921 35 84.4826 35H93.1572C94.1749 35 95 34.1728 95 33.1521V18.9175C94.9998 17.8972 94.1747 17.07 93.157 17.07Z" fill="#0089CF"/>
<path d="M59.8237 62.175C59.3714 61.1714 58.1957 60.7236 57.1954 61.177C56.1881 61.6168 55.7273 62.7919 56.166 63.8015C56.4918 64.552 57.2231 65 57.9906 65C58.2558 65 58.5251 64.9465 58.7837 64.8337C58.7921 64.8301 58.8183 64.8183 58.8265 64.8147C59.8277 64.3614 60.2759 63.1788 59.8237 62.175Z" fill="#DB4580"/>
<path d="M64.6085 59.81C63.9564 58.9224 62.7031 58.7377 61.8164 59.3882C60.9277 60.0403 60.7346 61.2912 61.3853 62.1818C61.7761 62.7165 62.3817 63 62.9961 63C63.405 63 63.8177 62.8745 64.1728 62.614C64.176 62.6118 64.1947 62.5978 64.1977 62.5956C65.0812 61.9399 65.2604 60.6972 64.6085 59.81Z" fill="#DB4580"/>
<path d="M54.9563 64.5843C54.7295 63.5082 53.6767 62.8192 52.6034 63.0418C51.5312 63.2554 50.8303 64.2976 51.0358 65.3767C51.2182 66.3339 52.0527 67 52.9893 67C53.1131 67 53.2392 66.9882 53.3652 66.964C53.3782 66.9614 53.4108 66.9548 53.424 66.952C54.4993 66.7232 55.1839 65.6637 54.9563 64.5843Z" fill="#DB4580"/>
<path fill-rule="evenodd" clip-rule="evenodd" d="M65.5264 55.658C66.2641 54.8408 67.5243 54.776 68.3416 55.5129C69.158 56.2489 69.224 57.5064 68.49 58.3236C68.0964 58.7708 67.546 59 66.9924 59C66.5312 59 66.0679 58.841 65.6913 58.5161C64.8578 57.7973 64.7649 56.5391 65.4842 55.7058L65.5264 55.658ZM67.0067 56.9926L67.2284 57.1931L67.2467 57.209L67.0067 56.9926Z" fill="#DB4580"/>
<path d="M72.5804 45.0858C71.5252 44.7663 70.4089 45.3672 70.0888 46.4206C69.7645 47.4725 70.356 48.5876 71.41 48.9113C71.6055 48.9715 71.8032 49 71.9977 49C72.8512 49 73.6414 48.4495 73.9054 47.5927L73.9138 47.5654C74.2337 46.512 73.6356 45.4051 72.5804 45.0858Z" fill="#DB4580"/>
<path d="M74.9684 35.6581C74.964 35.6328 74.9592 35.6075 74.9538 35.5822C74.7282 34.5063 73.6699 33.818 72.5904 34.0424C71.5147 34.2658 70.8231 35.3138 71.0397 36.3853C71.2229 37.3352 72.0584 38 72.9992 38C73.1161 38 73.2348 37.9898 73.3537 37.9685C74.44 37.7748 75.1628 36.7403 74.9684 35.6581Z" fill="#DB4580"/>
<path d="M73.1762 40.0078C72.08 39.9115 71.1063 40.7205 71.0093 41.8151C71.0075 41.8344 71.0047 41.8736 71.0035 41.8929C70.9387 42.9902 71.7795 43.9319 72.8817 43.9964C72.9217 43.9988 72.9613 44 73.0009 44C74.0417 44 74.9164 43.1987 74.993 42.1552C75.0842 41.0646 74.2728 40.1041 73.1762 40.0078Z" fill="#DB4580"/>
<path d="M70.9886 50.2583C70.0312 49.7179 68.8134 50.0528 68.2705 51.007L68.2428 51.0567C67.7176 52.0206 68.072 53.2346 69.04 53.7575C69.3445 53.922 69.6722 54 69.9951 54C70.699 54 71.3789 53.6282 71.7389 52.9673L70.0053 51.9859L71.7403 52.9649C72.2834 52.0107 71.947 50.7991 70.9886 50.2583Z" fill="#DB4580"/>
<path d="M37.7891 16.1057C37.2966 15.1181 36.0981 14.7176 35.1136 15.2116L35.0959 15.2204C34.1106 15.7142 33.7202 16.9104 34.2129 17.8978C34.5617 18.5974 35.2686 19 36.0014 19C36.3033 19 36.6097 18.9316 36.8971 18.7877C37.8824 18.2941 38.2815 17.0933 37.7891 16.1057Z" fill="#DB4580"/>
<path d="M42.9436 14.5263C42.6849 13.4552 41.6117 12.7968 40.543 13.0567C40.5339 13.0589 40.5057 13.0661 40.4965 13.0685C39.4332 13.3436 38.7892 14.433 39.063 15.5005C39.2942 16.4013 40.0989 17 40.9834 17C41.1472 17 41.3139 16.9794 41.4801 16.9365C42.5469 16.6768 43.2022 15.5977 42.9436 14.5263Z" fill="#DB4580"/>
<path d="M32.5588 18.7431C31.8696 17.8857 30.6149 17.751 29.7575 18.4395L30.9929 20.0048L29.7515 18.444C28.8905 19.1305 28.7484 20.3855 29.4338 21.2475C29.8276 21.7424 30.4082 22 30.9943 22C31.4292 22 31.8674 21.8579 32.2343 21.5656L32.2606 21.5445C33.1156 20.8531 33.248 19.6006 32.5588 18.7431Z" fill="#DB4580"/>
<path d="M22.5278 31.0706C21.4637 30.7815 20.366 31.4065 20.0758 32.4674C20.0708 32.4855 20.0612 32.5232 20.0566 32.5415C19.797 33.6098 20.4553 34.684 21.5266 34.9435C21.6848 34.9817 21.843 35 21.9988 35C22.8947 35 23.7088 34.3939 23.9357 33.4905C24.2096 32.4375 23.5838 31.3577 22.5278 31.0706Z" fill="#DB4580"/>
<path d="M22.1163 37.0031C21.011 36.942 20.0683 37.7781 20.0043 38.8756C20.0027 38.9013 20.0017 38.9268 20.0009 38.9523C19.9685 40.0508 20.8366 40.9662 21.9401 40.999C21.9605 40.9996 21.9805 41 22.0007 41C23.0726 41 23.9583 40.1532 23.9979 39.0811C24.0479 37.9941 23.2104 37.0665 22.1163 37.0031Z" fill="#DB4580"/>
<path d="M24.9312 26.2284C23.9553 25.7173 22.7495 26.0928 22.2377 27.0668L22.2052 27.131C21.7189 28.1176 22.1267 29.3092 23.1149 29.795C23.3978 29.9343 23.6977 30 23.9936 30C24.7263 30 25.4317 29.5952 25.7813 28.8981C26.2781 27.9274 25.9006 26.7362 24.9312 26.2284Z" fill="#DB4580"/>
<path d="M28.2797 21.4597C27.4324 20.7565 26.1752 20.8731 25.4718 21.72C25.4622 21.7318 25.4403 21.7589 25.4307 21.7707C24.7471 22.6333 24.8932 23.8849 25.7558 24.5688C26.1219 24.8592 26.5587 25 26.9926 25C27.5776 25 28.1575 24.744 28.5514 24.2532C29.2422 23.4065 29.1225 22.1592 28.2797 21.4597Z" fill="#DB4580"/>
<path d="M23.9683 43.6433C23.7737 42.5589 22.734 41.8373 21.6475 42.0316C20.5604 42.2259 19.837 43.2622 20.0316 44.3467L20.0352 44.3662C20.2084 45.3303 21.0477 46 21.9958 46C22.114 46 22.2338 45.9896 22.3542 45.9681C23.4413 45.774 24.163 44.7277 23.9683 43.6433Z" fill="#DB4580"/>
<path fill-rule="evenodd" clip-rule="evenodd" d="M48 32.6724C49.6092 30.9944 51.8675 30 54.3048 30C59.0994 30 63 33.8591 63 38.6028C63 40.9048 62.0927 43.0679 60.4449 44.6937C60.3957 44.7423 60.3438 44.7882 60.2893 44.831L49.1665 53.5965C48.8253 53.8655 48.4126 54 47.9998 54C47.5889 54 47.1781 53.8668 46.8376 53.6L36.1669 45.2418L36.1668 45.2417C36.1545 45.2319 36.1421 45.2221 36.1302 45.2121C34.141 43.5713 33 41.1624 33 38.6028C33 33.8591 36.9006 30 41.6952 30C44.1325 30 46.3906 30.9944 48 32.6724ZM47.9966 49.7822L57.8681 42.0028C58.7632 41.0853 59.2552 39.8817 59.2552 38.603C59.2552 35.9024 57.0344 33.7052 54.3048 33.7052C52.2952 33.7052 50.4995 34.8926 49.7298 36.7302C49.4397 37.4224 48.7571 37.8735 48 37.8735C47.2429 37.8735 46.5603 37.4222 46.2702 36.7302C45.5005 34.8926 43.7048 33.7052 41.6952 33.7052C38.9656 33.7052 36.7448 35.9024 36.745 38.6031C36.745 40.0529 37.3886 41.4182 38.5115 42.3528L47.9966 49.7822Z" fill="#DB4580"/>
<path d="M2 69C3.10457 69 4 68.1046 4 67C4 65.8954 3.10457 65 2 65C0.89543 65 0 65.8954 0 67C0 68.1046 0.89543 69 2 69Z" fill="#DB4580"/>
<path d="M93 15C94.1046 15 95 14.1046 95 13C95 11.8954 94.1046 11 93 11C91.8954 11 91 11.8954 91 13C91 14.1046 91.8954 15 93 15Z" fill="#DB4580"/>
</svg>
