<svg width="414" height="45" viewBox="0 0 414 45" fill="none" xmlns="http://www.w3.org/2000/svg">
<path d="M7.58643 4.97702C7.53049 3.90392 7.91406 2.85472 8.64747 2.07469C9.4215 1.33558 10.4626 0.949036 11.5274 1.0054H30.0536C31.1185 0.949036 32.1596 1.33558 32.9336 2.07469C33.667 2.85472 34.0506 3.90392 33.9946 4.97702V40.1106C33.9946 42.304 32.2302 44.0822 30.0536 44.0822C27.8771 44.0822 26.1126 42.304 26.1126 40.1106V8.33762H15.4685V23.6131C15.521 26.7868 15.1298 29.9522 14.3064 33.016C13.6847 35.3865 12.6957 37.6434 11.3759 39.7032C10.3804 41.2846 9.06641 42.6377 7.51906 43.6748C6.3796 44.4795 5.0355 44.9388 3.64541 44.9987C2.67186 45.025 1.72954 44.6513 1.0349 43.9634C0.334082 43.2544 -0.0387389 42.2813 0.00754086 41.2817C-0.0397542 40.534 0.136225 39.7891 0.5128 39.1431C0.861159 38.6477 1.30867 38.2314 1.82647 37.9211C2.75954 37.3314 3.61414 36.6241 4.36961 35.8165C5.1233 34.9641 5.72705 33.9883 6.15486 32.9311C6.6472 31.67 6.9865 30.3535 7.16538 29.0104C7.42531 27.2234 7.54918 25.4191 7.5359 23.6131L7.58643 4.97702Z" fill="#0089CF"/>
<path fill-rule="evenodd" clip-rule="evenodd" d="M47.1924 40.0838L49.3163 33.0976H62.6668L64.7907 40.05C65.0777 41.1297 65.628 42.1212 66.3921 42.9356C67.0979 43.6369 68.0616 44.0155 69.0555 43.9818C70.0985 43.9782 71.0957 43.5521 71.82 42.8006C72.5772 42.0802 73.0041 41.0789 72.9999 40.0331C72.995 39.4628 72.9157 38.8955 72.7639 38.3457C72.7132 38.1832 72.6595 38.0299 72.6091 37.8862C72.492 37.5523 72.3931 37.2705 72.3931 37.0463L61.7565 4.25862C61.3738 3.07936 60.6739 2.02844 59.7337 1.22116C58.6736 0.377511 57.3445 -0.0540045 55.9915 0.00617832C54.6432 -0.0576269 53.3182 0.374523 52.2662 1.22116C51.3145 2.02146 50.6075 3.07425 50.2266 4.25862L39.6068 37.0632L39.2529 38.3625C39.0879 38.9099 39.0027 39.4783 39 40.05C39.0617 42.2047 40.7921 43.937 42.9445 43.9987C43.9354 44.0253 44.8932 43.6405 45.591 42.9356C46.3549 42.1342 46.9055 41.1536 47.1924 40.0838ZM60.5934 25.504H51.4402L55.8567 10.0129H56.2275L60.5934 25.504Z" fill="#0089CF"/>
<path d="M86.8872 19.4321L100.226 2.81301L100.613 2.39334C100.824 2.17141 101.055 1.96913 101.303 1.78901C101.621 1.57063 101.959 1.38502 102.314 1.23504C102.711 1.07874 103.134 0.998987 103.56 1.00002C104.599 0.996473 105.593 1.42188 106.305 2.17511C107.062 2.8918 107.488 3.88781 107.484 4.92817C107.517 5.5706 107.372 6.20962 107.063 6.77474C106.819 7.17935 106.555 7.57153 106.272 7.94982L97.5478 18.8278L107.484 36.1016C107.686 36.4205 108.006 36.9577 108.394 37.7803C108.782 38.4856 108.99 39.2755 109 40.0801C109.002 41.1019 108.603 42.084 107.888 42.8163C107.159 43.5851 106.138 44.0117 105.076 43.9914C104.179 44.0554 103.294 43.7592 102.617 43.1689C102.172 42.7879 101.776 42.3538 101.438 41.8763L92.0406 25.4754L86.8872 32.1902V40.0465C86.8872 42.216 85.1228 43.9746 82.9463 43.9746C80.7698 43.9746 79.0054 42.216 79.0054 40.0465V4.92817C78.9494 3.86682 79.333 2.8291 80.0664 2.0576C81.7268 0.650501 84.1657 0.650501 85.8262 2.0576C86.5595 2.8291 86.9431 3.86682 86.8872 4.92817V19.4321Z" fill="#0089CF"/>
<path d="M123.147 42.9656C122.421 42.1857 122.041 41.1368 122.096 40.0639V8.33253H114.606C113.64 8.36601 112.704 7.99061 112.021 7.29586C111.338 6.6011 110.969 5.64926 111.002 4.6673C110.969 3.68533 111.338 2.73349 112.021 2.03873C112.704 1.34398 113.64 0.968584 114.606 1.00206H137.394C138.36 0.968584 139.296 1.34398 139.979 2.03873C140.662 2.73349 141.031 3.68533 140.998 4.6673C141.031 5.64926 140.662 6.6011 139.979 7.29586C139.296 7.99061 138.36 8.36601 137.394 8.33253H129.904V40.0979C129.827 41.666 128.878 43.0522 127.459 43.6694C126.039 44.2865 124.398 44.0265 123.231 42.9995L123.147 42.9656Z" fill="#0089CF"/>
<path fill-rule="evenodd" clip-rule="evenodd" d="M170.622 4.69549C169.254 3.18424 167.571 1.99079 165.693 1.19878L165.626 1.21567C161.696 -0.405225 157.285 -0.405225 153.354 1.21567C151.481 2.0079 149.805 3.20149 148.442 4.71239C147.003 6.3272 145.896 8.20995 145.185 10.2531C144.36 12.625 143.96 15.124 144.003 17.635V27.365C143.964 29.8647 144.364 32.3519 145.185 34.7132C145.892 36.7682 147 38.6628 148.442 40.2876C149.805 41.7985 151.481 42.9921 153.354 43.7843C157.285 45.4052 161.696 45.4052 165.626 43.7843C167.504 42.9923 169.186 41.7989 170.555 40.2876C171.998 38.6628 173.105 36.7682 173.813 34.7132C174.625 32.3498 175.025 29.8641 174.994 27.365V17.635C175.052 15.1229 174.676 12.6196 173.88 10.2362C173.168 8.19306 172.061 6.31031 170.622 4.69549ZM151.97 17.635C151.754 14.853 152.539 12.0853 154.182 9.83076V9.84765C155.509 8.23549 157.487 7.30162 159.575 7.30162C161.662 7.30162 163.64 8.23549 164.968 9.84765C166.601 12.0999 167.379 14.8607 167.162 17.635V27.365C167.379 30.1393 166.601 32.9001 164.968 35.1523C163.64 36.7645 161.662 37.6984 159.575 37.6984C157.487 37.6984 155.509 36.7645 154.182 35.1523C152.542 32.9023 151.758 30.1413 151.97 27.365V17.635Z" fill="#0089CF"/>
<path d="M206.432 17.6602L218.195 2.87722L218.581 2.4582C218.794 2.2327 219.031 2.03044 219.287 1.85481C219.596 1.63377 219.928 1.44823 220.278 1.3017C220.674 1.14565 221.096 1.06602 221.522 1.06705C222.559 1.05944 223.552 1.48485 224.261 2.24031C225.02 2.95416 225.452 3.94824 225.454 4.98908C225.482 5.63208 225.331 6.27021 225.017 6.83277C224.748 7.28531 224.479 7.68757 224.244 8.00602L215.523 18.867L225.488 36.0971C225.689 36.4156 225.992 36.9519 226.395 37.7732C226.783 38.4775 226.99 39.2661 227 40.0694C227 41.0974 226.596 42.0845 225.874 42.8182C225.147 43.5875 224.128 44.0138 223.068 43.9914C222.173 44.0553 221.29 43.7596 220.615 43.1702C220.171 42.7898 219.776 42.3563 219.438 41.8796L210.062 25.5881L206.432 30.1135V40.0694C206.432 42.2355 204.672 43.9914 202.5 43.9914C200.328 43.9914 198.568 42.2355 198.568 40.0694V30.0129L194.938 25.4875L185.562 41.779C185.224 42.2558 184.829 42.6892 184.386 43.0696C183.71 43.659 182.827 43.9547 181.932 43.8909C180.873 43.9133 179.853 43.487 179.126 42.7176C178.398 41.9881 177.992 40.9983 178 39.9689C178.01 39.1655 178.218 38.3769 178.605 37.6726C179.008 36.9016 179.311 36.3653 179.512 35.9966L189.427 18.8L180.722 7.93898C180.487 7.62052 180.218 7.21826 179.933 6.76572C179.625 6.20149 179.48 5.56346 179.512 4.92204C179.557 2.77465 181.292 1.04448 183.445 1.00001C183.87 0.998977 184.292 1.07861 184.688 1.23466C185.315 1.51344 185.885 1.90555 186.368 2.39116C186.511 2.51301 186.635 2.65404 186.738 2.81018L198.501 17.5932V4.97232C198.445 3.91262 198.828 2.87652 199.559 2.10622C201.216 0.701317 203.65 0.701317 205.306 2.10622C206.038 2.87652 206.421 3.91262 206.365 4.97232L206.432 17.6602Z" fill="#DB4580"/>
<path d="M241.112 27.038L254.295 4.94276C254.885 3.91983 255.571 2.95687 256.345 2.06735C257.064 1.32553 258.069 0.938435 259.095 1.00799C260.149 0.952147 261.179 1.33511 261.945 2.06735C262.67 2.84015 263.05 3.87962 262.995 4.94276V40.053C262.995 42.2261 261.249 43.9878 259.095 43.9878C256.941 43.9878 255.195 42.2261 255.195 40.053V17.9578H254.895L241.712 40.053C241.106 41.0548 240.421 42.0052 239.662 42.8948C238.952 43.6529 237.944 44.0533 236.912 43.9878C235.853 44.0753 234.81 43.689 234.059 42.9312C233.308 42.1735 232.925 41.121 233.012 40.053V4.94276C232.957 3.87962 233.336 2.84015 234.062 2.06735C235.705 0.657882 238.119 0.657882 239.762 2.06735C240.488 2.84015 240.867 3.87962 240.812 4.94276V27.038H241.112Z" fill="#0089CF"/>
<path d="M279.776 40.0632C279.776 42.2374 278.036 44 275.89 44C273.745 44 272.005 42.2374 272.005 40.0632V4.93457C271.95 3.87087 272.328 2.83086 273.051 2.05766C274.688 0.647448 277.093 0.647448 278.73 2.05766C279.453 2.83086 279.831 3.87087 279.776 4.93457V18.8649H293.224V4.93457C293.169 3.87087 293.547 2.83086 294.27 2.05766C295.907 0.647448 298.312 0.647448 299.949 2.05766C300.672 2.83086 301.05 3.87087 300.995 4.93457V40.0632C300.995 42.2374 299.255 44 297.11 44C294.964 44 293.224 42.2374 293.224 40.0632V25.5272H279.776V40.0632Z" fill="#0089CF"/>
<path fill-rule="evenodd" clip-rule="evenodd" d="M316.384 33.0622H329.734L331.808 39.9989C332.089 41.081 332.64 42.074 333.409 42.885C334.107 43.59 335.065 43.9749 336.056 43.9483C338.208 43.8866 339.938 42.154 340 39.9989C339.997 39.4271 339.912 38.8586 339.747 38.3112C339.695 38.1267 339.638 37.9541 339.584 37.794C339.481 37.4852 339.393 37.2228 339.393 37.0116L328.757 4.25202C328.369 3.07061 327.663 2.0193 326.717 1.21404C324.49 -0.404679 321.476 -0.404679 319.249 1.21404C318.309 2.02145 317.609 3.07256 317.227 4.25202L306.607 37.0622C306.523 37.3829 306.405 37.8217 306.236 38.3618C306.084 38.9117 306.005 39.4791 306 40.0496C305.996 41.0956 306.423 42.097 307.18 42.8175C307.902 43.5724 308.901 43.9992 309.945 43.999C310.93 44.0228 311.882 43.6381 312.574 42.9357C313.369 42.1304 313.949 41.1379 314.26 40.0496L316.384 33.0622ZM327.593 25.4673H318.508L322.857 9.97355H323.211L327.593 25.4673Z" fill="#0089CF"/>
<path d="M350.581 4.97763C350.526 3.9046 350.909 2.85547 351.642 2.07549C352.42 1.33204 353.467 0.945178 354.538 1.00628H373.055C374.12 0.949917 375.16 1.33644 375.934 2.07549C376.667 2.85547 377.051 3.9046 376.995 4.97763V40.1088C376.995 42.3021 375.231 44.0801 373.055 44.0801C370.88 44.0801 369.116 42.3021 369.116 40.1088V8.338H358.51V23.6124C358.567 26.785 358.181 29.9499 357.366 33.0146C356.739 35.3861 355.745 37.6428 354.42 39.7014C353.43 41.2816 352.123 42.6346 350.581 43.6728C349.436 44.4779 348.087 44.9371 346.693 44.9966C345.702 45.0404 344.739 44.6629 344.038 43.9561C343.337 43.2494 342.963 42.2783 343.006 41.2798C342.964 40.5304 343.146 39.7855 343.528 39.1414C343.87 38.6468 344.312 38.2305 344.824 37.9194C345.762 37.3299 346.622 36.6227 347.383 35.815C348.136 34.9626 348.74 33.9869 349.167 32.9298C349.665 31.6494 350.021 30.3176 350.228 28.9584C350.481 27.1711 350.599 25.3669 350.581 23.5615V4.97763Z" fill="#0089CF"/>
<path fill-rule="evenodd" clip-rule="evenodd" d="M385.005 40.0343C384.949 41.1055 385.336 42.1529 386.075 42.9315C386.827 43.6394 387.828 44.023 388.861 43.9989H398.645C400.738 44.0232 402.815 43.6375 404.759 42.8637C406.587 42.182 408.261 41.1454 409.685 39.814C411.057 38.5073 412.144 36.9328 412.878 35.1886C415.161 29.7971 413.893 23.561 409.685 19.4825C408.265 18.1719 406.604 17.1478 404.793 16.4666C402.849 15.6929 400.772 15.3072 398.679 15.3315H392.87V4.96237C392.949 3.9033 392.593 2.85755 391.884 2.06513C390.21 0.644957 387.75 0.644957 386.075 2.06513C385.336 2.8438 384.949 3.89116 385.005 4.96237V40.0343ZM405.744 29.6482C405.834 31.5276 405.153 33.3624 403.859 34.7311C402.475 36.0624 400.599 36.7618 398.679 36.6626H392.87V22.6339H398.713C400.623 22.4723 402.507 23.1592 403.862 24.5113C405.218 25.8634 405.907 27.743 405.744 29.6482Z" fill="#0089CF"/>
</svg>
