<svg width="121" height="69" viewBox="0 0 121 69" fill="none" xmlns="http://www.w3.org/2000/svg">
<path fill-rule="evenodd" clip-rule="evenodd" d="M0 57V57.9251H0.993696V65.0822H0V66H3V65.0822H2.0063V57.9251H3V57H0Z" fill="#007FBA"/>
<path fill-rule="evenodd" clip-rule="evenodd" d="M9.03872 66.3098H8.17072V62.6513C8.17072 62.3574 8.15672 62.0807 8.12872 61.8196C8.09917 61.5586 8.05094 61.3615 7.97783 61.2145C7.8985 61.0537 7.7865 60.9327 7.64494 60.8532C7.50339 60.7753 7.31672 60.7356 7.0865 60.7356C6.85005 60.7356 6.60428 60.8082 6.34605 60.9534C6.08939 61.1004 5.8405 61.2871 5.60561 61.5119V66.3098H4.73761V59.8884H5.60561V60.6007C5.87783 60.3206 6.15472 60.1028 6.44405 59.9472C6.73183 59.7898 7.02894 59.7138 7.33228 59.7138C7.8845 59.7138 8.31072 59.9178 8.60005 60.3396C8.89094 60.7546 9.03872 61.3597 9.03872 62.1412V66.3098Z" fill="#007FBA"/>
<path fill-rule="evenodd" clip-rule="evenodd" d="M15.0125 66.3098H14.1445V62.6513C14.1445 62.3574 14.1274 62.0807 14.1025 61.8196C14.073 61.5586 14.0248 61.3615 13.9516 61.2145C13.8723 61.0537 13.7603 60.9327 13.6188 60.8532C13.4725 60.7753 13.2905 60.7356 13.0572 60.7356C12.8239 60.7356 12.5781 60.8082 12.3199 60.9534C12.0616 61.1004 11.8174 61.2871 11.5794 61.5119V66.3098H10.7114V59.8884H11.5794V60.6007C11.8516 60.3206 12.1285 60.1028 12.4179 59.9472C12.7056 59.7898 12.9981 59.7138 13.3061 59.7138C13.8583 59.7138 14.2845 59.9178 14.5739 60.3396C14.8648 60.7546 15.0125 61.3597 15.0125 62.1412V66.3098Z" fill="#007FBA"/>
<path fill-rule="evenodd" clip-rule="evenodd" d="M21.0669 63.1034C21.0669 64.1477 20.8522 64.9759 20.4213 65.581C19.992 66.1862 19.4196 66.4887 18.6962 66.4887C17.9667 66.4887 17.3911 66.1862 16.9602 65.581C16.5371 64.9759 16.3224 64.1477 16.3224 63.1034C16.3224 62.0574 16.5371 61.2257 16.9602 60.6189C17.3911 60.0155 17.9667 59.7112 18.6962 59.7112C19.4196 59.7112 19.992 60.0155 20.4213 60.6189C20.8522 61.2257 21.0669 62.0574 21.0669 63.1034ZM20.1771 63.1034C20.1771 62.2718 20.0449 61.6528 19.7836 61.2517C19.5238 60.8471 19.1598 60.6448 18.6962 60.6448C18.2264 60.6448 17.864 60.8471 17.6042 61.2517C17.3444 61.6528 17.2122 62.2718 17.2122 63.1034C17.2122 63.9057 17.3444 64.516 17.6042 64.9344C17.8656 65.3493 18.2296 65.5534 18.6962 65.5534C19.1551 65.5534 19.5176 65.3511 19.7836 64.9396C20.0449 64.5246 20.1771 63.9126 20.1771 63.1034Z" fill="#007FBA"/>
<path fill-rule="evenodd" clip-rule="evenodd" d="M26.7977 59.887L24.7148 66.3101H23.8437L21.7733 59.887H22.7066L24.3088 65.0013L25.8908 59.887H26.7977Z" fill="#007FBA"/>
<path fill-rule="evenodd" clip-rule="evenodd" d="M31.7523 66.3098H30.8843V65.6268C30.805 65.6925 30.7023 65.7824 30.5748 65.9035C30.4425 66.0193 30.3165 66.1092 30.1952 66.1801C30.0521 66.2683 29.8856 66.3444 29.699 66.398C29.5123 66.4585 29.2961 66.4896 29.0456 66.4896C28.5836 66.4896 28.1916 66.2994 27.8712 65.9121C27.5523 65.5335 27.3905 65.0407 27.3905 64.4494C27.3905 63.9618 27.4745 63.5659 27.6379 63.2685C27.8059 62.9659 28.0454 62.7291 28.3534 62.5579C28.6645 62.3867 29.0394 62.2692 29.4765 62.2069C29.9121 62.1481 30.3819 62.0997 30.8843 62.0686V61.9044C30.8843 61.6571 30.847 61.4548 30.7801 61.2975C30.7148 61.135 30.6121 61.0105 30.4845 60.9171C30.3601 60.8307 30.2154 60.7684 30.0459 60.7408C29.8732 60.7096 29.6928 60.6941 29.5076 60.6941C29.2821 60.6941 29.0301 60.7304 28.7501 60.803C28.4748 60.8791 28.187 60.9897 27.8899 61.128H27.8448V60.0302C28.0143 59.9696 28.2539 59.9091 28.5743 59.8382C28.8916 59.7691 29.209 59.7345 29.5185 59.7345C29.8779 59.7345 30.1952 59.7743 30.4612 59.8503C30.7303 59.9195 30.9621 60.0492 31.1581 60.2273C31.351 60.4071 31.4988 60.6353 31.5983 60.9119C31.7025 61.192 31.7523 61.5413 31.7523 61.9545V66.3098ZM30.8843 64.7347V62.9435C30.6199 62.9625 30.3119 62.9936 29.9572 63.0299C29.6025 63.0662 29.3179 63.1216 29.111 63.1976C28.8652 63.2841 28.6645 63.4241 28.5121 63.6074C28.3581 63.7941 28.2819 64.0483 28.2819 64.3751C28.2819 64.7485 28.3705 65.0252 28.5463 65.2102C28.7252 65.3969 28.9959 65.4868 29.3568 65.4868C29.6616 65.4868 29.937 65.4124 30.1859 65.2672C30.4379 65.1202 30.6696 64.9387 30.8843 64.7347Z" fill="#007FBA"/>
<path fill-rule="evenodd" clip-rule="evenodd" d="M36.0894 66.2574C35.9276 66.3075 35.7503 66.3525 35.5558 66.3853C35.366 66.4199 35.1949 66.4389 35.0456 66.4389C34.5198 66.4389 34.1216 66.2591 33.8478 65.9099C33.574 65.5554 33.4403 64.9901 33.4403 64.2103V60.8008H32.8554V59.8861H33.4403V58.0379H34.3083V59.8861H36.0894V60.8008H34.3083V63.7296C34.3083 64.0651 34.3114 64.3313 34.3254 64.5198C34.3394 64.7082 34.3814 64.8881 34.4529 65.0558C34.5198 65.2062 34.6147 65.3186 34.7314 65.3895C34.8496 65.4586 35.03 65.4984 35.2727 65.4984C35.4096 65.4984 35.5589 65.4725 35.7114 65.4189C35.8654 65.3687 35.9758 65.3255 36.0458 65.2926H36.0894V66.2574Z" fill="#007FBA"/>
<path fill-rule="evenodd" clip-rule="evenodd" d="M37.0902 58.8138H38.0655V57.6952H37.0902V58.8138ZM37.1415 66.3107H38.0095V59.8893H37.1415V66.3107Z" fill="#007FBA"/>
<path fill-rule="evenodd" clip-rule="evenodd" d="M44.0326 66.3098H43.1631V62.6513C43.1631 62.3574 43.1491 62.0807 43.1211 61.8196C43.0946 61.5586 43.0449 61.3615 42.9718 61.2145C42.8924 61.0537 42.7851 60.9327 42.6389 60.8532C42.4926 60.7753 42.3106 60.7356 42.0773 60.7356C41.8455 60.7356 41.5982 60.8082 41.34 60.9534C41.0833 61.1004 40.8375 61.2871 40.6042 61.5119V66.3098H39.7315V59.8884H40.6042V60.6007C40.8718 60.3206 41.1486 60.1028 41.4411 59.9472C41.7273 59.7898 42.0229 59.7138 42.3262 59.7138C42.8815 59.7138 43.3062 59.9178 43.5955 60.3396C43.8864 60.7546 44.0326 61.3597 44.0326 62.1412V66.3098Z" fill="#007FBA"/>
<path fill-rule="evenodd" clip-rule="evenodd" d="M49.8773 65.5788C49.8773 66.6646 49.6767 67.4651 49.2831 67.9734C48.8833 68.4835 48.2705 68.7393 47.4476 68.7393C47.1738 68.7393 46.9093 68.7134 46.6496 68.665C46.3898 68.6166 46.1331 68.5509 45.8811 68.4627V67.3544H45.9247C46.0662 67.4236 46.2902 67.5083 46.5998 67.612C46.9047 67.7106 47.2158 67.7642 47.5207 67.7642C47.8162 67.7642 48.062 67.7158 48.2549 67.6311C48.4478 67.5446 48.6002 67.4201 48.7076 67.2663C48.8149 67.1158 48.8911 66.9326 48.9378 66.7285C48.9829 66.5159 49.0093 66.2842 49.0093 66.0231V65.4405C48.7449 65.7015 48.4976 65.8969 48.258 66.0231C48.0216 66.1563 47.7167 66.2168 47.348 66.2168C46.7336 66.2168 46.2451 65.9419 45.8827 65.3869C45.5233 64.8336 45.346 64.0486 45.346 63.0441C45.346 62.4908 45.4051 62.0119 45.5296 61.6091C45.6556 61.2131 45.822 60.8621 46.0367 60.5717C46.2389 60.302 46.4816 60.0893 46.7662 59.9389C47.0525 59.785 47.3402 59.7106 47.6218 59.7106C47.9173 59.7106 48.1693 59.7487 48.37 59.8213C48.5676 59.8991 48.7822 60.0132 49.0093 60.1636L49.0638 59.887H49.8773V65.5788ZM49.0093 64.5466V61.0489C48.7776 60.9175 48.5629 60.8241 48.3638 60.7688C48.1647 60.7152 47.9656 60.6875 47.7696 60.6875C47.2905 60.6875 46.9202 60.8846 46.6449 61.284C46.3696 61.6834 46.2358 62.2609 46.2358 63.0216C46.2358 63.7426 46.3338 64.2855 46.5407 64.659C46.7413 65.0324 47.0805 65.2174 47.5502 65.2174C47.8022 65.2174 48.0558 65.1569 48.3078 65.0359C48.5629 64.9131 48.7947 64.7523 49.0093 64.5466Z" fill="#007FBA"/>
<path fill-rule="evenodd" clip-rule="evenodd" d="M58.1723 58.4044H58.1272C58.0323 58.3698 57.9063 58.3335 57.7555 58.2972C57.5999 58.2626 57.4661 58.2436 57.351 58.2436C56.9792 58.2436 56.7117 58.3456 56.5437 58.5514C56.3772 58.7554 56.2932 59.1306 56.2932 59.67V59.8879H57.8457V60.799H56.3197V66.3093H55.4548V60.799H54.8715V59.8879H55.4548V59.67C55.4548 58.9145 55.6041 58.3232 55.9075 57.9134C56.2123 57.5053 56.651 57.3013 57.225 57.3013C57.4179 57.3013 57.5921 57.3117 57.7477 57.3359C57.9001 57.3584 58.0463 57.3826 58.1723 57.4137V58.4044Z" fill="#007FBA"/>
<path fill-rule="evenodd" clip-rule="evenodd" d="M63.1156 63.1034C63.1156 64.1477 62.9009 64.9759 62.47 65.581C62.0407 66.1862 61.4636 66.4887 60.748 66.4887C60.0169 66.4887 59.4398 66.1862 59.0136 65.581C58.5827 64.9759 58.3696 64.1477 58.3696 63.1034C58.3696 62.0574 58.5827 61.2257 59.0136 60.6189C59.4398 60.0155 60.0169 59.7112 60.748 59.7112C61.4636 59.7112 62.0407 60.0155 62.47 60.6189C62.9009 61.2257 63.1156 62.0574 63.1156 63.1034ZM62.2212 63.1034C62.2212 62.2718 62.0936 61.6528 61.8307 61.2517C61.5709 60.8471 61.21 60.6448 60.748 60.6448C60.2752 60.6448 59.9112 60.8471 59.6529 61.2517C59.3932 61.6528 59.2609 62.2718 59.2609 63.1034C59.2609 63.9057 59.3932 64.516 59.6529 64.9344C59.9143 65.3493 60.2767 65.5534 60.748 65.5534C61.2038 65.5534 61.5678 65.3511 61.8307 64.9396C62.0936 64.5246 62.2212 63.9126 62.2212 63.1034Z" fill="#007FBA"/>
<path fill-rule="evenodd" clip-rule="evenodd" d="M67.6729 61.0672H67.6278C67.4971 61.0309 67.3727 60.998 67.2513 60.9859C67.1316 60.9652 66.99 60.9583 66.822 60.9583C66.5544 60.9583 66.2962 61.0309 66.0473 61.1778C65.7984 61.3248 65.5589 61.5167 65.3302 61.7501V66.3094H64.4622V59.8863H65.3302V60.8372C65.674 60.4897 65.9773 60.2459 66.2418 60.1024C66.5031 59.9572 66.7676 59.8863 67.0444 59.8863C67.1922 59.8863 67.3027 59.8932 67.3727 59.9036C67.4364 59.914 67.5391 59.9313 67.6729 59.9537V61.0672Z" fill="#007FBA"/>
<path fill-rule="evenodd" clip-rule="evenodd" d="M80.3634 57.7477L78.5808 66.3113H77.5525L76.1074 59.2035L74.6996 66.3113H73.6948L71.881 57.7477H72.8112L74.2563 64.8676L75.675 57.7477H76.6021L78.0363 64.9385L79.4736 57.7477H80.3634Z" fill="#007FBA"/>
<path fill-rule="evenodd" clip-rule="evenodd" d="M85.4949 63.2149H81.7025C81.7025 63.6091 81.7522 63.9515 81.8425 64.2471C81.9405 64.5359 82.0742 64.7745 82.2407 64.9629C82.3962 65.1462 82.5876 65.2845 82.8085 65.3744C83.0247 65.4678 83.2674 65.511 83.5349 65.511C83.8849 65.511 84.2365 65.4228 84.5927 65.2499C84.9442 65.0736 85.2009 64.9024 85.3487 64.7347H85.3985V65.9139C85.106 66.0677 84.8058 66.1957 84.5009 66.3029C84.1976 66.4032 83.8787 66.4516 83.5442 66.4516C82.6902 66.4516 82.026 66.168 81.5454 65.5923C81.0647 65.0165 80.8251 64.1935 80.8251 63.1354C80.8251 62.0842 81.0538 61.2525 81.5142 60.6353C81.9731 60.0198 82.5782 59.7138 83.328 59.7138C84.0249 59.7138 84.5554 59.9645 84.9302 60.4728C85.3067 60.9776 85.4949 61.6934 85.4949 62.6305V63.2149ZM84.6502 62.3833C84.6471 61.8162 84.532 61.377 84.3034 61.0675C84.0794 60.7529 83.7356 60.6007 83.2798 60.6007C82.8116 60.6007 82.4445 60.7684 82.1707 61.1142C81.8954 61.4548 81.7367 61.8802 81.7025 62.3833H84.6502Z" fill="#007FBA"/>
<path fill-rule="evenodd" clip-rule="evenodd" d="M86.8104 66.3106H87.68V57.3632H86.8104V66.3106Z" fill="#007FBA"/>
<path fill-rule="evenodd" clip-rule="evenodd" d="M89.402 66.3106H90.2684V57.3632H89.402V66.3106Z" fill="#007FBA"/>
<path fill-rule="evenodd" clip-rule="evenodd" d="M91.8411 63.0861H94.722V62.0418H91.8411V63.0861Z" fill="#007FBA"/>
<path fill-rule="evenodd" clip-rule="evenodd" d="M100.813 63.051C100.813 63.5853 100.753 64.0711 100.631 64.5016C100.51 64.9321 100.345 65.2883 100.135 65.5805C99.9236 65.8814 99.6794 66.1096 99.4196 66.2617C99.1583 66.4121 98.8721 66.4899 98.5594 66.4899C98.267 66.4899 98.0118 66.445 97.7941 66.3568C97.5778 66.2721 97.3585 66.158 97.147 66.011L97.091 66.3101H96.2774V57.361H97.147V60.5648C97.3896 60.3158 97.6478 60.1083 97.9216 59.951C98.1938 59.7919 98.505 59.7106 98.841 59.7106C99.4523 59.7106 99.933 60.0011 100.281 60.5838C100.635 61.1699 100.813 61.9894 100.813 63.051ZM99.9205 63.077C99.9205 62.3058 99.8194 61.7284 99.6187 61.3324C99.4134 60.9348 99.0852 60.7342 98.6356 60.7342C98.3805 60.7342 98.1223 60.8016 97.8656 60.9417C97.6074 61.08 97.371 61.2546 97.147 61.4673V65.1431C97.3958 65.2831 97.6027 65.3782 97.7816 65.4318C97.9574 65.4854 98.1581 65.5114 98.3852 65.5114C98.8627 65.5114 99.2392 65.3177 99.5098 64.927C99.7836 64.5293 99.9205 63.9172 99.9205 63.077Z" fill="#007FBA"/>
<path fill-rule="evenodd" clip-rule="evenodd" d="M106.468 63.2149H102.674C102.674 63.6091 102.719 63.9515 102.815 64.2471C102.91 64.5359 103.041 64.7745 103.207 64.9629C103.369 65.1462 103.56 65.2845 103.776 65.3744C104 65.4678 104.237 65.511 104.504 65.511C104.858 65.511 105.209 65.4228 105.562 65.2499C105.917 65.0736 106.174 64.9024 106.321 64.7347H106.368V65.9139C106.076 66.0677 105.778 66.1957 105.474 66.3029C105.17 66.4032 104.851 66.4516 104.517 66.4516C103.66 66.4516 102.999 66.168 102.518 65.5923C102.034 65.0165 101.795 64.1935 101.795 63.1354C101.795 62.0842 102.028 61.2525 102.484 60.6353C102.943 60.0198 103.548 59.7138 104.298 59.7138C104.991 59.7138 105.526 59.9645 105.903 60.4728C106.276 60.9776 106.468 61.6934 106.468 62.6305V63.2149ZM105.617 62.3833C105.617 61.8162 105.502 61.377 105.276 61.0675C105.052 60.7529 104.708 60.6007 104.249 60.6007C103.784 60.6007 103.414 60.7684 103.14 61.1142C102.865 61.4548 102.712 61.8802 102.674 62.3833H105.617Z" fill="#007FBA"/>
<path fill-rule="evenodd" clip-rule="evenodd" d="M107.731 58.8138H108.706V57.6952H107.731V58.8138ZM107.782 66.3107H108.649V59.8893H107.782V66.3107Z" fill="#007FBA"/>
<path fill-rule="evenodd" clip-rule="evenodd" d="M114.671 66.3098H113.801V62.6513C113.801 62.3574 113.79 62.0807 113.759 61.8196C113.734 61.5586 113.683 61.3615 113.61 61.2145C113.535 61.0537 113.422 60.9327 113.279 60.8532C113.134 60.7753 112.952 60.7356 112.72 60.7356C112.487 60.7356 112.238 60.8082 111.981 60.9534C111.723 61.1004 111.48 61.2871 111.241 61.5119V66.3098H110.371V59.8884H111.241V60.6007C111.511 60.3206 111.787 60.1028 112.079 59.9472C112.365 59.7898 112.663 59.7138 112.966 59.7138C113.52 59.7138 113.944 59.9178 114.234 60.3396C114.525 60.7546 114.671 61.3597 114.671 62.1412V66.3098Z" fill="#007FBA"/>
<path fill-rule="evenodd" clip-rule="evenodd" d="M120.516 65.5788C120.516 66.6646 120.319 67.4651 119.92 67.9734C119.522 68.4835 118.912 68.7393 118.088 68.7393C117.813 68.7393 117.548 68.7134 117.29 68.665C117.029 68.6166 116.77 68.5509 116.518 68.4627V67.3544H116.567C116.707 67.4236 116.928 67.5083 117.239 67.612C117.548 67.7106 117.855 67.7642 118.164 67.7642C118.457 67.7642 118.706 67.7158 118.897 67.6311C119.091 67.5446 119.241 67.4201 119.346 67.2663C119.455 67.1158 119.532 66.9326 119.58 66.7285C119.626 66.5159 119.647 66.2842 119.647 66.0231V65.4405C119.385 65.7015 119.136 65.8969 118.9 66.0231C118.664 66.1563 118.356 66.2168 117.988 66.2168C117.374 66.2168 116.886 65.9419 116.522 65.3869C116.165 64.8336 115.983 64.0486 115.983 63.0441C115.983 62.4908 116.044 62.0119 116.172 61.6091C116.296 61.2131 116.464 60.8621 116.679 60.5717C116.879 60.302 117.122 60.0893 117.411 59.9389C117.691 59.785 117.979 59.7106 118.262 59.7106C118.559 59.7106 118.808 59.7487 119.009 59.8213C119.213 59.8991 119.426 60.0132 119.647 60.1636L119.703 59.887H120.516V65.5788ZM119.647 64.5466V61.0489C119.42 60.9175 119.203 60.8241 119.003 60.7688C118.808 60.7152 118.604 60.6875 118.41 60.6875C117.937 60.6875 117.558 60.8846 117.284 61.284C117.01 61.6834 116.873 62.2609 116.873 63.0216C116.873 63.7426 116.974 64.2855 117.18 64.659C117.38 65.0324 117.718 65.2174 118.189 65.2174C118.441 65.2174 118.693 65.1569 118.948 65.0359C119.203 64.9131 119.435 64.7523 119.647 64.5466Z" fill="#007FBA"/>
<path fill-rule="evenodd" clip-rule="evenodd" d="M0.173767 51.5539H13.6947V0.607986H0.173767V51.5539Z" fill="#007FBA"/>
<path fill-rule="evenodd" clip-rule="evenodd" d="M30.9473 51.5539H44.4713V0.607986H30.9473V51.5539Z" fill="#007FBA"/>
<path fill-rule="evenodd" clip-rule="evenodd" d="M24.5328 0.609711H15.8482V24.3105H24.5328C27.35 24.3105 28.7951 21.3263 28.7951 18.5997V6.32569C28.7951 3.59565 27.35 0.609711 24.5328 0.609711Z" fill="#007FBA"/>
<path fill-rule="evenodd" clip-rule="evenodd" d="M24.5328 27.224H15.8482V51.5523H24.5328C27.35 51.5523 28.7951 48.4903 28.7951 45.6928V33.0921C28.7951 30.2877 27.35 27.224 24.5328 27.224Z" fill="#007FBA"/>
<path fill-rule="evenodd" clip-rule="evenodd" d="M51.1649 12.0827H55.1253C56.7944 12.0827 58.0482 12.1587 59.0189 12.9696C59.9833 13.7632 60.5589 15.1222 60.5589 16.699C60.5589 18.5767 59.7671 19.882 58.2909 20.3783C60.1156 20.6981 61.2387 22.3545 61.2387 24.7266C61.2387 26.1824 60.7549 27.5103 59.9616 28.399C58.8416 29.6646 57.3498 29.7337 55.1487 29.7337H51.1649V12.0827ZM54.6431 19.538C56.9484 19.538 57.986 18.9449 57.986 17.0949C57.986 14.8974 56.9064 14.4773 54.6431 14.4773H53.6771V19.538H54.6431ZM54.5529 27.3408C55.984 27.3408 56.9936 27.2682 57.6111 26.7962C58.2256 26.3277 58.602 25.5133 58.602 24.5503C58.602 23.4385 58.182 22.5741 57.3887 22.1072C56.7944 21.7632 56.0913 21.713 55.3244 21.713H54.5529H53.6771V27.3408H54.5529Z" fill="#007FBA"/>
<path fill-rule="evenodd" clip-rule="evenodd" d="M63.8386 12.0827H72.6104V14.5274H66.3882V18.9449H72.6104V21.4658H66.3882V27.1679H72.6104V29.7337H63.8386V12.0827Z" fill="#007FBA"/>
<path fill-rule="evenodd" clip-rule="evenodd" d="M76.6811 25.1421C77.0544 26.7258 78.1091 27.5609 79.7129 27.5609C81.2529 27.5609 82.2018 26.5253 82.2018 24.9467C82.2018 23.2195 81.0351 22.7993 79.4096 21.9089C76.6142 20.3805 75.0742 19.1944 75.0742 16.5318C75.0742 13.6894 76.9424 11.6872 79.8016 11.6872C82.1318 11.6872 83.7387 12.7506 84.3313 14.6023L82.3293 15.7624C81.7149 14.6749 80.9916 14.1562 80.0022 14.1562C78.6162 14.1562 77.756 15.0466 77.756 16.3779C77.756 18.0844 78.9896 18.6014 80.7489 19.5126C83.5193 20.9476 84.8151 22.2063 84.8151 24.7496C84.8151 28.0312 82.8613 30.208 79.6071 30.208C76.9176 30.208 75.1644 28.7729 74.6371 26.2037L76.6811 25.1421Z" fill="#007FBA"/>
<path fill-rule="evenodd" clip-rule="evenodd" d="M87.6551 29.7325H90.2046V12.0815H87.6551V29.7325Z" fill="#007FBA"/>
<path fill-rule="evenodd" clip-rule="evenodd" d="M93.8742 11.393L103.858 22.18C104.496 22.8751 105.046 23.5874 105.574 24.3291V12.0828H107.926V30.4255L97.7444 19.4413C97.1735 18.8258 96.6695 18.155 96.2262 17.4651V29.7339H93.8742V11.393Z" fill="#007FBA"/>
<path fill-rule="evenodd" clip-rule="evenodd" d="M112.678 25.1421C113.051 26.7258 114.102 27.5609 115.709 27.5609C117.248 27.5609 118.195 26.5253 118.195 24.9467C118.195 23.2195 117.032 22.7993 115.406 21.9089C112.611 20.3805 111.071 19.1944 111.071 16.5318C111.071 13.6894 112.939 11.6872 115.798 11.6872C118.131 11.6872 119.735 12.7506 120.328 14.6023L118.329 15.7624C117.711 14.6749 116.986 14.1562 115.999 14.1562C114.613 14.1562 113.752 15.0466 113.752 16.3779C113.752 18.0844 114.986 18.6014 116.745 19.5126C119.519 20.9476 120.812 22.2063 120.812 24.7496C120.812 28.0312 118.858 30.208 115.6 30.208C112.92 30.208 111.158 28.7729 110.63 26.2037L112.678 25.1421Z" fill="#007FBA"/>
<path fill-rule="evenodd" clip-rule="evenodd" d="M56.8568 40.2502V36.0955H57.8726V46.3431H56.8568V41.3118H52.1855V46.3431H51.1635V36.0955H52.1855V40.2502H56.8568Z" fill="#007FBA"/>
<path fill-rule="evenodd" clip-rule="evenodd" d="M59.7645 36.095H64.4965V37.1514H60.7802V40.2013H64.386V41.2594H60.7802V45.281H64.4965V46.3443H59.7645V36.095Z" fill="#007FBA"/>
<path fill-rule="evenodd" clip-rule="evenodd" d="M67.5939 43.4331L66.4941 46.3429H65.3772L69.5896 35.6026L73.6948 46.3429H72.5701L71.4983 43.4331H67.5939ZM69.5694 38.2721L68.0045 42.3749H71.0939L69.5694 38.2721Z" fill="#007FBA"/>
<path fill-rule="evenodd" clip-rule="evenodd" d="M75.7058 45.2819H78.2243V46.3434H74.6885V36.0958H75.7058V45.2819Z" fill="#007FBA"/>
<path fill-rule="evenodd" clip-rule="evenodd" d="M80.6855 46.344H79.6681V37.1528H77.4655V36.0946H82.9161V37.1528H80.6855V46.344Z" fill="#007FBA"/>
<path fill-rule="evenodd" clip-rule="evenodd" d="M89.6907 40.2502V36.0955H90.708V46.3431H89.6907V41.3118H85.0209V46.3431H84.0036V36.0955H85.0209V40.2502H89.6907Z" fill="#007FBA"/>
<path fill-rule="evenodd" clip-rule="evenodd" d="M99.5587 38.3373C98.8322 37.4935 97.8273 36.9748 96.7758 36.9748C94.7396 36.9748 93.0938 38.9632 93.0938 41.216C93.0938 43.474 94.752 45.4589 96.8007 45.4589C97.8273 45.4589 98.8322 44.9143 99.5587 44.0999V45.516C98.7747 46.1505 97.8024 46.5188 96.8396 46.5188C94.2542 46.5188 92.0749 44.1656 92.0749 41.261C92.0749 38.3183 94.22 35.9202 96.8396 35.9202C97.8507 35.9202 98.7498 36.2435 99.5587 36.9264V38.3373Z" fill="#007FBA"/>
<path fill-rule="evenodd" clip-rule="evenodd" d="M102.646 43.4331L101.546 46.3429H100.43L104.641 35.6026L108.746 46.3429H107.622L106.544 43.4331H102.646ZM104.621 38.2721L103.056 42.3749H106.146L104.621 38.2721Z" fill="#007FBA"/>
<path fill-rule="evenodd" clip-rule="evenodd" d="M110.754 46.344H109.74V36.0946H111.061C112.794 36.0946 114.401 36.6116 114.401 38.9198C114.401 40.5 113.519 41.6135 112.112 41.7535L115.02 46.344H113.771L111.01 41.8435H110.754V46.344ZM110.754 40.8406H111.07C112.221 40.8406 113.385 40.5934 113.385 39.0045C113.385 37.317 112.282 37.1528 111.061 37.1528H110.754V40.8406Z" fill="#007FBA"/>
<path fill-rule="evenodd" clip-rule="evenodd" d="M116.208 36.0797V46.3308H120.942V45.2658H117.222V41.2442H120.83V40.1861H117.222V37.1379H120.942V36.0797H116.208Z" fill="#007FBA"/>
<path fill-rule="evenodd" clip-rule="evenodd" d="M51.1649 51.5539H120.835V50.8225H51.1649V51.5539Z" fill="#007FBA"/>
</svg>
